<svg width="458" height="659" viewBox="0 0 458 659" fill="none" xmlns="http://www.w3.org/2000/svg">
<g filter="url(#filter0_d_47_96)">
<rect x="95" y="522.299" width="22.7418" height="118.155" rx="10" transform="rotate(-42.2788 95 522.299)" fill="#006FFF"/>
<rect x="97.8252" y="522.434" width="18.7418" height="114.155" rx="8" transform="rotate(-42.2788 97.8252 522.434)" stroke="white" stroke-width="4"/>
</g>
<g filter="url(#filter1_d_47_96)">
<rect x="31.7412" y="606.535" width="22.7418" height="120.087" rx="10" transform="rotate(-133.803 31.7412 606.535)" fill="#006FFF"/>
<rect x="31.8003" y="603.708" width="18.7418" height="116.087" rx="8" transform="rotate(-133.803 31.8003 603.708)" stroke="white" stroke-width="4"/>
</g>
<g filter="url(#filter2_d_47_96)">
<rect x="101" y="346.299" width="22.7418" height="118.385" rx="10" transform="rotate(-42.2788 101 346.299)" fill="#006FFF"/>
<rect x="103.825" y="346.434" width="18.7418" height="114.385" rx="8" transform="rotate(-42.2788 103.825 346.434)" stroke="white" stroke-width="4"/>
</g>
<g filter="url(#filter3_d_47_96)">
<rect x="32.7422" y="428.933" width="22.7418" height="117.771" rx="10" transform="rotate(-133.803 32.7422 428.933)" fill="#006FFF"/>
<rect x="32.8013" y="426.105" width="18.7418" height="113.771" rx="8" transform="rotate(-133.803 32.8013 426.105)" stroke="white" stroke-width="4"/>
</g>
<g filter="url(#filter4_d_47_96)">
<rect x="95.001" y="331" width="23.2212" height="206.41" rx="10" fill="#006FFF"/>
<rect x="97.001" y="333" width="19.2212" height="202.41" rx="8" stroke="white" stroke-width="4" stroke-linejoin="round"/>
</g>
<g filter="url(#filter5_d_47_96)">
<path d="M435.08 29.6509V58.7241H403.712L362.397 106.924L360.102 597.429H331.794L334.089 106.924L282.828 58.7241H120.63V67.14H110.684V225.513L116.805 229.338V240.814V246.935L110.684 253.056C132.872 253.056 138.227 276.008 138.227 295.901C138.227 321.914 124.456 335.685 106.859 336.45C89.2617 337.215 75.4902 317.323 75.4902 295.901C75.4902 265.909 90.7919 253.056 100.738 253.056L94.6173 246.935V233.164V229.338L100.738 225.513V67.14H88.4966V58.7241H38.001V29.6509H88.4966V22H96.9126H108.771H120.63V29.6509H334.089V22H360.102H362.397V29.6509H435.08Z" fill="#FF00D9"/>
<path d="M334.089 58.7241H362.397M334.089 58.7241V82.8243M334.089 58.7241H308.459M362.397 58.7241V82.8243M362.397 58.7241H383.055M362.397 106.924L360.102 597.429H331.794L334.089 106.924M362.397 106.924L403.712 58.7241M362.397 106.924V82.8243M403.712 58.7241H435.08V29.6509H362.397M403.712 58.7241H383.055M362.397 82.8243L383.055 58.7241M334.089 106.924L282.828 58.7241M334.089 106.924V82.8243M282.828 58.7241H308.459M282.828 58.7241H120.63M334.089 82.8243L308.459 58.7241M88.4966 29.6509H38.001V58.7241H88.4966M88.4966 29.6509V58.7241M88.4966 29.6509V22H96.9126M88.4966 58.7241V67.14H100.738M120.63 58.7241V29.6509M120.63 58.7241V67.14H110.684M120.63 29.6509V22H108.771M120.63 29.6509H334.089M100.738 67.14V225.513M100.738 67.14H110.684M100.738 225.513H110.684M100.738 225.513L94.6173 229.338V233.164M110.684 225.513V67.14M110.684 225.513L116.805 229.338V240.814M96.9126 22V58.7241M96.9126 22H108.771M108.771 22V47.2478M94.6173 246.935L100.738 253.056M94.6173 246.935V233.164M94.6173 246.935H106.859M100.738 253.056H110.684M100.738 253.056C90.7919 253.056 75.4902 265.909 75.4902 295.901C75.4902 317.323 89.2617 337.215 106.859 336.45C124.456 335.685 138.227 321.914 138.227 295.901C138.227 276.008 132.872 253.056 110.684 253.056M110.684 253.056L116.805 246.935V240.814M94.6173 233.164H106.859M116.805 240.814H103.033M334.089 29.6509V22H360.102H362.397V29.6509M334.089 29.6509H362.397M106.859 260.707C99.2078 260.707 84.0591 267.745 84.6712 295.901C85.2833 324.056 100.483 328.289 107.624 328.034C114.765 327.779 129.253 322.679 129.811 295.901C130.576 259.177 110.684 260.707 106.859 260.707Z" stroke="white" stroke-width="4"/>
</g>
<g filter="url(#filter6_d_47_96)">
<path d="M88.4967 58.7241V29.6509V22H96.9126H108.771H120.63V29.6509V58.7241V67.14H110.684V225.513L116.805 229.338V240.814V246.935L110.684 253.056C132.872 253.056 138.227 276.008 138.227 295.901C138.227 321.914 124.456 335.685 106.859 336.45C89.2618 337.215 75.4902 317.323 75.4902 295.901C75.4902 265.909 90.7919 253.056 100.738 253.056L94.6174 246.935V233.164V229.338L100.738 225.513V67.14H88.4967V58.7241Z" fill="#006FFF"/>
<path d="M100.738 67.14H88.4967V58.7241V29.6509V22H96.9126M100.738 67.14V225.513M100.738 67.14H110.684M100.738 225.513H110.684M100.738 225.513L94.6174 229.338V233.164M110.684 225.513V67.14M110.684 225.513L116.805 229.338V240.814M110.684 67.14H120.63V58.7241V29.6509V22H108.771M96.9126 22V58.7241M96.9126 22H108.771M108.771 22V47.2478M94.6174 246.935L100.738 253.056M94.6174 246.935V233.164M94.6174 246.935H106.859M100.738 253.056H110.684M100.738 253.056C90.7919 253.056 75.4902 265.909 75.4902 295.901C75.4902 317.323 89.2618 337.215 106.859 336.45C124.456 335.685 138.227 321.914 138.227 295.901C138.227 276.008 132.872 253.056 110.684 253.056M110.684 253.056L116.805 246.935V240.814M94.6174 233.164H106.859M116.805 240.814H103.033M106.859 260.707C99.2079 260.707 84.0592 267.745 84.6713 295.901C85.2833 324.056 100.483 328.289 107.624 328.034C114.765 327.779 129.253 322.679 129.811 295.901C130.576 259.176 110.684 260.707 106.859 260.707Z" stroke="white" stroke-width="4"/>
</g>
<g filter="url(#filter7_i_47_96)">
<path d="M86.9833 295.83C86.4235 268.962 100.276 262.245 107.273 262.245C110.771 262.245 128.961 260.785 128.262 295.83C127.752 321.383 114.502 326.251 107.972 326.494C101.442 326.737 87.543 322.698 86.9833 295.83Z" fill="#1A1E21"/>
</g>
<g filter="url(#filter8_d_47_96)">
<circle cx="106.153" cy="296.152" r="45.1523" fill="#006FFF"/>
<circle cx="106.153" cy="296.152" r="43.1523" stroke="white" stroke-width="4"/>
</g>
<defs>
<filter id="filter0_d_47_96" x="79.126" y="491.126" width="128.062" height="134.468" filterUnits="userSpaceOnUse" color-interpolation-filters="sRGB">
<feFlood flood-opacity="0" result="BackgroundImageFix"/>
<feColorMatrix in="SourceAlpha" type="matrix" values="0 0 0 0 0 0 0 0 0 0 0 0 0 0 0 0 0 0 127 0" result="hardAlpha"/>
<feOffset/>
<feGaussianBlur stdDeviation="10"/>
<feComposite in2="hardAlpha" operator="out"/>
<feColorMatrix type="matrix" values="0 0 0 0 0 0 0 0 0 0.433333 0 0 0 0 1 0 0 0 1 0"/>
<feBlend mode="normal" in2="BackgroundImageFix" result="effect1_dropShadow_47_96"/>
<feBlend mode="normal" in="SourceGraphic" in2="effect1_dropShadow_47_96" result="shape"/>
</filter>
<filter id="filter1_d_47_96" x="0.138672" y="491.139" width="134.133" height="131.258" filterUnits="userSpaceOnUse" color-interpolation-filters="sRGB">
<feFlood flood-opacity="0" result="BackgroundImageFix"/>
<feColorMatrix in="SourceAlpha" type="matrix" values="0 0 0 0 0 0 0 0 0 0 0 0 0 0 0 0 0 0 127 0" result="hardAlpha"/>
<feOffset/>
<feGaussianBlur stdDeviation="10"/>
<feComposite in2="hardAlpha" operator="out"/>
<feColorMatrix type="matrix" values="0 0 0 0 0 0 0 0 0 0.433333 0 0 0 0 1 0 0 0 1 0"/>
<feBlend mode="normal" in2="BackgroundImageFix" result="effect1_dropShadow_47_96"/>
<feBlend mode="normal" in="SourceGraphic" in2="effect1_dropShadow_47_96" result="shape"/>
</filter>
<filter id="filter2_d_47_96" x="85.126" y="315.126" width="128.216" height="134.638" filterUnits="userSpaceOnUse" color-interpolation-filters="sRGB">
<feFlood flood-opacity="0" result="BackgroundImageFix"/>
<feColorMatrix in="SourceAlpha" type="matrix" values="0 0 0 0 0 0 0 0 0 0 0 0 0 0 0 0 0 0 127 0" result="hardAlpha"/>
<feOffset/>
<feGaussianBlur stdDeviation="10"/>
<feComposite in2="hardAlpha" operator="out"/>
<feColorMatrix type="matrix" values="0 0 0 0 0 0 0 0 0 0.433333 0 0 0 0 1 0 0 0 1 0"/>
<feBlend mode="normal" in2="BackgroundImageFix" result="effect1_dropShadow_47_96"/>
<feBlend mode="normal" in="SourceGraphic" in2="effect1_dropShadow_47_96" result="shape"/>
</filter>
<filter id="filter3_d_47_96" x="1.13965" y="315.139" width="132.461" height="129.655" filterUnits="userSpaceOnUse" color-interpolation-filters="sRGB">
<feFlood flood-opacity="0" result="BackgroundImageFix"/>
<feColorMatrix in="SourceAlpha" type="matrix" values="0 0 0 0 0 0 0 0 0 0 0 0 0 0 0 0 0 0 127 0" result="hardAlpha"/>
<feOffset/>
<feGaussianBlur stdDeviation="10"/>
<feComposite in2="hardAlpha" operator="out"/>
<feColorMatrix type="matrix" values="0 0 0 0 0 0 0 0 0 0.433333 0 0 0 0 1 0 0 0 1 0"/>
<feBlend mode="normal" in2="BackgroundImageFix" result="effect1_dropShadow_47_96"/>
<feBlend mode="normal" in="SourceGraphic" in2="effect1_dropShadow_47_96" result="shape"/>
</filter>
<filter id="filter4_d_47_96" x="75.001" y="311" width="63.2207" height="246.41" filterUnits="userSpaceOnUse" color-interpolation-filters="sRGB">
<feFlood flood-opacity="0" result="BackgroundImageFix"/>
<feColorMatrix in="SourceAlpha" type="matrix" values="0 0 0 0 0 0 0 0 0 0 0 0 0 0 0 0 0 0 127 0" result="hardAlpha"/>
<feOffset/>
<feGaussianBlur stdDeviation="10"/>
<feComposite in2="hardAlpha" operator="out"/>
<feColorMatrix type="matrix" values="0 0 0 0 0 0 0 0 0 0.433333 0 0 0 0 1 0 0 0 1 0"/>
<feBlend mode="normal" in2="BackgroundImageFix" result="effect1_dropShadow_47_96"/>
<feBlend mode="normal" in="SourceGraphic" in2="effect1_dropShadow_47_96" result="shape"/>
</filter>
<filter id="filter5_d_47_96" x="16.001" y="0" width="441.079" height="619.429" filterUnits="userSpaceOnUse" color-interpolation-filters="sRGB">
<feFlood flood-opacity="0" result="BackgroundImageFix"/>
<feColorMatrix in="SourceAlpha" type="matrix" values="0 0 0 0 0 0 0 0 0 0 0 0 0 0 0 0 0 0 127 0" result="hardAlpha"/>
<feOffset/>
<feGaussianBlur stdDeviation="10"/>
<feComposite in2="hardAlpha" operator="out"/>
<feColorMatrix type="matrix" values="0 0 0 0 1 0 0 0 0 0 0 0 0 0 0.85 0 0 0 1 0"/>
<feBlend mode="normal" in2="BackgroundImageFix" result="effect1_dropShadow_47_96"/>
<feBlend mode="normal" in="SourceGraphic" in2="effect1_dropShadow_47_96" result="shape"/>
</filter>
<filter id="filter6_d_47_96" x="53.4902" y="0" width="106.737" height="358.472" filterUnits="userSpaceOnUse" color-interpolation-filters="sRGB">
<feFlood flood-opacity="0" result="BackgroundImageFix"/>
<feColorMatrix in="SourceAlpha" type="matrix" values="0 0 0 0 0 0 0 0 0 0 0 0 0 0 0 0 0 0 127 0" result="hardAlpha"/>
<feOffset/>
<feGaussianBlur stdDeviation="10"/>
<feComposite in2="hardAlpha" operator="out"/>
<feColorMatrix type="matrix" values="0 0 0 0 0 0 0 0 0 0.433333 0 0 0 0 1 0 0 0 1 0"/>
<feBlend mode="normal" in2="BackgroundImageFix" result="effect1_dropShadow_47_96"/>
<feBlend mode="normal" in="SourceGraphic" in2="effect1_dropShadow_47_96" result="shape"/>
</filter>
<filter id="filter7_i_47_96" x="86.9668" y="262.237" width="41.3145" height="64.2672" filterUnits="userSpaceOnUse" color-interpolation-filters="sRGB">
<feFlood flood-opacity="0" result="BackgroundImageFix"/>
<feBlend mode="normal" in="SourceGraphic" in2="BackgroundImageFix" result="shape"/>
<feColorMatrix in="SourceAlpha" type="matrix" values="0 0 0 0 0 0 0 0 0 0 0 0 0 0 0 0 0 0 127 0" result="hardAlpha"/>
<feOffset/>
<feGaussianBlur stdDeviation="10"/>
<feComposite in2="hardAlpha" operator="arithmetic" k2="-1" k3="1"/>
<feColorMatrix type="matrix" values="0 0 0 0 0 0 0 0 0 0.433333 0 0 0 0 1 0 0 0 1 0"/>
<feBlend mode="normal" in2="shape" result="effect1_innerShadow_47_96"/>
</filter>
<filter id="filter8_d_47_96" x="41.001" y="231" width="130.305" height="130.304" filterUnits="userSpaceOnUse" color-interpolation-filters="sRGB">
<feFlood flood-opacity="0" result="BackgroundImageFix"/>
<feColorMatrix in="SourceAlpha" type="matrix" values="0 0 0 0 0 0 0 0 0 0 0 0 0 0 0 0 0 0 127 0" result="hardAlpha"/>
<feOffset/>
<feGaussianBlur stdDeviation="10"/>
<feComposite in2="hardAlpha" operator="out"/>
<feColorMatrix type="matrix" values="0 0 0 0 0 0 0 0 0 0.433333 0 0 0 0 1 0 0 0 1 0"/>
<feBlend mode="normal" in2="BackgroundImageFix" result="effect1_dropShadow_47_96"/>
<feBlend mode="normal" in="SourceGraphic" in2="effect1_dropShadow_47_96" result="shape"/>
</filter>
</defs>
</svg>
