<svg width="442" height="659" viewBox="0 0 442 659" fill="none" xmlns="http://www.w3.org/2000/svg">
<g filter="url(#filter0_d_47_97)">
<rect x="79" y="331" width="23.2212" height="206.41" rx="10" fill="#006FFF"/>
<rect x="81" y="333" width="19.2212" height="202.41" rx="8" stroke="white" stroke-width="4" stroke-linejoin="round"/>
</g>
<g filter="url(#filter1_d_47_97)">
<path d="M419.079 29.6509V58.7241H387.711L346.396 106.924L344.101 597.429H315.793L318.088 106.924L266.827 58.7241H104.629V67.14H94.6831V225.513L100.804 229.338V240.814V246.935L94.6831 253.056C116.871 253.056 122.226 276.008 122.226 295.901C122.226 321.914 108.455 335.685 90.8577 336.45C73.2607 337.215 59.4892 317.323 59.4892 295.901C59.4892 265.909 74.7909 253.056 84.737 253.056L78.6163 246.935V233.164V229.338L84.737 225.513V67.14H72.4956V58.7241H22V29.6509H72.4956V22H80.9116H92.7704H104.629V29.6509H318.088V22H344.101H346.396V29.6509H419.079Z" fill="#FF00D9"/>
<path d="M318.088 58.7241H346.396M318.088 58.7241V82.8243M318.088 58.7241H292.458M346.396 58.7241V82.8243M346.396 58.7241H367.054M346.396 106.924L344.101 597.429H315.793L318.088 106.924M346.396 106.924L387.711 58.7241M346.396 106.924V82.8243M387.711 58.7241H419.079V29.6509H346.396M387.711 58.7241H367.054M346.396 82.8243L367.054 58.7241M318.088 106.924L266.827 58.7241M318.088 106.924V82.8243M266.827 58.7241H292.458M266.827 58.7241H104.629M318.088 82.8243L292.458 58.7241M72.4956 29.6509H22V58.7241H72.4956M72.4956 29.6509V58.7241M72.4956 29.6509V22H80.9116M72.4956 58.7241V67.14H84.737M104.629 58.7241V29.6509M104.629 58.7241V67.14H94.6831M104.629 29.6509V22H92.7704M104.629 29.6509H318.088M84.737 67.14V225.513M84.737 67.14H94.6831M84.737 225.513H94.6831M84.737 225.513L78.6163 229.338V233.164M94.6831 225.513V67.14M94.6831 225.513L100.804 229.338V240.814M80.9116 22V58.7241M80.9116 22H92.7704M92.7704 22V47.2478M78.6163 246.935L84.737 253.056M78.6163 246.935V233.164M78.6163 246.935H90.8577M84.737 253.056H94.6831M84.737 253.056C74.7909 253.056 59.4892 265.909 59.4892 295.901C59.4892 317.323 73.2607 337.215 90.8577 336.45C108.455 335.685 122.226 321.914 122.226 295.901C122.226 276.008 116.871 253.056 94.6831 253.056M94.6831 253.056L100.804 246.935V240.814M78.6163 233.164H90.8577M100.804 240.814H87.0323M318.088 29.6509V22H344.101H346.396V29.6509M318.088 29.6509H346.396M90.8577 260.707C83.2068 260.707 68.0581 267.745 68.6702 295.901C69.2823 324.056 84.482 328.289 91.6228 328.034C98.7636 327.779 113.252 322.679 113.81 295.901C114.575 259.177 94.6831 260.707 90.8577 260.707Z" stroke="white" stroke-width="4"/>
</g>
<g filter="url(#filter2_d_47_97)">
<path d="M72.4957 58.7241V29.6509V22H80.9116H92.7705H104.629V29.6509V58.7241V67.14H94.6832V225.513L100.804 229.338V240.814V246.935L94.6832 253.056C116.871 253.056 122.226 276.008 122.226 295.901C122.226 321.914 108.455 335.685 90.8578 336.45C73.2608 337.215 59.4893 317.323 59.4893 295.901C59.4893 265.909 74.791 253.056 84.7371 253.056L78.6164 246.935V233.164V229.338L84.7371 225.513V67.14H72.4957V58.7241Z" fill="#006FFF"/>
<path d="M84.7371 67.14H72.4957V58.7241V29.6509V22H80.9116M84.7371 67.14V225.513M84.7371 67.14H94.6832M84.7371 225.513H94.6832M84.7371 225.513L78.6164 229.338V233.164M94.6832 225.513V67.14M94.6832 225.513L100.804 229.338V240.814M94.6832 67.14H104.629V58.7241V29.6509V22H92.7705M80.9116 22V58.7241M80.9116 22H92.7705M92.7705 22V47.2478M78.6164 246.935L84.7371 253.056M78.6164 246.935V233.164M78.6164 246.935H90.8578M84.7371 253.056H94.6832M84.7371 253.056C74.791 253.056 59.4893 265.909 59.4893 295.901C59.4893 317.323 73.2608 337.215 90.8578 336.45C108.455 335.685 122.226 321.914 122.226 295.901C122.226 276.008 116.871 253.056 94.6832 253.056M94.6832 253.056L100.804 246.935V240.814M78.6164 233.164H90.8578M100.804 240.814H87.0323M90.8578 260.707C83.2069 260.707 68.0582 267.745 68.6703 295.901C69.2824 324.056 84.482 328.289 91.6228 328.034C98.7636 327.779 113.252 322.679 113.81 295.901C114.575 259.176 94.6832 260.707 90.8578 260.707Z" stroke="white" stroke-width="4"/>
</g>
<g filter="url(#filter3_i_47_97)">
<path d="M70.9823 295.83C70.4226 268.962 84.2754 262.245 91.2717 262.245C94.7699 262.245 112.96 260.785 112.261 295.83C111.751 321.383 98.5013 326.251 91.9713 326.494C85.4414 326.737 71.542 322.698 70.9823 295.83Z" fill="#1A1E21"/>
</g>
<g filter="url(#filter4_d_47_97)">
<circle cx="90.1523" cy="296.152" r="45.1523" fill="#006FFF"/>
<circle cx="90.1523" cy="296.152" r="43.1523" stroke="white" stroke-width="4"/>
</g>
<defs>
<filter id="filter0_d_47_97" x="59" y="311" width="63.2207" height="246.41" filterUnits="userSpaceOnUse" color-interpolation-filters="sRGB">
<feFlood flood-opacity="0" result="BackgroundImageFix"/>
<feColorMatrix in="SourceAlpha" type="matrix" values="0 0 0 0 0 0 0 0 0 0 0 0 0 0 0 0 0 0 127 0" result="hardAlpha"/>
<feOffset/>
<feGaussianBlur stdDeviation="10"/>
<feComposite in2="hardAlpha" operator="out"/>
<feColorMatrix type="matrix" values="0 0 0 0 0 0 0 0 0 0.433333 0 0 0 0 1 0 0 0 1 0"/>
<feBlend mode="normal" in2="BackgroundImageFix" result="effect1_dropShadow_47_97"/>
<feBlend mode="normal" in="SourceGraphic" in2="effect1_dropShadow_47_97" result="shape"/>
</filter>
<filter id="filter1_d_47_97" x="0" y="0" width="441.079" height="619.429" filterUnits="userSpaceOnUse" color-interpolation-filters="sRGB">
<feFlood flood-opacity="0" result="BackgroundImageFix"/>
<feColorMatrix in="SourceAlpha" type="matrix" values="0 0 0 0 0 0 0 0 0 0 0 0 0 0 0 0 0 0 127 0" result="hardAlpha"/>
<feOffset/>
<feGaussianBlur stdDeviation="10"/>
<feComposite in2="hardAlpha" operator="out"/>
<feColorMatrix type="matrix" values="0 0 0 0 1 0 0 0 0 0 0 0 0 0 0.85 0 0 0 1 0"/>
<feBlend mode="normal" in2="BackgroundImageFix" result="effect1_dropShadow_47_97"/>
<feBlend mode="normal" in="SourceGraphic" in2="effect1_dropShadow_47_97" result="shape"/>
</filter>
<filter id="filter2_d_47_97" x="37.4893" y="0" width="106.737" height="358.472" filterUnits="userSpaceOnUse" color-interpolation-filters="sRGB">
<feFlood flood-opacity="0" result="BackgroundImageFix"/>
<feColorMatrix in="SourceAlpha" type="matrix" values="0 0 0 0 0 0 0 0 0 0 0 0 0 0 0 0 0 0 127 0" result="hardAlpha"/>
<feOffset/>
<feGaussianBlur stdDeviation="10"/>
<feComposite in2="hardAlpha" operator="out"/>
<feColorMatrix type="matrix" values="0 0 0 0 0 0 0 0 0 0.433333 0 0 0 0 1 0 0 0 1 0"/>
<feBlend mode="normal" in2="BackgroundImageFix" result="effect1_dropShadow_47_97"/>
<feBlend mode="normal" in="SourceGraphic" in2="effect1_dropShadow_47_97" result="shape"/>
</filter>
<filter id="filter3_i_47_97" x="70.9658" y="262.237" width="41.3145" height="64.2672" filterUnits="userSpaceOnUse" color-interpolation-filters="sRGB">
<feFlood flood-opacity="0" result="BackgroundImageFix"/>
<feBlend mode="normal" in="SourceGraphic" in2="BackgroundImageFix" result="shape"/>
<feColorMatrix in="SourceAlpha" type="matrix" values="0 0 0 0 0 0 0 0 0 0 0 0 0 0 0 0 0 0 127 0" result="hardAlpha"/>
<feOffset/>
<feGaussianBlur stdDeviation="10"/>
<feComposite in2="hardAlpha" operator="arithmetic" k2="-1" k3="1"/>
<feColorMatrix type="matrix" values="0 0 0 0 0 0 0 0 0 0.433333 0 0 0 0 1 0 0 0 1 0"/>
<feBlend mode="normal" in2="shape" result="effect1_innerShadow_47_97"/>
</filter>
<filter id="filter4_d_47_97" x="25" y="231" width="130.305" height="130.304" filterUnits="userSpaceOnUse" color-interpolation-filters="sRGB">
<feFlood flood-opacity="0" result="BackgroundImageFix"/>
<feColorMatrix in="SourceAlpha" type="matrix" values="0 0 0 0 0 0 0 0 0 0 0 0 0 0 0 0 0 0 127 0" result="hardAlpha"/>
<feOffset/>
<feGaussianBlur stdDeviation="10"/>
<feComposite in2="hardAlpha" operator="out"/>
<feColorMatrix type="matrix" values="0 0 0 0 0 0 0 0 0 0.433333 0 0 0 0 1 0 0 0 1 0"/>
<feBlend mode="normal" in2="BackgroundImageFix" result="effect1_dropShadow_47_97"/>
<feBlend mode="normal" in="SourceGraphic" in2="effect1_dropShadow_47_97" result="shape"/>
</filter>
</defs>
</svg>
