<svg width="467" height="1124" viewBox="0 0 467 1124" fill="none" xmlns="http://www.w3.org/2000/svg">
<g filter="url(#filter0_d_80_232)">
<path fill-rule="evenodd" clip-rule="evenodd" d="M241.14 69.7712C252.956 68.4583 250.439 51.1721 247.704 42.6931L228.011 23C214.882 25.6258 217.071 41.5991 219.806 49.2575L226.37 55.5694C214.554 61.2754 217.071 76.1672 219.806 82.8999L228.011 91.1054C214.882 91.1054 217.071 108.61 219.806 117.363L226.37 123.693C215.211 130.07 217.344 143.464 219.806 149.364L227.191 156.749C213.405 163.314 217.618 178.63 221.447 185.468L227.191 190.77C214.718 196.325 218.165 211.978 221.447 219.111L225.549 223.049C215.703 230.139 218.165 245.259 220.626 251.933L227.191 258.245C215.375 263.294 217.891 277.475 220.626 283.934L227.191 291.003C214.062 297.972 217.344 312.716 220.626 319.218L226.157 324.961C215.484 329.556 216.929 343.834 218.985 350.398L226.157 357.571C216.141 361.995 217.202 378.702 218.985 386.502L207.498 394.708C205.036 389.785 179.599 379.938 173.855 394.708C169.26 406.524 179.052 413.307 184.522 415.222C183.678 415.912 182.894 416.593 182.165 417.263C167.311 430.94 175.841 440.526 182.881 446.578L181.24 448.18L175.496 453.787C166.306 466.26 176.59 473.754 182.881 475.942C176.043 480.318 167.455 492.681 181.24 503.841C176.043 510.679 168.111 525.011 184.522 530.919L192.21 524.354C192.994 526.252 194.33 527.725 196.01 528.856L196.465 538.304C178.249 536.334 172.708 550.612 172.214 557.997V565.382C154.777 560.787 149.632 574.955 149.239 582.613V587.536C132.318 589.954 126.688 602.179 125.939 614.615C118.115 615.162 103.124 620.851 105.75 639.231C87.3695 640.544 84.9626 656.189 86.0566 663.847L87.5771 669.591C68.9956 670.904 67.3336 688.19 68.8252 696.669L70.3814 700.772C56.6249 700.116 53.2185 718.55 53.2348 727.85L56.5169 733.539C42.0753 732.839 41.2 751.336 42.5676 760.672L44.8651 764.775C29.6357 765.431 30.4235 784.194 32.7211 793.494L36.8239 798.378C23.0388 800.973 24.5157 817.537 26.9774 825.495L33.7942 832.88C19.5545 834.193 21.1284 850.385 23.6953 858.317L31.0473 864.881C24.7456 870.899 15.9231 885.723 31.0473 896.883L36.8239 901.098C32.4258 902.701 25.1132 909.355 31.0473 923.14L45.013 932.987C39.2637 937.363 31.2147 949.07 45.013 960.885L55.6965 965.1C51.0468 971.901 46.3423 987.471 64.7225 995.348L68.0047 995.928C65.379 1017.4 79.4924 1024.18 86.8773 1024.89H94.2622C83.7592 1038.02 97.5444 1046.77 105.75 1049.5L116.417 1048.35C109.417 1063.84 127.723 1069.8 137.751 1070.84L146.777 1067.93C137.587 1083.59 159.359 1086.79 171.394 1086.43L181.65 1080.28C170.163 1101.61 193.548 1098.19 206.677 1093.81L209.528 1091.35C211.151 1106.45 229.638 1102.02 238.679 1097.92L243.602 1092.57C255.418 1108.63 269.859 1098.45 275.603 1091.35L278.885 1085.11C287.419 1099.25 302.134 1089.69 308.425 1083.15L309.562 1079.28C324.256 1085.38 336.261 1072.36 340.426 1065.09L341.421 1056.89C354.033 1065.42 362.971 1051.69 365.863 1043.76V1038.02C383.067 1042.61 388.348 1026.26 388.839 1017.5L388.484 1014.22C409.206 1012.91 411.03 993.981 409.352 984.681L406.539 978.117C424.638 982.055 425.802 963.347 424.122 953.5L420.019 946.663C436.43 948.413 436.157 930.069 433.969 920.679L429.045 913.786C445.656 914.18 443.078 895.57 439.713 886.216L435.61 881.553C448.739 874.542 444.909 858.765 441.354 851.753L436.738 847.65C450.113 843.711 444.294 825.769 439.713 817.29L430.647 810.725C447.027 805.474 439.139 789.391 433.148 782.006L427.793 778.724C437.294 762.969 427.663 751.919 421.661 748.364L414.89 745.43C426.387 732.58 414.894 720.15 407.711 715.542L402.788 713.844C411.978 700.014 400.6 689.52 393.762 686.002L388.018 684.566C393.27 666.643 382.548 658.362 376.53 656.462L368.325 654.722C376.202 640.201 362.855 630.686 355.196 627.743L349.452 627.221C356.673 613.675 344.256 604.967 337.144 602.306L325.657 600.993C335.503 585.502 321.554 577.362 313.348 575.228H303.502C310.723 559.646 297.758 552.872 290.373 551.432H281.347C287.255 543.555 278.885 535.28 273.962 532.126C276.45 532.418 278.465 532.153 279.706 531.739C302.681 523.862 293.108 509.858 285.45 503.841C300.548 492.681 291.74 480.592 285.45 475.942C301.204 461.5 289.826 450.993 282.167 447.545L285.45 444.742L291.193 439.838C294.749 433 298.25 418.832 283.808 416.863C284.777 416.158 285.772 415.334 286.732 414.401C291.73 409.541 295.782 401.713 290.373 392.246C287.09 386.502 275.603 388.964 273.962 393.067C273.962 391.754 270.68 388.143 269.038 386.502L266.724 378.297C284.566 368.45 285.548 355.048 283.808 349.578C291.467 345.202 309.339 329.622 297.758 315.935C288.732 305.268 275.603 319.218 273.962 324.961C258.207 329.556 258.098 346.569 260.012 354.501C257.61 354.891 252.113 357.03 249.345 362.47C251.759 353.531 246.249 345.271 241.96 341.372C255.089 328.244 247.431 312.927 241.96 306.909C255.089 299.032 247.431 280.652 241.96 272.446C255.089 262.6 247.431 245.915 241.96 238.804C256.402 230.27 248.525 212.82 242.781 205.161C254.597 194.658 247.704 178.904 242.781 172.34C254.597 161.18 247.704 145.809 242.781 139.518C254.597 126.389 246.063 109.978 240.319 103.414C253.448 100.952 250.986 77.9767 241.14 69.7712ZM197.374 564.507C194.127 573.738 184.547 591.547 172.208 588.941C171.937 597.357 167.012 613.864 149.477 612.561C149.477 621.249 145.418 638.299 129.181 636.995C130.934 657.846 118.005 664.145 111.322 664.688C112.133 673.104 109.86 690.425 94.2734 692.38C96.1677 701.611 95.7348 720.235 78.849 720.887C81.2844 729.575 82.2586 747.439 66.6717 749.394C70.1896 759.167 72.8415 779.204 55.3063 781.158C59.9066 789.303 65.5352 807.222 51.2472 813.738C56.1181 820.796 62.288 837.195 48 846.317C53.6827 852.833 61.6384 868.308 48 878.081C61.6142 887.855 57.4611 904.416 53.6827 911.475C69.2696 921.249 64.5069 935.638 60.1773 941.611C80.1105 951.385 79.8482 965.774 77.2254 971.747C94.7606 978.173 95.356 992.343 93.4617 998.625C100.497 1000.8 114.082 1008.72 112.133 1023.06C120.522 1023.87 137.137 1029.25 136.488 1044.24C144.336 1043.42 160.68 1045.54 163.278 1060.52C171.937 1058.35 189.743 1057.59 191.691 1071.93C200.351 1067.31 218.968 1061.67 224.164 1076C231.2 1070.84 247.544 1063.46 256.637 1075.19C260.155 1068.91 271.087 1058.25 286.674 1065.78C290.462 1059.14 301.449 1047.33 315.088 1053.19C316.982 1046.14 324.992 1032.83 341.877 1036.09C341.877 1028.22 346.261 1012.47 363.796 1012.47C363.255 1004.87 366.394 988.851 383.28 985.593C381.927 978.263 382.793 962.95 397.081 960.344C394.104 952.199 391.885 934.281 406.823 927.765C404.929 918.534 403.9 899.421 414.941 896.814C410.341 889.213 404.712 872.217 419 865.05C412.776 859.62 403.576 845.339 416.565 831.656C411.152 827.584 402.926 815.529 413.317 799.891C407.364 796.634 397.406 785.394 405.199 766.498C398.975 764.054 388.151 754.932 394.646 737.991C386.798 734.733 373.214 724.145 381.656 707.855C374.35 707.312 360.225 700.851 362.173 679.348C355.678 676.905 343.663 667.946 347.56 651.656C338.63 650.027 321.907 642.697 326.453 626.407C318.876 625.05 304.372 617.937 306.969 600.344C298.039 599.529 280.829 593.665 283.427 576.724C276.12 577.037 260.858 572.752 258.26 553.104C249.208 551.797 233.489 546.672 237.258 536.241C237.29 536.161 237.32 536.081 237.348 536C237.317 536.081 237.287 536.161 237.258 536.241C235.202 541.32 224.028 544.705 218.616 545.774C217.782 553.727 212.624 562.026 197.374 564.507Z" fill="#006FFF"/>
<path d="M247.704 42.6931L249.608 42.0791L249.46 41.62L249.118 41.2789L247.704 42.6931ZM241.14 69.7712L240.919 67.7834L236.253 68.3019L239.859 71.3076L241.14 69.7712ZM228.011 23L229.425 21.5858L228.668 20.8289L227.619 21.0388L228.011 23ZM219.806 49.2575L217.922 49.9302L218.08 50.3732L218.419 50.6992L219.806 49.2575ZM226.37 55.5694L227.24 57.3704L229.828 56.1203L227.756 54.1277L226.37 55.5694ZM219.806 82.8999L217.953 83.6527L218.105 84.0278L218.391 84.3142L219.806 82.8999ZM228.011 91.1054V93.1054H232.84L229.425 89.6912L228.011 91.1054ZM219.806 117.363L217.897 117.959L218.049 118.448L218.417 118.803L219.806 117.363ZM226.37 123.693L227.362 125.429L229.679 124.105L227.758 122.253L226.37 123.693ZM219.806 149.364L217.96 150.134L218.112 150.499L218.391 150.778L219.806 149.364ZM227.191 156.749L228.05 158.555L230.607 157.337L228.605 155.335L227.191 156.749ZM221.447 185.468L219.702 186.446L219.857 186.723L220.09 186.938L221.447 185.468ZM227.191 190.77L228.004 192.597L230.78 191.361L228.547 189.301L227.191 190.77ZM221.447 219.111L219.63 219.947L219.788 220.291L220.062 220.554L221.447 219.111ZM225.549 223.049L226.718 224.672L228.667 223.269L226.935 221.607L225.549 223.049ZM220.626 251.933L218.75 252.625L218.909 253.056L219.24 253.374L220.626 251.933ZM227.191 258.245L227.977 260.084L230.754 258.897L228.577 256.803L227.191 258.245ZM220.626 283.934L218.785 284.714L218.922 285.037L219.161 285.295L220.626 283.934ZM227.191 291.003L228.128 292.77L230.427 291.55L228.656 289.642L227.191 291.003ZM220.626 319.218L218.841 320.119L218.977 320.388L219.186 320.605L220.626 319.218ZM226.157 324.961L226.948 326.798L229.602 325.656L227.598 323.574L226.157 324.961ZM218.985 350.398L217.077 350.996L217.223 351.465L217.571 351.813L218.985 350.398ZM226.157 357.571L226.965 359.4L229.636 358.22L227.572 356.156L226.157 357.571ZM218.985 386.502L220.148 388.13L221.232 387.355L220.935 386.057L218.985 386.502ZM207.498 394.708L205.709 395.602L206.755 397.696L208.66 396.335L207.498 394.708ZM173.855 394.708L171.991 393.983L173.855 394.708ZM184.522 415.222L185.789 416.769L188.548 414.512L185.183 413.334L184.522 415.222ZM182.165 417.263L183.52 418.735L182.165 417.263ZM182.881 446.578L184.278 448.009L185.84 446.485L184.185 445.062L182.881 446.578ZM181.24 448.18L179.843 446.749H179.843L181.24 448.18ZM175.496 453.787L174.099 452.356L173.983 452.47L173.886 452.601L175.496 453.787ZM182.881 475.942L183.959 477.627L187.428 475.406L183.538 474.053L182.881 475.942ZM181.24 503.841L182.832 505.051L184.006 503.507L182.499 502.286L181.24 503.841ZM184.522 530.919L183.845 532.8L184.937 533.194L185.821 532.44L184.522 530.919ZM192.21 524.354L194.059 523.591L193.007 521.044L190.911 522.833L192.21 524.354ZM196.01 528.856L198.008 528.759L197.959 527.757L197.127 527.197L196.01 528.856ZM196.465 538.304L196.25 540.292L198.575 540.543L198.463 538.207L196.465 538.304ZM172.214 557.997L170.219 557.863L170.214 557.93V557.997H172.214ZM172.214 565.382L171.704 567.316L174.214 567.977V565.382H172.214ZM149.239 582.613L147.241 582.511L147.239 582.562V582.613H149.239ZM149.239 587.536L149.522 589.516L151.239 589.271V587.536H149.239ZM125.939 614.615L126.079 616.61L127.83 616.487L127.936 614.735L125.939 614.615ZM105.75 639.231L105.892 641.226L108.033 641.073L107.73 638.948L105.75 639.231ZM86.0566 663.847L84.0768 664.13L84.0933 664.246L84.1232 664.359L86.0566 663.847ZM87.5771 669.591L87.718 671.586L90.129 671.416L89.5105 669.079L87.5771 669.591ZM68.8252 696.669L66.8555 697.016L66.8882 697.202L66.9552 697.379L68.8252 696.669ZM70.3814 700.772L70.2861 702.77L73.3334 702.915L72.2514 700.063L70.3814 700.772ZM53.2348 727.85L51.2348 727.854L51.2357 728.387L51.5024 728.849L53.2348 727.85ZM56.5169 733.539L56.42 735.537L60.0808 735.714L58.2493 732.54L56.5169 733.539ZM42.5676 760.672L40.5887 760.962L40.6422 761.327L40.8226 761.649L42.5676 760.672ZM44.8651 764.775L44.9513 766.773L48.198 766.633L46.6102 763.797L44.8651 764.775ZM32.7211 793.494L30.7795 793.973L30.8909 794.424L31.1897 794.78L32.7211 793.494ZM36.8239 798.378L37.1939 800.344L40.5554 799.711L38.3553 797.092L36.8239 798.378ZM26.9774 825.495L25.0667 826.086L25.2005 826.519L25.5077 826.852L26.9774 825.495ZM33.7942 832.88L33.9778 834.872L38.0111 834.5L35.2638 831.523L33.7942 832.88ZM23.6953 858.317L21.7924 858.933L21.9592 859.448L22.3632 859.809L23.6953 858.317ZM31.0473 864.881L32.4285 866.328L33.995 864.832L32.3794 863.39L31.0473 864.881ZM31.0473 896.883L29.8599 898.492L29.8685 898.498L31.0473 896.883ZM36.8239 901.098L37.5091 902.977L41.0318 901.692L38.0028 899.482L36.8239 901.098ZM31.0473 923.14L29.2103 923.931L29.4335 924.45L29.8949 924.775L31.0473 923.14ZM45.013 932.987L46.2244 934.578L48.3962 932.925L46.1655 931.352L45.013 932.987ZM45.013 960.885L43.7122 962.405L43.967 962.623L44.279 962.746L45.013 960.885ZM55.6965 965.1L57.3475 966.229L58.7624 964.16L56.4305 963.24L55.6965 965.1ZM64.7225 995.348L63.9347 997.187L64.1472 997.278L64.375 997.318L64.7225 995.348ZM68.0047 995.928L69.9899 996.17L70.2202 994.288L68.3523 993.958L68.0047 995.928ZM86.8773 1024.89L86.6865 1026.88L86.7817 1026.89H86.8773V1024.89ZM94.2622 1024.89L95.824 1026.14L98.4235 1022.89H94.2622V1024.89ZM105.75 1049.5L105.117 1051.4L105.531 1051.54L105.965 1051.49L105.75 1049.5ZM116.417 1048.35L118.24 1049.18L119.68 1045.99L116.202 1046.36L116.417 1048.35ZM137.751 1070.84L137.544 1072.83L137.964 1072.87L138.365 1072.74L137.751 1070.84ZM146.777 1067.93L148.502 1068.94L151.159 1064.41L146.163 1066.02L146.777 1067.93ZM171.394 1086.43L171.453 1088.43L171.975 1088.41L172.423 1088.14L171.394 1086.43ZM181.65 1080.28L183.411 1081.22L186.861 1074.82L180.622 1078.56L181.65 1080.28ZM206.677 1093.81L207.31 1095.71L207.685 1095.59L207.984 1095.33L206.677 1093.81ZM209.528 1091.35L211.516 1091.14L211.108 1087.34L208.22 1089.84L209.528 1091.35ZM238.679 1097.92L239.505 1099.74L239.875 1099.57L240.15 1099.27L238.679 1097.92ZM243.602 1092.57L245.213 1091.38L243.774 1089.42L242.13 1091.21L243.602 1092.57ZM275.603 1091.35L277.158 1092.61L277.282 1092.46L277.374 1092.28L275.603 1091.35ZM278.885 1085.11L280.598 1084.07L278.765 1081.03L277.115 1084.18L278.885 1085.11ZM308.425 1083.15L309.867 1084.53L310.206 1084.18L310.344 1083.71L308.425 1083.15ZM309.562 1079.28L310.328 1077.43L308.271 1076.58L307.643 1078.72L309.562 1079.28ZM340.426 1065.09L342.162 1066.09L342.363 1065.74L342.412 1065.34L340.426 1065.09ZM341.421 1056.89L342.542 1055.23L339.83 1053.4L339.435 1056.65L341.421 1056.89ZM365.863 1043.76L367.742 1044.45L367.863 1044.11V1043.76H365.863ZM365.863 1038.02L366.379 1036.08L363.863 1035.41V1038.02H365.863ZM388.839 1017.5L390.836 1017.62L390.845 1017.45L390.827 1017.29L388.839 1017.5ZM388.484 1014.22L388.357 1012.22L386.271 1012.36L386.495 1014.44L388.484 1014.22ZM409.352 984.681L411.321 984.326L411.28 984.102L411.191 983.893L409.352 984.681ZM406.539 978.117L406.964 976.163L403.172 975.337L404.701 978.905L406.539 978.117ZM424.122 953.5L426.094 953.164L426.03 952.794L425.837 952.471L424.122 953.5ZM420.019 946.663L420.232 944.674L416.238 944.248L418.304 947.692L420.019 946.663ZM433.969 920.679L435.917 920.225L435.827 919.839L435.596 919.516L433.969 920.679ZM429.045 913.786L429.093 911.787L425.092 911.692L427.418 914.948L429.045 913.786ZM439.713 886.216L441.594 885.539L441.466 885.18L441.214 884.894L439.713 886.216ZM435.61 881.553L434.668 879.789L432.44 880.979L434.108 882.875L435.61 881.553ZM441.354 851.753L443.137 850.848L442.966 850.51L442.682 850.258L441.354 851.753ZM436.738 847.65L436.173 845.731L432.715 846.75L435.409 849.145L436.738 847.65ZM439.713 817.29L441.472 816.339L441.255 815.937L440.886 815.67L439.713 817.29ZM430.647 810.725L430.037 808.821L426.274 810.027L429.474 812.345L430.647 810.725ZM433.148 782.006L434.701 780.746L434.485 780.48L434.193 780.301L433.148 782.006ZM427.793 778.724L426.08 777.691L425.055 779.391L426.748 780.429L427.793 778.724ZM421.661 748.364L422.68 746.643L422.571 746.579L422.456 746.529L421.661 748.364ZM414.89 745.43L413.4 744.096L411.551 746.163L414.095 747.265L414.89 745.43ZM407.711 715.542L408.791 713.858L408.59 713.729L408.363 713.651L407.711 715.542ZM402.788 713.844L401.122 712.737L399.691 714.892L402.136 715.735L402.788 713.844ZM393.762 686.002L394.677 684.224L394.471 684.118L394.247 684.062L393.762 686.002ZM388.018 684.566L386.099 684.004L385.513 686.002L387.533 686.506L388.018 684.566ZM376.53 656.462L377.133 654.555L377.04 654.526L376.945 654.506L376.53 656.462ZM368.325 654.722L366.567 653.768L365.29 656.123L367.91 656.678L368.325 654.722ZM355.196 627.743L355.914 625.876L355.654 625.777L355.377 625.752L355.196 627.743ZM349.452 627.221L347.687 626.28L346.27 628.94L349.271 629.213L349.452 627.221ZM337.144 602.306L337.845 600.433L337.615 600.347L337.371 600.319L337.144 602.306ZM325.657 600.993L323.969 599.921L322.254 602.618L325.429 602.981L325.657 600.993ZM313.348 575.228L313.852 573.293L313.604 573.228H313.348V575.228ZM303.502 575.228L301.687 574.387L300.371 577.228H303.502V575.228ZM290.373 551.432L290.756 549.469L290.566 549.432H290.373V551.432ZM281.347 551.432L279.747 550.232L277.347 553.432H281.347V551.432ZM273.962 532.126L274.195 530.14L272.883 533.811L273.962 532.126ZM279.706 531.739L280.338 533.637L280.346 533.634L280.354 533.631L279.706 531.739ZM285.45 503.841L284.261 502.232L282.151 503.792L284.214 505.413L285.45 503.841ZM285.45 475.942L284.098 474.468L282.309 476.108L284.261 477.55L285.45 475.942ZM282.167 447.545L280.869 446.024L278.469 448.073L281.346 449.368L282.167 447.545ZM285.45 444.742L284.151 443.221L285.45 444.742ZM291.193 439.838L292.492 441.359L292.788 441.106L292.968 440.761L291.193 439.838ZM283.808 416.863L282.632 415.245L278.607 418.172L283.538 418.844L283.808 416.863ZM286.732 414.401L288.126 415.835L288.126 415.835L286.732 414.401ZM290.373 392.246L292.109 391.254L290.373 392.246ZM273.962 393.067H271.962L275.819 393.81L273.962 393.067ZM269.038 386.502L267.114 387.045L267.255 387.548L267.624 387.917L269.038 386.502ZM266.724 378.297L265.758 376.546L264.368 377.313L264.799 378.84L266.724 378.297ZM283.808 349.578L282.816 347.841L281.413 348.643L281.902 350.184L283.808 349.578ZM297.758 315.935L299.284 314.643V314.643L297.758 315.935ZM273.962 324.961L274.522 326.881L275.582 326.572L275.885 325.511L273.962 324.961ZM260.012 354.501L260.333 356.475L262.463 356.13L261.957 354.032L260.012 354.501ZM249.345 362.47L247.415 361.949L251.128 363.377L249.345 362.47ZM241.96 341.372L240.546 339.958L239.063 341.441L240.615 342.852L241.96 341.372ZM241.96 306.909L240.931 305.194L238.839 306.45L240.481 308.255L241.96 306.909ZM241.96 272.446L240.76 270.846L239.247 271.982L240.296 273.556L241.96 272.446ZM241.96 238.804L240.943 237.082L238.997 238.232L240.375 240.023L241.96 238.804ZM242.781 205.161L241.452 203.667L240.077 204.889L241.181 206.361L242.781 205.161ZM242.781 172.34L241.408 170.886L240.11 172.111L241.181 173.54L242.781 172.34ZM242.781 139.518L241.294 138.18L240.171 139.428L241.206 140.75L242.781 139.518ZM240.319 103.414L239.951 101.448L236.507 102.094L238.814 104.731L240.319 103.414ZM172.208 588.941L172.621 586.984L170.285 586.491L170.209 588.877L172.208 588.941ZM197.374 564.507L197.053 562.533L195.881 562.723L195.487 563.843L197.374 564.507ZM149.477 612.561L149.625 610.567L147.477 610.407V612.561H149.477ZM129.181 636.995L129.341 635.002L126.991 634.813L127.188 637.163L129.181 636.995ZM111.322 664.688L111.16 662.694L109.136 662.859L109.331 664.88L111.322 664.688ZM94.2734 692.38L94.0246 690.396L91.8797 690.665L92.3142 692.782L94.2734 692.38ZM78.849 720.887L78.7719 718.888L76.239 718.986L76.9232 721.427L78.849 720.887ZM66.6717 749.394L66.4228 747.409L63.9437 747.72L64.7899 750.071L66.6717 749.394ZM55.3063 781.158L55.0847 779.171L52.076 779.506L53.5648 782.142L55.3063 781.158ZM51.2472 813.738L50.4173 811.918L48.2451 812.908L49.6011 814.873L51.2472 813.738ZM48 846.317L46.9237 844.631L44.9661 845.881L46.4927 847.631L48 846.317ZM48 878.081L46.835 876.456L44.5685 878.08L46.8336 879.706L48 878.081ZM53.6827 911.475L51.9194 910.531L51.0382 912.178L52.6202 913.17L53.6827 911.475ZM60.1773 941.611L58.558 940.437L57.1635 942.361L59.2968 943.407L60.1773 941.611ZM77.2254 971.747L75.3942 970.943L74.5382 972.892L76.5372 973.625L77.2254 971.747ZM93.4617 998.625L91.5469 998.047L90.9732 999.949L92.8718 1000.54L93.4617 998.625ZM112.133 1023.06L110.152 1022.79L109.872 1024.85L111.94 1025.05L112.133 1023.06ZM136.488 1044.24L134.49 1044.15L134.39 1046.46L136.694 1046.22L136.488 1044.24ZM163.278 1060.52L161.307 1060.87L161.675 1062.99L163.764 1062.46L163.278 1060.52ZM191.691 1071.93L189.71 1072.2L190.097 1075.04L192.632 1073.69L191.691 1071.93ZM224.164 1076L222.284 1076.68L223.194 1079.19L225.347 1077.61L224.164 1076ZM256.637 1075.19L255.056 1076.41L256.905 1078.8L258.381 1076.16L256.637 1075.19ZM286.674 1065.78L285.804 1067.58L287.486 1068.39L288.411 1066.77L286.674 1065.78ZM315.088 1053.19L314.298 1055.03L316.42 1055.94L317.019 1053.71L315.088 1053.19ZM341.877 1036.09L341.499 1038.05L343.877 1038.51V1036.09H341.877ZM363.796 1012.47V1014.47H365.944L365.791 1012.33L363.796 1012.47ZM383.28 985.593L383.659 987.557L385.607 987.181L385.247 985.23L383.28 985.593ZM397.081 960.344L397.44 962.311L399.774 961.886L398.959 959.657L397.081 960.344ZM406.823 927.765L407.622 929.598L409.108 928.95L408.782 927.363L406.823 927.765ZM414.941 896.814L415.4 898.761L418.075 898.13L416.652 895.779L414.941 896.814ZM419 865.05L419.897 866.837L422.56 865.501L420.315 863.543L419 865.05ZM416.565 831.656L418.015 833.033L419.559 831.406L417.767 830.058L416.565 831.656ZM413.317 799.891L414.983 800.998L416.189 799.183L414.277 798.137L413.317 799.891ZM405.199 766.498L407.048 767.26L407.824 765.38L405.93 764.636L405.199 766.498ZM394.646 737.991L396.513 738.707L397.21 736.89L395.412 736.144L394.646 737.991ZM381.656 707.855L383.432 708.776L384.827 706.085L381.805 705.861L381.656 707.855ZM362.173 679.348L364.165 679.529L364.302 678.013L362.877 677.477L362.173 679.348ZM347.56 651.656L349.505 652.121L349.997 650.068L347.919 649.689L347.56 651.656ZM326.453 626.407L328.379 626.945L328.971 624.826L326.806 624.439L326.453 626.407ZM306.969 600.344L308.948 600.636L309.257 598.544L307.151 598.352L306.969 600.344ZM283.427 576.724L285.404 577.027L285.772 574.622L283.341 574.726L283.427 576.724ZM258.26 553.104L260.243 552.842L260.045 551.341L258.546 551.125L258.26 553.104ZM237.348 536L239.239 536.65L235.483 535.278L237.348 536ZM218.616 545.774L218.228 543.812L216.781 544.098L216.627 545.565L218.616 545.774ZM282.167 506.405L283.399 507.981L282.167 506.405ZM260.833 496.11L259.566 494.563L260.833 496.11ZM255.403 500.558L254.136 499.011L255.403 500.558ZM259.192 524.354L257.961 522.778L257.943 522.792L257.926 522.806L259.192 524.354ZM250.166 504.849L251.434 506.396L250.166 504.849ZM285.45 475.942L286.717 477.489L284.799 474.051L285.45 475.942ZM196.01 491.316L194.716 489.79L196.01 491.316ZM181.24 503.841L179.947 502.315L181.885 505.734L181.24 503.841ZM272.265 455.999L273.564 457.52H273.564L272.265 455.999ZM213.241 476.703L211.948 475.178L213.241 476.703ZM182.881 475.942L181.566 474.435L183.459 477.857L182.881 475.942ZM216.235 474.165L217.529 475.69L216.235 474.165ZM215.443 447.545L214.129 446.037L215.443 447.545ZM253.448 414.401L254.763 415.908L254.799 415.877L254.833 415.844L253.448 414.401ZM265.136 402.913L263.715 401.506L265.136 402.913ZM198.307 402.913L196.975 401.421L198.307 402.913ZM255.403 412.516L256.794 413.953L255.403 412.516ZM218.985 444.456L220.3 445.963L218.985 444.456ZM54.0553 781.186L52.3103 782.163L52.3153 782.172L54.0553 781.186ZM46.6705 878.831L45.3385 880.323L45.4189 880.394L45.5066 880.457L46.6705 878.831ZM52.4143 912.473L51.2355 914.089L51.2935 914.131L51.3543 914.169L52.4143 912.473ZM58.9787 942.833L57.8262 944.468L57.9569 944.56L58.1005 944.63L58.9787 942.833ZM76.2102 973.194L75.4762 975.054L75.5 975.063L75.5239 975.072L76.2102 973.194ZM257.551 1077.4L259.023 1078.76L259.18 1078.59L259.294 1078.38L257.551 1077.4ZM316.63 1055.25L318.549 1055.81L318.556 1055.79L318.562 1055.77L316.63 1055.25ZM343.709 1038.02L345.694 1038.26L345.709 1038.14V1038.02H343.709ZM365.863 1014.22H367.863V1014.15L367.858 1014.08L365.863 1014.22ZM385.556 987.143L387.545 986.928L387.537 986.853L387.523 986.779L385.556 987.143ZM421.661 865.702L423.162 864.381L423.074 864.28L422.973 864.193L421.661 865.702ZM419.199 832.06L420.528 830.565L420.465 830.509L420.399 830.46L419.199 832.06ZM415.917 800.058L417.09 798.438L416.986 798.363L416.874 798.302L415.917 800.058ZM407.711 766.416L408.756 764.711L408.605 764.618L408.44 764.553L407.711 766.416ZM397.044 737.697L397.839 735.862L397.824 735.855L397.809 735.849L397.044 737.697ZM383.915 707.336L384.567 705.446L384.322 705.361L384.063 705.342L383.915 707.336ZM349.452 650.719L349.867 648.762L349.839 648.756L349.81 648.751L349.452 650.719ZM308.425 599.024L308.652 597.037L308.629 597.034L308.606 597.032L308.425 599.024ZM284.629 575.228V573.228H284.586L284.544 573.23L284.629 575.228ZM237.999 534.346L239.873 535.046L239.874 535.045L237.999 534.346ZM238.055 534.201L236.191 533.477L236.191 533.477L238.055 534.201ZM245.801 43.3071C247.124 47.4104 248.359 53.563 247.887 58.7377C247.651 61.32 247.006 63.4768 245.907 65.0169C244.861 66.4828 243.319 67.5168 240.919 67.7834L241.361 71.759C244.869 71.3692 247.443 69.75 249.163 67.3406C250.83 65.0053 251.6 62.0644 251.87 59.1012C252.41 53.1848 251.019 46.4549 249.608 42.0791L245.801 43.3071ZM226.597 24.4142L246.29 44.1073L249.118 41.2789L229.425 21.5858L226.597 24.4142ZM221.689 48.5848C220.385 44.9335 219.249 39.3693 219.939 34.5236C220.281 32.1236 221.055 30.0143 222.364 28.3873C223.647 26.7925 225.546 25.5326 228.403 24.9612L227.619 21.0388C223.912 21.7803 221.161 23.5017 219.247 25.8797C217.36 28.2255 216.39 31.0805 215.979 33.9594C215.166 39.6714 216.491 45.923 217.922 49.9302L221.689 48.5848ZM227.756 54.1277L221.192 47.8158L218.419 50.6992L224.984 57.0111L227.756 54.1277ZM221.659 82.1472C220.377 78.9924 219.155 73.915 219.622 69.0405C220.082 64.2404 222.136 59.835 227.24 57.3704L225.5 53.7684C218.788 57.0098 216.192 62.9033 215.64 68.6588C215.096 74.3399 216.499 80.0748 217.953 83.6527L221.659 82.1472ZM229.425 89.6912L221.22 81.4857L218.391 84.3142L226.597 92.5196L229.425 89.6912ZM221.715 116.766C220.389 112.526 219.245 106.283 219.941 101.224C220.287 98.7066 221.062 96.6841 222.293 95.3145C223.465 94.0111 225.222 93.1054 228.011 93.1054V89.1054C224.236 89.1054 221.343 90.3879 219.318 92.6402C217.353 94.8263 216.384 97.7271 215.978 100.68C215.169 106.561 216.487 113.447 217.897 117.959L221.715 116.766ZM227.758 122.253L221.194 115.923L218.417 118.803L224.982 125.133L227.758 122.253ZM221.651 148.594C220.521 145.885 219.46 141.406 219.967 136.933C220.466 132.537 222.453 128.235 227.362 125.429L225.378 121.956C219.128 125.528 216.602 131.112 215.993 136.482C215.392 141.775 216.628 146.943 217.96 150.134L221.651 148.594ZM228.605 155.335L221.22 147.95L218.391 150.778L225.776 158.163L228.605 155.335ZM223.192 184.491C221.395 181.283 219.537 176.108 219.712 171.076C219.882 166.192 221.938 161.466 228.05 158.555L226.331 154.943C218.658 158.597 215.928 164.811 215.714 170.937C215.507 176.914 217.669 182.816 219.702 186.446L223.192 184.491ZM228.547 189.301L222.803 183.999L220.09 186.938L225.834 192.24L228.547 189.301ZM223.264 218.275C221.712 214.903 220.143 209.535 220.408 204.453C220.669 199.464 222.651 194.981 228.004 192.597L226.377 188.943C219.258 192.114 216.727 198.236 216.413 204.245C216.104 210.161 217.899 216.186 219.63 219.947L223.264 218.275ZM226.935 221.607L222.832 217.668L220.062 220.554L224.164 224.492L226.935 221.607ZM222.503 251.241C221.346 248.104 220.18 242.931 220.469 237.759C220.758 232.59 222.469 227.732 226.718 224.672L224.381 221.426C218.783 225.457 216.802 231.703 216.475 237.535C216.149 243.363 217.445 249.088 218.75 252.625L222.503 251.241ZM228.577 256.803L222.012 250.491L219.24 253.374L225.804 259.686L228.577 256.803ZM222.468 283.154C221.19 280.136 219.979 275.32 220.442 270.763C220.894 266.307 222.901 262.253 227.977 260.084L226.405 256.405C219.664 259.286 217.022 264.846 216.462 270.359C215.913 275.769 217.328 281.273 218.785 284.714L222.468 283.154ZM228.656 289.642L222.092 282.573L219.161 285.295L225.725 292.364L228.656 289.642ZM222.412 318.316C220.889 315.3 219.373 310.354 219.748 305.438C220.115 300.637 222.264 295.882 228.128 292.77L226.253 289.237C218.988 293.093 216.214 299.194 215.76 305.133C215.315 310.957 217.081 316.634 218.841 320.119L222.412 318.316ZM227.598 323.574L222.067 317.83L219.186 320.605L224.717 326.349L227.598 323.574ZM220.894 349.8C219.929 346.721 219.115 341.82 219.777 337.227C220.434 332.674 222.472 328.726 226.948 326.798L225.366 323.124C219.17 325.792 216.593 331.28 215.818 336.656C215.049 341.992 215.985 347.512 217.077 350.996L220.894 349.8ZM227.572 356.156L220.399 348.984L217.571 351.813L224.743 358.985L227.572 356.156ZM220.935 386.057C220.081 382.319 219.405 376.441 220.129 371.036C220.863 365.555 222.931 361.182 226.965 359.4L225.349 355.741C219.367 358.384 216.958 364.577 216.164 370.505C215.36 376.51 216.107 382.885 217.035 386.948L220.935 386.057ZM208.66 396.335L220.148 388.13L217.823 384.875L206.335 393.08L208.66 396.335ZM175.719 395.433C176.915 392.358 179.087 390.593 181.821 389.682C184.633 388.745 188.07 388.711 191.578 389.296C195.068 389.877 198.472 391.045 201.129 392.349C202.457 393.001 203.559 393.668 204.376 394.285C205.24 394.937 205.609 395.404 205.709 395.602L209.286 393.813C208.77 392.781 207.806 391.863 206.786 391.092C205.718 390.286 204.384 389.491 202.892 388.759C199.907 387.293 196.131 385.999 192.236 385.35C188.36 384.704 184.207 384.67 180.556 385.887C176.829 387.13 173.668 389.672 171.991 393.983L175.719 395.433ZM185.183 413.334C182.714 412.47 179.273 410.492 177.015 407.478C174.842 404.579 173.69 400.651 175.719 395.433L171.991 393.983C169.426 400.58 170.872 405.952 173.814 409.877C176.67 413.688 180.86 416.059 183.862 417.109L185.183 413.334ZM183.52 418.735C184.218 418.092 184.973 417.437 185.789 416.769L183.256 413.674C182.384 414.387 181.57 415.093 180.811 415.792L183.52 418.735ZM184.185 445.062C180.673 442.042 177.252 438.498 176.259 434.317C175.328 430.402 176.411 425.28 183.52 418.735L180.811 415.792C173.064 422.924 170.986 429.432 172.367 435.242C173.685 440.787 178.05 445.062 181.577 448.095L184.185 445.062ZM182.637 449.611L184.278 448.009L181.484 445.147L179.843 446.749L182.637 449.611ZM176.893 455.218L182.637 449.611L179.843 446.749L174.099 452.356L176.893 455.218ZM183.538 474.053C180.635 473.043 176.979 470.848 175.101 467.697C174.19 466.168 173.693 464.413 173.88 462.387C174.069 460.342 174.969 457.874 177.106 454.974L173.886 452.601C171.428 455.936 170.168 459.082 169.897 462.019C169.624 464.975 170.368 467.568 171.665 469.745C174.205 474.007 178.836 476.653 182.224 477.831L183.538 474.053ZM182.499 502.286C179.272 499.674 177.474 497.091 176.597 494.7C175.723 492.319 175.715 490.006 176.265 487.84C177.388 483.423 180.847 479.618 183.959 477.627L181.803 474.258C178.077 476.642 173.823 481.207 172.389 486.855C171.66 489.722 171.663 492.865 172.842 496.078C174.017 499.281 176.316 502.427 179.982 505.395L182.499 502.286ZM185.199 529.037C181.382 527.663 179.214 525.885 178.032 524.067C176.858 522.26 176.514 520.193 176.766 517.952C177.284 513.339 180.279 508.41 182.832 505.051L179.648 502.63C177.004 506.109 173.435 511.765 172.791 517.505C172.461 520.44 172.887 523.491 174.678 526.247C176.462 528.992 179.456 531.221 183.845 532.8L185.199 529.037ZM190.911 522.833L183.223 529.398L185.821 532.44L193.509 525.875L190.911 522.833ZM197.127 527.197C195.713 526.245 194.666 525.062 194.059 523.591L190.362 525.118C191.321 527.441 192.947 529.204 194.893 530.515L197.127 527.197ZM198.463 538.207L198.008 528.759L194.012 528.952L194.467 538.4L198.463 538.207ZM174.21 558.13C174.434 554.767 175.828 549.803 179.197 545.961C182.477 542.221 187.767 539.375 196.25 540.292L196.68 536.315C186.947 535.263 180.358 538.571 176.19 543.324C172.111 547.974 170.487 553.842 170.219 557.863L174.21 558.13ZM174.214 565.382V557.997H170.214V565.382H174.214ZM151.236 582.716C151.418 579.17 152.713 574.211 155.825 570.737C157.353 569.03 159.319 567.678 161.849 566.988C164.388 566.296 167.615 566.238 171.704 567.316L172.724 563.448C168.094 562.228 164.14 562.218 160.797 563.129C157.446 564.043 154.831 565.85 152.845 568.068C148.927 572.443 147.452 578.398 147.241 582.511L151.236 582.716ZM151.239 587.536V582.613H147.239V587.536H151.239ZM127.936 614.735C128.296 608.75 129.824 603.004 133.135 598.504C136.405 594.062 141.543 590.656 149.522 589.516L148.956 585.557C140.013 586.834 133.876 590.75 129.914 596.133C125.993 601.46 124.331 608.043 123.943 614.494L127.936 614.735ZM107.73 638.948C106.511 630.421 109.36 625.086 113.231 621.751C117.22 618.315 122.474 616.862 126.079 616.61L125.8 612.619C121.58 612.914 115.427 614.579 110.621 618.72C105.697 622.961 102.362 629.661 103.77 639.514L107.73 638.948ZM88.0365 663.565C87.5335 660.043 87.8514 654.68 90.3536 650.122C92.7821 645.698 97.3644 641.835 105.892 641.226L105.607 637.236C95.7549 637.94 89.9436 642.556 86.8471 648.197C83.8242 653.704 83.4858 659.993 84.0768 664.13L88.0365 663.565ZM89.5105 669.079L87.9901 663.336L84.1232 664.359L85.6437 670.103L89.5105 669.079ZM70.795 696.323C70.0961 692.35 70.158 686.348 72.4906 681.279C74.7496 676.37 79.1849 672.189 87.718 671.586L87.4361 667.596C77.3878 668.306 71.7013 673.425 68.8568 679.607C66.086 685.629 66.0627 692.509 66.8555 697.016L70.795 696.323ZM72.2514 700.063L70.6952 695.96L66.9552 697.379L68.5115 701.481L72.2514 700.063ZM55.2348 727.846C55.2269 723.372 56.0524 716.746 58.4661 711.401C60.8694 706.079 64.5776 702.497 70.2861 702.77L70.4768 698.774C62.4288 698.39 57.5555 703.698 54.8205 709.754C52.096 715.788 51.2263 723.029 51.2348 727.854L55.2348 727.846ZM58.2493 732.54L54.9671 726.851L51.5024 728.849L54.7845 734.539L58.2493 732.54ZM44.5465 760.382C43.8871 755.88 43.7933 749.262 45.5159 743.96C46.3716 741.326 47.6297 739.157 49.3493 737.693C51.0242 736.266 53.2777 735.384 56.42 735.537L56.6138 731.541C52.5353 731.344 49.2638 732.511 46.7556 734.648C44.2921 736.746 42.7091 739.654 41.7117 742.724C39.7282 748.829 39.8805 756.127 40.5887 760.962L44.5465 760.382ZM46.6102 763.797L44.3126 759.695L40.8226 761.649L43.1201 765.752L46.6102 763.797ZM34.6627 793.014C33.556 788.534 32.848 781.868 34.1657 776.358C34.8193 773.625 35.9391 771.311 37.6214 769.658C39.2676 768.04 41.5899 766.918 44.9513 766.773L44.779 762.776C40.5256 762.96 37.2354 764.429 34.8178 766.805C32.4364 769.145 31.0412 772.226 30.2754 775.428C28.754 781.789 29.5887 789.154 30.7795 793.973L34.6627 793.014ZM38.3553 797.092L34.2525 792.207L31.1897 794.78L35.2925 799.664L38.3553 797.092ZM28.888 824.904C27.7156 821.114 26.8084 815.333 27.7724 810.302C28.25 807.809 29.1669 805.602 30.638 803.897C32.0855 802.219 34.1643 800.914 37.1939 800.344L36.454 796.413C32.5909 797.14 29.685 798.878 27.6092 801.284C25.5571 803.663 24.4125 806.581 23.8438 809.549C22.7154 815.438 23.7775 821.918 25.0667 826.086L28.888 824.904ZM35.2638 831.523L28.447 824.139L25.5077 826.852L32.3246 834.237L35.2638 831.523ZM25.5981 857.701C24.3726 853.914 23.4311 848.257 24.4016 843.518C24.8808 841.178 25.8015 839.177 27.2667 837.703C28.7075 836.253 30.8201 835.163 33.9778 834.872L33.6106 830.888C29.6485 831.254 26.6179 832.68 24.4291 834.883C22.2647 837.062 21.0693 839.852 20.4829 842.715C19.3222 848.383 20.451 854.788 21.7924 858.933L25.5981 857.701ZM32.3794 863.39L25.0273 856.825L22.3632 859.809L29.7153 866.373L32.3794 863.39ZM32.2348 895.273C28.7049 892.669 26.6837 889.937 25.6417 887.289C24.5994 884.639 24.4848 881.942 24.978 879.324C25.9784 874.014 29.4654 869.157 32.4285 866.328L29.6661 863.435C26.3275 866.623 22.2524 872.187 21.0472 878.583C20.4375 881.819 20.5593 885.296 21.9195 888.753C23.28 892.211 25.8276 895.517 29.8599 898.492L32.2348 895.273ZM38.0028 899.482L32.2262 895.267L29.8685 898.498L35.6451 902.713L38.0028 899.482ZM32.8844 922.349C30.0901 915.858 30.5269 911.349 31.8807 908.381C33.2651 905.346 35.743 903.621 37.5091 902.977L36.1388 899.219C33.5068 900.178 30.1292 902.582 28.2414 906.721C26.3229 910.927 26.0704 916.637 29.2103 923.931L32.8844 922.349ZM46.1655 931.352L32.1998 921.506L29.8949 924.775L43.8606 934.621L46.1655 931.352ZM46.3139 959.366C39.8722 953.85 38.8041 948.67 39.6426 944.545C40.5222 940.217 43.5963 936.579 46.2244 934.578L43.8017 931.395C40.6804 933.771 36.8554 938.175 35.7227 943.748C34.549 949.523 36.3555 956.105 43.7122 962.405L46.3139 959.366ZM56.4305 963.24L45.747 959.025L44.279 962.746L54.9625 966.961L56.4305 963.24ZM65.5104 993.51C56.9083 989.823 54.0276 984.544 53.5644 979.633C53.0817 974.514 55.1914 969.383 57.3475 966.229L54.0455 963.971C51.5519 967.619 48.9845 973.672 49.5821 980.008C50.1993 986.552 54.1565 992.996 63.9347 997.187L65.5104 993.51ZM68.3523 993.958L65.0701 993.379L64.375 997.318L67.6572 997.897L68.3523 993.958ZM87.0681 1022.9C83.7826 1022.58 78.8938 1020.89 75.1568 1016.84C71.4859 1012.86 68.7381 1006.41 69.9899 996.17L66.0195 995.685C64.6456 1006.92 67.6416 1014.59 72.2172 1019.55C76.7267 1024.44 82.5871 1026.49 86.6865 1026.88L87.0681 1022.9ZM94.2622 1022.89H86.8773V1026.89H94.2622V1022.89ZM106.382 1047.61C102.461 1046.3 97.3974 1043.6 94.5847 1039.89C93.2114 1038.07 92.4269 1036.09 92.4719 1033.93C92.517 1031.76 93.3996 1029.17 95.824 1026.14L92.7005 1023.64C89.8734 1027.17 88.5405 1030.59 88.4728 1033.85C88.4049 1037.1 89.6103 1039.94 91.396 1042.3C94.9016 1046.93 100.834 1049.97 105.117 1051.4L106.382 1047.61ZM116.202 1046.36L105.535 1047.52L105.965 1051.49L116.632 1050.34L116.202 1046.36ZM137.958 1068.85C133.111 1068.35 126.42 1066.66 121.865 1063.39C119.615 1061.77 118.009 1059.86 117.291 1057.64C116.584 1055.45 116.652 1052.69 118.24 1049.18L114.594 1047.53C112.682 1051.76 112.414 1055.55 113.484 1058.87C114.543 1062.15 116.827 1064.7 119.533 1066.64C124.888 1070.48 132.364 1072.29 137.544 1072.83L137.958 1068.85ZM146.163 1066.02L137.137 1068.94L138.365 1072.74L147.391 1069.83L146.163 1066.02ZM171.334 1084.43C165.42 1084.61 157.346 1083.89 151.974 1081.37C149.3 1080.12 147.602 1078.57 146.927 1076.77C146.275 1075.04 146.385 1072.55 148.502 1068.94L145.052 1066.91C142.574 1071.14 141.959 1074.92 143.182 1078.18C144.38 1081.37 147.154 1083.53 150.279 1085C156.504 1087.91 165.333 1088.61 171.453 1088.43L171.334 1084.43ZM180.622 1078.56L170.365 1084.71L172.423 1088.14L182.679 1081.99L180.622 1078.56ZM206.045 1091.92C202.847 1092.98 199.034 1093.99 195.304 1094.57C191.541 1095.16 188.023 1095.29 185.342 1094.73C182.673 1094.17 181.268 1093.05 180.784 1091.43C180.238 1089.61 180.605 1086.43 183.411 1081.22L179.89 1079.33C176.952 1084.78 175.934 1089.18 176.952 1092.58C178.033 1096.19 181.141 1097.94 184.523 1098.64C187.894 1099.35 191.966 1099.14 195.921 1098.52C199.91 1097.9 203.943 1096.83 207.31 1095.71L206.045 1091.92ZM208.22 1089.84L205.37 1092.3L207.984 1095.33L210.835 1092.87L208.22 1089.84ZM237.852 1096.1C233.469 1098.08 226.92 1100.08 221.411 1099.84C218.678 1099.71 216.39 1099.05 214.728 1097.75C213.119 1096.49 211.874 1094.47 211.516 1091.14L207.539 1091.57C207.993 1095.79 209.667 1098.87 212.264 1100.9C214.808 1102.89 218.011 1103.69 221.232 1103.83C227.633 1104.12 234.848 1101.85 239.505 1099.74L237.852 1096.1ZM242.13 1091.21L237.207 1096.56L240.15 1099.27L245.074 1093.92L242.13 1091.21ZM274.048 1090.09C271.332 1093.45 266.63 1097.42 261.403 1098.7C258.835 1099.33 256.166 1099.31 253.497 1098.29C250.82 1097.26 247.991 1095.16 245.213 1091.38L241.991 1093.75C245.121 1098.01 248.527 1100.66 252.061 1102.02C255.603 1103.38 259.118 1103.38 262.356 1102.59C268.74 1101.02 274.131 1096.35 277.158 1092.61L274.048 1090.09ZM277.115 1084.18L273.833 1090.42L277.374 1092.28L280.656 1086.04L277.115 1084.18ZM306.983 1081.76C303.972 1084.89 299.029 1088.64 293.993 1089.95C291.512 1090.6 289.11 1090.63 286.911 1089.81C284.731 1089.01 282.541 1087.29 280.598 1084.07L277.173 1086.14C279.497 1089.99 282.346 1092.39 285.522 1093.56C288.679 1094.73 291.949 1094.62 295 1093.82C301.027 1092.25 306.587 1087.95 309.867 1084.53L306.983 1081.76ZM307.643 1078.72L306.506 1082.58L310.344 1083.71L311.48 1079.85L307.643 1078.72ZM338.691 1064.1C336.73 1067.52 332.894 1072.33 327.871 1075.51C322.904 1078.66 316.919 1080.17 310.328 1077.43L308.795 1081.13C316.899 1084.49 324.264 1082.54 330.014 1078.89C335.708 1075.28 339.958 1069.94 342.162 1066.09L338.691 1064.1ZM339.435 1056.65L338.441 1064.85L342.412 1065.34L343.406 1057.13L339.435 1056.65ZM363.984 1043.08C362.605 1046.86 359.814 1051.9 356.033 1054.94C354.171 1056.44 352.151 1057.39 349.995 1057.56C347.863 1057.73 345.383 1057.16 342.542 1055.23L340.3 1058.55C343.764 1060.89 347.131 1061.8 350.312 1061.55C353.47 1061.3 356.23 1059.92 358.541 1058.06C363.105 1054.39 366.229 1048.6 367.742 1044.45L363.984 1043.08ZM363.863 1038.02V1043.76H367.863V1038.02H363.863ZM386.842 1017.39C386.61 1021.53 385.234 1027.37 382.031 1031.55C380.454 1033.61 378.467 1035.22 375.981 1036.09C373.499 1036.96 370.36 1037.15 366.379 1036.08L365.347 1039.95C369.968 1041.18 373.941 1041.05 377.303 1039.87C380.661 1038.69 383.251 1036.53 385.206 1033.98C389.067 1028.94 390.577 1022.23 390.836 1017.62L386.842 1017.39ZM386.495 1014.44L386.85 1017.72L390.827 1017.29L390.472 1014.01L386.495 1014.44ZM407.384 985.036C408.174 989.416 408.117 996.024 405.507 1001.6C402.974 1007.01 397.975 1011.62 388.357 1012.22L388.61 1016.22C399.714 1015.51 405.989 1010 409.129 1003.29C412.193 996.752 412.208 989.246 411.321 984.326L407.384 985.036ZM404.701 978.905L407.514 985.469L411.191 983.893L408.377 977.329L404.701 978.905ZM422.151 953.837C422.962 958.59 423.034 965.28 420.912 970.184C419.872 972.587 418.357 974.45 416.242 975.539C414.13 976.627 411.163 977.076 406.964 976.163L406.114 980.071C410.965 981.127 414.93 980.715 418.074 979.095C421.216 977.476 423.28 974.785 424.583 971.772C427.148 965.845 426.963 958.258 426.094 953.164L422.151 953.837ZM418.304 947.692L422.407 954.529L425.837 952.471L421.734 945.634L418.304 947.692ZM432.021 921.132C433.077 925.664 433.619 932.198 432.058 937.259C431.288 939.753 430.053 941.747 428.261 943.039C426.494 944.313 423.954 945.071 420.232 944.674L419.807 948.651C424.29 949.129 427.871 948.251 430.6 946.284C433.303 944.335 434.94 941.485 435.88 938.438C437.738 932.417 437.049 925.083 435.917 920.225L432.021 921.132ZM427.418 914.948L432.341 921.841L435.596 919.516L430.673 912.624L427.418 914.948ZM437.831 886.893C439.46 891.422 440.825 898.03 439.9 903.311C439.444 905.916 438.462 908.029 436.856 909.472C435.277 910.892 432.86 911.876 429.093 911.787L428.998 915.785C433.536 915.893 437.026 914.699 439.53 912.447C442.008 910.22 443.285 907.169 443.84 904.001C444.937 897.737 443.33 890.363 441.594 885.539L437.831 886.893ZM434.108 882.875L438.211 887.537L441.214 884.894L437.111 880.232L434.108 882.875ZM439.57 852.657C441.239 855.949 442.961 861.304 442.74 866.569C442.523 871.731 440.469 876.691 434.668 879.789L436.552 883.318C443.879 879.404 446.475 872.97 446.737 866.737C446.994 860.607 445.024 854.568 443.137 850.848L439.57 852.657ZM435.409 849.145L440.025 853.247L442.682 850.258L438.067 846.155L435.409 849.145ZM437.953 818.24C440.17 822.343 442.631 828.655 442.962 834.29C443.128 837.095 442.755 839.565 441.725 841.495C440.73 843.361 439.035 844.889 436.173 845.731L437.303 849.568C441.128 848.442 443.722 846.25 445.254 843.378C446.752 840.572 447.146 837.288 446.955 834.055C446.576 827.614 443.837 820.716 441.472 816.339L437.953 818.24ZM429.474 812.345L438.54 818.91L440.886 815.67L431.821 809.105L429.474 812.345ZM431.595 783.266C434.483 786.826 437.692 792.341 438.301 797.404C438.6 799.888 438.259 802.131 437.093 804.004C435.933 805.867 433.801 807.614 430.037 808.821L431.258 812.63C435.684 811.211 438.708 808.978 440.489 806.118C442.263 803.268 442.647 800.043 442.273 796.927C441.535 790.79 437.805 784.571 434.701 780.746L431.595 783.266ZM426.748 780.429L432.103 783.711L434.193 780.301L428.838 777.019L426.748 780.429ZM420.641 750.084C423.333 751.679 426.892 755.006 428.672 759.681C430.41 764.247 430.533 770.307 426.08 777.691L429.506 779.757C434.554 771.386 434.612 764.044 432.41 758.258C430.249 752.58 425.991 748.604 422.68 746.643L420.641 750.084ZM414.095 747.265L420.865 750.199L422.456 746.529L415.686 743.595L414.095 747.265ZM406.631 717.225C410.02 719.399 414.352 723.39 416.476 728.203C417.523 730.577 418.014 733.102 417.648 735.709C417.284 738.307 416.048 741.136 413.4 744.096L416.381 746.763C419.481 743.299 421.12 739.756 421.609 736.265C422.098 732.783 421.422 729.504 420.135 726.588C417.591 720.821 412.585 716.293 408.791 713.858L406.631 717.225ZM402.136 715.735L407.059 717.433L408.363 713.651L403.44 711.953L402.136 715.735ZM392.847 687.781C396.026 689.416 400.217 692.669 402.52 696.996C404.738 701.163 405.295 706.457 401.122 712.737L404.454 714.951C409.471 707.401 408.934 700.532 406.051 695.116C403.253 689.859 398.335 686.106 394.677 684.224L392.847 687.781ZM387.533 686.506L393.277 687.942L394.247 684.062L388.503 682.626L387.533 686.506ZM375.928 658.37C378.538 659.193 382.3 661.464 384.793 665.547C387.241 669.557 388.586 675.515 386.099 684.004L389.937 685.128C392.702 675.693 391.312 668.549 388.207 663.463C385.148 658.451 380.54 655.631 377.133 654.555L375.928 658.37ZM367.91 656.678L376.115 658.419L376.945 654.506L368.74 652.765L367.91 656.678ZM354.479 629.61C358.08 630.994 362.957 633.915 365.968 638.065C367.454 640.113 368.456 642.418 368.682 644.97C368.906 647.511 368.373 650.439 366.567 653.768L370.083 655.676C372.215 651.744 372.968 648.037 372.666 644.618C372.365 641.21 371.029 638.229 369.205 635.716C365.597 630.743 359.97 627.435 355.914 625.876L354.479 629.61ZM349.271 629.213L355.015 629.735L355.377 625.752L349.633 625.229L349.271 629.213ZM336.443 604.179C339.77 605.424 344.273 608.075 347.062 611.866C348.436 613.735 349.365 615.84 349.584 618.175C349.803 620.499 349.333 623.194 347.687 626.28L351.217 628.162C353.183 624.475 353.868 621.001 353.567 617.8C353.267 614.609 352 611.831 350.284 609.497C346.891 604.882 341.63 601.849 337.845 600.433L336.443 604.179ZM325.429 602.981L336.917 604.293L337.371 600.319L325.884 599.006L325.429 602.981ZM312.845 577.164C316.725 578.173 321.785 580.575 324.691 584.326C326.11 586.158 326.999 588.287 327.042 590.766C327.085 593.26 326.274 596.294 323.969 599.921L327.344 602.066C329.962 597.947 331.101 594.154 331.041 590.698C330.981 587.227 329.717 584.283 327.853 581.877C324.194 577.152 318.177 574.417 313.852 573.293L312.845 577.164ZM303.502 577.228H313.348V573.228H303.502V577.228ZM289.99 553.395C293.422 554.064 298.027 555.967 300.893 559.325C302.297 560.969 303.281 562.955 303.547 565.359C303.815 567.772 303.373 570.75 301.687 574.387L305.316 576.069C307.241 571.915 307.887 568.203 307.523 564.919C307.158 561.624 305.794 558.905 303.936 556.728C300.279 552.444 294.709 550.24 290.756 549.469L289.99 553.395ZM281.347 553.432H290.373V549.432H281.347V553.432ZM272.883 533.811C275.175 535.279 278.221 537.922 279.98 541C280.848 542.52 281.354 544.062 281.378 545.568C281.402 547.04 280.969 548.604 279.747 550.232L282.947 552.632C284.679 550.322 285.416 547.898 285.378 545.504C285.34 543.145 284.554 540.943 283.453 539.016C281.272 535.198 277.672 532.128 275.041 530.442L272.883 533.811ZM279.073 529.842C278.157 530.147 276.444 530.404 274.195 530.14L273.729 534.113C276.456 534.432 278.773 534.158 280.338 533.637L279.073 529.842ZM284.214 505.413C286.004 506.82 287.896 508.687 289.382 510.786C290.876 512.897 291.877 515.125 292.074 517.274C292.263 519.349 291.721 521.481 289.872 523.581C287.972 525.74 284.618 527.941 279.057 529.847L280.354 533.631C286.281 531.599 290.347 529.096 292.874 526.225C295.453 523.295 296.346 520.074 296.057 516.91C295.775 513.822 294.383 510.928 292.646 508.475C290.901 506.01 288.724 503.87 286.685 502.268L284.214 505.413ZM284.261 477.55C287.19 479.715 290.559 483.528 291.517 487.88C291.985 490.006 291.886 492.277 290.868 494.634C289.841 497.01 287.825 499.598 284.261 502.232L286.638 505.449C290.623 502.504 293.168 499.395 294.54 496.221C295.919 493.028 296.056 489.893 295.424 487.02C294.18 481.375 290 476.819 286.638 474.334L284.261 477.55ZM281.346 449.368C284.945 450.989 289.151 454.172 290.717 458.326C291.476 460.34 291.642 462.641 290.764 465.262C289.873 467.919 287.87 471.01 284.098 474.468L286.801 477.416C290.907 473.653 293.389 470.016 294.556 466.533C295.736 463.014 295.534 459.765 294.46 456.916C292.36 451.344 287.048 447.549 282.989 445.721L281.346 449.368ZM284.151 443.221L280.869 446.024L283.466 449.066L286.748 446.263L284.151 443.221ZM289.895 438.317L284.151 443.221L286.748 446.263L292.492 441.359L289.895 438.317ZM283.538 418.844C286.816 419.291 288.85 420.395 290.113 421.708C291.38 423.025 292.052 424.738 292.261 426.733C292.688 430.822 291.11 435.662 289.419 438.915L292.968 440.761C294.832 437.176 296.782 431.513 296.239 426.317C295.962 423.668 295.024 421.043 292.996 418.935C290.965 416.825 288.021 415.419 284.078 414.881L283.538 418.844ZM285.338 412.967C284.45 413.83 283.529 414.593 282.632 415.245L284.985 418.48C286.026 417.723 287.094 416.839 288.126 415.835L285.338 412.967ZM288.636 393.238C291.092 397.537 291.346 401.328 290.518 404.554C289.675 407.84 287.664 410.705 285.338 412.967L288.126 415.835C290.798 413.237 293.312 409.758 294.392 405.548C295.488 401.279 295.063 396.423 292.109 391.254L288.636 393.238ZM275.819 393.81C275.974 393.42 276.517 392.789 277.691 392.168C278.809 391.578 280.26 391.13 281.785 390.95C285.006 390.571 287.604 391.432 288.636 393.238L292.109 391.254C289.859 387.317 285.072 386.536 281.318 386.978C279.356 387.209 277.422 387.786 275.822 388.632C274.279 389.447 272.77 390.662 272.105 392.324L275.819 393.81ZM267.624 387.917C268.411 388.703 269.59 389.962 270.559 391.163C271.046 391.767 271.446 392.315 271.714 392.756C271.848 392.977 271.926 393.134 271.966 393.231C272.017 393.355 271.962 393.277 271.962 393.067H275.962C275.962 392.528 275.804 392.05 275.669 391.719C275.523 391.361 275.332 391.008 275.133 390.68C274.734 390.023 274.211 389.32 273.672 388.652C272.59 387.31 271.307 385.943 270.453 385.088L267.624 387.917ZM264.799 378.84L267.114 387.045L270.963 385.959L268.649 377.754L264.799 378.84ZM281.902 350.184C283.326 354.661 282.843 367.117 265.758 376.546L267.69 380.048C286.288 369.784 287.769 355.435 285.714 348.972L281.902 350.184ZM296.231 317.227C298.812 320.277 299.684 323.325 299.543 326.254C299.399 329.243 298.189 332.269 296.318 335.162C292.557 340.98 286.445 345.768 282.816 347.841L284.801 351.314C288.83 349.011 295.483 343.821 299.677 337.334C301.785 334.074 303.35 330.366 303.539 326.447C303.73 322.469 302.494 318.437 299.284 314.643L296.231 317.227ZM275.885 325.511C276.189 324.448 277.129 322.745 278.648 320.898C280.139 319.085 282.057 317.293 284.147 315.992C286.249 314.684 288.39 313.955 290.381 314.036C292.294 314.114 294.3 314.945 296.231 317.227L299.284 314.643C296.703 311.592 293.683 310.167 290.544 310.039C287.483 309.915 284.547 311.032 282.034 312.596C279.508 314.167 277.272 316.273 275.558 318.357C273.872 320.408 272.555 322.603 272.039 324.412L275.885 325.511ZM261.957 354.032C261.06 350.318 260.646 344.455 262.276 339.058C263.876 333.76 267.411 328.955 274.522 326.881L273.402 323.041C264.758 325.562 260.361 331.561 258.447 337.902C256.562 344.143 257.05 350.752 258.068 354.97L261.957 354.032ZM251.128 363.377C253.516 358.683 258.334 356.799 260.333 356.475L259.692 352.527C256.886 352.982 250.71 355.377 247.563 361.564L251.128 363.377ZM240.615 342.852C244.678 346.546 249.539 354.081 247.415 361.949L251.276 362.992C253.98 352.981 247.819 343.996 243.306 339.892L240.615 342.852ZM240.481 308.255C243.012 311.039 246.073 316.024 246.958 321.778C247.827 327.421 246.625 333.879 240.546 339.958L243.375 342.787C250.424 335.737 251.958 327.972 250.912 321.17C249.882 314.479 246.379 308.797 243.44 305.564L240.481 308.255ZM240.296 273.556C242.929 277.505 246.055 283.87 246.956 290.088C247.849 296.252 246.541 301.829 240.931 305.194L242.989 308.624C250.509 304.113 251.936 296.561 250.914 289.514C249.901 282.521 246.462 275.594 243.625 271.337L240.296 273.556ZM240.375 240.023C242.971 243.398 246.066 249.038 246.958 254.9C247.834 260.655 246.594 266.471 240.76 270.846L243.16 274.046C250.455 268.575 251.951 261.125 250.912 254.299C249.89 247.579 246.42 241.321 243.546 237.584L240.375 240.023ZM241.181 206.361C243.928 210.024 247.139 215.988 247.959 221.928C248.366 224.873 248.173 227.722 247.136 230.27C246.111 232.791 244.205 235.155 240.943 237.082L242.978 240.526C246.937 238.186 249.462 235.168 250.841 231.778C252.21 228.415 252.397 224.822 251.921 221.381C250.978 214.548 247.378 207.957 244.381 203.961L241.181 206.361ZM241.181 173.54C243.494 176.624 246.275 181.894 247.078 187.555C247.869 193.132 246.744 198.963 241.452 203.667L244.11 206.656C250.634 200.857 251.97 193.559 251.038 186.993C250.118 180.509 246.991 174.62 244.381 171.14L241.181 173.54ZM241.206 140.75C243.505 143.687 246.277 148.784 247.078 154.386C247.867 159.899 246.754 165.836 241.408 170.886L244.154 173.794C250.624 167.683 251.973 160.355 251.038 153.82C250.116 147.373 246.981 141.639 244.356 138.285L241.206 140.75ZM238.814 104.731C241.513 107.815 244.888 113.256 246.177 119.414C247.45 125.493 246.689 132.186 241.294 138.18L244.268 140.856C250.689 133.721 251.569 125.644 250.093 118.594C248.633 111.623 244.87 105.577 241.824 102.097L238.814 104.731ZM239.859 71.3076C244.229 74.9489 247.153 82.134 247.346 88.8043C247.442 92.1047 246.859 95.078 245.623 97.3004C244.421 99.4627 242.59 100.953 239.951 101.448L240.688 105.379C244.613 104.643 247.398 102.339 249.119 99.2444C250.806 96.2101 251.454 92.4652 251.344 88.6884C251.128 81.2042 247.897 72.799 242.42 68.2347L239.859 71.3076ZM171.794 590.898C179.11 592.443 185.279 587.863 189.745 582.433C194.28 576.92 197.586 569.932 199.261 565.17L195.487 563.843C193.915 568.312 190.808 574.845 186.656 579.892C182.435 585.024 177.645 588.045 172.621 586.984L171.794 590.898ZM149.329 614.556C158.88 615.265 165.148 611.067 168.963 605.531C172.696 600.115 174.063 593.479 174.207 589.005L170.209 588.877C170.082 592.82 168.851 598.646 165.67 603.261C162.571 607.757 157.609 611.16 149.625 610.567L149.329 614.556ZM129.021 638.989C133.455 639.345 137.165 638.45 140.209 636.677C143.235 634.916 145.489 632.354 147.143 629.537C150.422 623.951 151.477 617.134 151.477 612.561H147.477C147.477 616.676 146.502 622.727 143.693 627.512C142.302 629.881 140.498 631.881 138.196 633.221C135.912 634.55 133.026 635.298 129.341 635.002L129.021 638.989ZM111.484 666.681C115.271 666.374 120.668 664.469 124.897 659.8C129.178 655.074 132.089 647.71 131.174 636.828L127.188 637.163C128.026 647.131 125.349 653.342 121.933 657.114C118.464 660.943 114.056 662.459 111.16 662.694L111.484 666.681ZM94.5223 694.365C103.19 693.278 108.164 687.851 110.785 681.746C113.368 675.729 113.741 668.938 113.312 664.496L109.331 664.88C109.714 668.854 109.357 674.932 107.109 680.168C104.899 685.317 100.944 689.528 94.0246 690.396L94.5223 694.365ZM78.9261 722.885C83.5366 722.708 87.1657 721.289 89.9272 718.994C92.6683 716.717 94.4228 713.688 95.4993 710.488C97.6331 704.146 97.2213 696.796 96.2326 691.978L92.3142 692.782C93.2198 697.195 93.5387 703.772 91.7081 709.213C90.8024 711.905 89.401 714.231 87.3711 715.918C85.3615 717.587 82.6042 718.74 78.7719 718.888L78.9261 722.885ZM66.9205 751.378C71.2191 750.839 74.5077 749.177 76.9146 746.743C79.2993 744.332 80.7022 741.283 81.4628 738.135C82.9711 731.892 82.0469 724.885 80.7747 720.347L76.9232 721.427C78.0865 725.576 78.8671 731.846 77.5746 737.195C76.9348 739.844 75.8109 742.171 74.0706 743.93C72.3524 745.667 69.9177 746.971 66.4228 747.409L66.9205 751.378ZM55.5278 783.146C60.3159 782.612 63.9011 780.814 66.4334 778.113C68.9406 775.439 70.2673 772.041 70.8562 768.54C72.0239 761.598 70.3747 753.776 68.5535 748.716L64.7899 750.071C66.4865 754.785 67.9222 761.868 66.9116 767.876C66.4113 770.851 65.3329 773.439 63.5155 775.377C61.7232 777.288 59.0642 778.727 55.0847 779.171L55.5278 783.146ZM52.0771 815.557C56.0375 813.751 58.7075 811.102 60.3322 807.963C61.9407 804.856 62.4643 801.389 62.3589 797.997C62.1494 791.256 59.446 784.421 57.0477 780.175L53.5648 782.142C55.7668 786.041 58.1779 792.237 58.3608 798.121C58.4516 801.041 57.9908 803.785 56.7799 806.124C55.5853 808.432 53.6009 810.466 50.4173 811.918L52.0771 815.557ZM49.0763 848.003C56.9285 842.989 59.2058 835.858 58.8046 829.134C58.4115 822.546 55.47 816.336 52.8933 812.602L49.6011 814.873C51.8954 818.198 54.4742 823.716 54.8117 829.373C55.1412 834.893 53.3595 840.522 46.9237 844.631L49.0763 848.003ZM49.165 879.707C52.867 877.054 55.1935 873.942 56.4285 870.605C57.6578 867.284 57.7598 863.865 57.2176 860.645C56.1431 854.265 52.5045 848.439 49.5073 845.002L46.4927 847.631C49.1782 850.711 52.3588 855.88 53.2732 861.31C53.7255 863.995 53.6144 866.685 52.6772 869.217C51.7456 871.734 49.9522 874.222 46.835 876.456L49.165 879.707ZM55.446 912.419C57.4646 908.648 59.5667 902.398 59.3626 895.735C59.1561 888.991 56.5713 881.773 49.1664 876.457L46.8336 879.706C53.043 884.164 55.1886 890.113 55.3645 895.858C55.5429 901.683 53.6792 907.244 51.9194 910.531L55.446 912.419ZM61.7966 942.785C64.1553 939.531 66.6352 934.009 66.3972 927.891C66.1536 921.628 63.0666 914.999 54.7452 909.781L52.6202 913.17C59.8858 917.725 62.2109 923.178 62.4002 928.046C62.5952 933.059 60.5289 937.718 58.558 940.437L61.7966 942.785ZM79.0566 972.551C80.5684 969.108 81.3223 963.476 79.0313 957.399C76.7211 951.271 71.3917 944.882 61.0578 939.815L59.2968 943.407C68.896 948.113 73.4021 953.806 75.2884 958.81C77.1938 963.864 76.5052 968.412 75.3942 970.943L79.0566 972.551ZM95.3766 999.202C96.4388 995.679 96.7798 990.09 94.4801 984.481C92.1471 978.792 87.1679 973.26 77.9136 969.869L76.5372 973.625C84.8181 976.659 88.9042 981.426 90.7791 985.999C92.6873 990.652 92.3789 995.288 91.5469 998.047L95.3766 999.202ZM114.115 1023.33C115.194 1015.39 111.936 1009.24 107.583 1004.87C103.274 1000.55 97.8124 997.874 94.0516 996.714L92.8718 1000.54C96.1468 1001.55 100.995 1003.93 104.75 1007.69C108.461 1011.42 111.022 1016.39 110.152 1022.79L114.115 1023.33ZM138.486 1044.32C138.85 1035.92 134.311 1030.23 128.788 1026.65C123.327 1023.12 116.744 1021.5 112.327 1021.07L111.94 1025.05C115.912 1025.44 121.831 1026.91 126.612 1030.01C131.332 1033.07 134.775 1037.57 134.49 1044.15L138.486 1044.32ZM165.249 1060.18C163.808 1051.87 158.498 1047.12 152.637 1044.62C146.857 1042.15 140.451 1041.81 136.282 1042.25L136.694 1046.22C140.372 1045.84 146.062 1046.16 151.067 1048.29C155.989 1050.39 160.15 1054.19 161.307 1060.87L165.249 1060.18ZM193.673 1071.66C193.126 1067.63 191.439 1064.56 189.001 1062.32C186.594 1060.11 183.565 1058.8 180.45 1058.09C174.261 1056.66 167.304 1057.45 162.791 1058.58L163.764 1062.46C167.911 1061.42 174.187 1060.75 179.553 1061.99C182.215 1062.6 184.544 1063.66 186.294 1065.27C188.014 1066.85 189.282 1069.05 189.71 1072.2L193.673 1071.66ZM226.044 1075.32C224.587 1071.3 222.132 1068.57 219.069 1066.91C216.051 1065.27 212.584 1064.75 209.165 1064.86C202.364 1065.07 195.237 1067.77 190.751 1070.16L192.632 1073.69C196.806 1071.47 203.317 1069.04 209.288 1068.86C212.255 1068.77 214.959 1069.23 217.164 1070.43C219.323 1071.6 221.143 1073.54 222.284 1076.68L226.044 1075.32ZM258.217 1073.96C253.077 1067.33 245.862 1066.19 239.298 1067.29C232.802 1068.38 226.67 1071.68 222.982 1074.39L225.347 1077.61C228.694 1075.16 234.253 1072.19 239.96 1071.23C245.601 1070.29 251.105 1071.31 255.056 1076.41L258.217 1073.96ZM287.543 1063.98C279.173 1059.94 271.898 1060.75 266.25 1063.51C260.697 1066.23 256.81 1070.79 254.892 1074.21L258.381 1076.16C259.981 1073.31 263.32 1069.4 268.009 1067.11C272.604 1064.86 278.588 1064.1 285.804 1067.58L287.543 1063.98ZM315.878 1051.36C308.318 1048.11 301.47 1049.79 296.134 1053.1C290.862 1056.36 286.955 1061.25 284.937 1064.79L288.411 1066.77C290.181 1063.67 293.662 1059.33 298.24 1056.5C302.754 1053.7 308.218 1052.42 314.298 1055.03L315.878 1051.36ZM342.256 1034.13C333.168 1032.37 326.327 1035.09 321.545 1039.27C316.84 1043.38 314.185 1048.84 313.156 1052.68L317.019 1053.71C317.885 1050.49 320.181 1045.77 324.177 1042.28C328.094 1038.86 333.701 1036.55 341.499 1038.05L342.256 1034.13ZM363.796 1010.47C354.312 1010.47 348.229 1014.78 344.598 1020.22C341.039 1025.54 339.877 1031.86 339.877 1036.09H343.877C343.877 1032.45 344.908 1026.95 347.924 1022.44C350.869 1018.03 355.746 1014.47 363.796 1014.47V1010.47ZM382.901 983.629C373.791 985.387 368.309 990.639 365.234 996.47C362.201 1002.22 361.51 1008.51 361.802 1012.61L365.791 1012.33C365.542 1008.83 366.15 1003.31 368.772 998.336C371.353 993.443 375.883 989.057 383.659 987.557L382.901 983.629ZM396.722 958.376C388.747 959.831 384.461 964.912 382.434 970.517C380.448 976.01 380.592 982.048 381.313 985.956L385.247 985.23C384.615 981.807 384.516 976.524 386.196 971.877C387.836 967.341 391.127 963.463 397.44 962.311L396.722 958.376ZM406.023 925.932C397.769 929.532 394.27 936.339 393.256 943.149C392.254 949.874 393.632 956.733 395.202 961.03L398.959 959.657C397.553 955.81 396.333 949.638 397.212 943.738C398.078 937.924 400.939 932.513 407.622 929.598L406.023 925.932ZM414.481 894.868C407.66 896.478 404.958 903.12 404.051 909.525C403.122 916.083 403.888 923.413 404.864 928.167L408.782 927.363C407.863 922.886 407.168 916.044 408.012 910.086C408.877 903.975 411.182 899.757 415.4 898.761L414.481 894.868ZM418.103 863.262C414.179 865.231 411.532 867.929 409.915 871.048C408.311 874.143 407.782 877.536 407.888 880.834C408.099 887.378 410.817 893.863 413.23 897.85L416.652 895.779C414.465 892.164 412.068 886.35 411.886 880.705C411.796 877.908 412.252 875.232 413.467 872.888C414.67 870.567 416.677 868.453 419.897 866.837L418.103 863.262ZM415.114 830.279C408.137 837.629 407.024 845.322 408.634 851.922C410.211 858.381 414.349 863.646 417.685 866.557L420.315 863.543C417.427 861.023 413.853 856.433 412.52 850.974C411.222 845.655 412.003 839.367 418.015 833.033L415.114 830.279ZM411.651 798.785C406.159 807.05 405.493 814.557 407.08 820.617C408.644 826.59 412.348 830.986 415.362 833.254L417.767 830.058C415.369 828.254 412.254 824.587 410.949 819.604C409.668 814.71 410.084 808.37 414.983 800.998L411.651 798.785ZM403.35 765.735C399.271 775.626 399.777 783.705 402.249 789.81C404.695 795.848 409.007 799.812 412.357 801.646L414.277 798.137C411.675 796.713 408.03 793.428 405.957 788.308C403.91 783.254 403.334 776.265 407.048 767.26L403.35 765.735ZM392.778 737.275C389.332 746.263 390.425 753.408 393.414 758.669C396.35 763.837 401.008 767.001 404.468 768.359L405.93 764.636C403.167 763.551 399.3 760.932 396.892 756.693C394.536 752.547 393.464 746.66 396.513 738.707L392.778 737.275ZM379.881 706.935C375.31 715.754 376.673 723.241 380.367 728.903C383.97 734.425 389.703 738.105 393.879 739.838L395.412 736.144C391.74 734.619 386.757 731.376 383.717 726.717C380.768 722.198 379.56 716.246 383.432 708.776L379.881 706.935ZM360.181 679.168C359.162 690.412 362.345 698.002 367.002 702.847C371.595 707.626 377.441 709.547 381.508 709.85L381.805 705.861C378.565 705.62 373.695 704.039 369.886 700.076C366.141 696.179 363.235 689.787 364.165 679.529L360.181 679.168ZM345.615 651.191C343.521 659.945 345.705 666.851 349.352 671.87C352.946 676.817 357.917 679.884 361.469 681.22L362.877 677.477C359.935 676.369 355.651 673.735 352.588 669.519C349.577 665.375 347.703 659.657 349.505 652.121L345.615 651.191ZM324.527 625.87C323.289 630.306 323.475 634.242 324.693 637.666C325.903 641.069 328.086 643.839 330.648 646.045C335.73 650.422 342.514 652.769 347.201 653.624L347.919 649.689C343.676 648.915 337.634 646.782 333.258 643.014C331.091 641.148 329.387 638.929 328.462 636.325C327.543 633.742 327.344 630.654 328.379 626.945L324.527 625.87ZM304.991 600.052C303.593 609.521 306.819 616.327 311.499 620.895C316.094 625.381 322.01 627.643 326.1 628.376L326.806 624.439C323.319 623.814 318.194 621.841 314.293 618.033C310.475 614.306 307.748 608.76 308.948 600.636L304.991 600.052ZM281.45 576.421C280.017 585.764 284.117 592.161 289.703 596.202C295.173 600.16 302.087 601.907 306.788 602.336L307.151 598.352C302.921 597.966 296.765 596.374 292.047 592.961C287.445 589.631 284.239 584.625 285.404 577.027L281.45 576.421ZM256.278 553.366C257.648 563.735 262.41 570.228 267.942 574.046C273.4 577.813 279.484 578.895 283.512 578.722L283.341 574.726C280.063 574.867 274.863 573.963 270.214 570.754C265.638 567.595 261.47 562.121 260.243 552.842L256.278 553.366ZM235.377 535.561C234.242 538.703 234.558 541.58 235.925 544.058C237.246 546.454 239.467 548.339 241.924 549.81C246.831 552.748 253.314 554.411 257.974 555.084L258.546 551.125C254.155 550.49 248.252 548.937 243.979 546.378C241.845 545.1 240.277 543.666 239.428 542.127C238.624 540.67 238.389 538.994 239.139 536.921L235.377 535.561ZM235.457 535.35C235.441 535.396 235.423 535.443 235.404 535.491L239.112 536.992C239.157 536.88 239.2 536.766 239.239 536.65L235.457 535.35ZM239.139 536.921C239.162 536.855 239.187 536.789 239.213 536.722L235.483 535.278C235.446 535.372 235.411 535.467 235.377 535.562L239.139 536.921ZM219.003 547.736C221.813 547.181 226.102 546.031 229.99 544.346C231.935 543.504 233.841 542.502 235.426 541.332C236.987 540.181 238.401 538.748 239.112 536.992L235.404 535.491C235.087 536.273 234.333 537.168 233.052 538.113C231.794 539.041 230.183 539.903 228.4 540.676C224.834 542.221 220.831 543.298 218.228 543.812L219.003 547.736ZM197.695 566.481C205.635 565.189 211.165 562.344 214.832 558.59C218.503 554.831 220.15 550.319 220.605 545.982L216.627 545.565C216.248 549.182 214.899 552.796 211.97 555.795C209.037 558.798 204.364 561.343 197.053 562.533L197.695 566.481ZM242.526 68.3295L227.756 54.1277L224.984 57.0111L239.754 71.2129L242.526 68.3295ZM241.734 101.999L229.425 89.6912L226.597 92.5196L238.905 104.828L241.734 101.999ZM244.169 138.078L227.758 122.253L224.982 125.133L241.393 140.957L244.169 138.078ZM244.195 170.925L228.605 155.335L225.776 158.163L241.367 173.754L244.195 170.925ZM244.138 203.692L228.547 189.301L225.834 192.24L241.424 206.631L244.138 203.692ZM243.345 237.361L226.935 221.607L224.164 224.492L240.575 240.247L243.345 237.361ZM243.347 271.005L228.577 256.803L225.804 259.686L240.574 273.888L243.347 271.005ZM243.426 305.548L228.656 289.642L225.725 292.364L240.495 308.27L243.426 305.548ZM243.401 339.985L227.598 323.574L224.717 326.349L240.52 342.76L243.401 339.985ZM240.399 374.623C241.38 375.85 242.671 377.927 243.331 380.074C244.003 382.262 243.887 384.02 242.886 385.222L245.959 387.783C248.239 385.046 247.986 381.607 247.154 378.899C246.31 376.15 244.729 373.632 243.522 372.124L240.399 374.623ZM244.422 384.502H218.985V388.502H244.422V384.502ZM243.375 371.959L227.572 356.156L224.743 358.985L240.546 374.788L243.375 371.959ZM244.885 388.448C247.66 387.787 252.215 386.988 256.77 386.756C261.444 386.518 265.651 386.908 268.067 388.251L270.01 384.754C266.518 382.814 261.289 382.521 256.567 382.761C251.727 383.008 246.928 383.85 243.959 384.557L244.885 388.448ZM247.415 361.949C246.561 365.11 244.549 368.495 240.653 371.86L243.268 374.887C247.671 371.084 250.183 367.039 251.276 362.992L247.415 361.949ZM272.105 325.704L281.951 350.321L285.665 348.835L275.819 324.219L272.105 325.704ZM268.649 377.754L261.937 353.958L258.088 355.044L264.799 378.84L268.649 377.754ZM224.282 523.47L216.077 530.192L218.612 533.286L226.817 526.564L224.282 523.47ZM283.399 507.981L286.681 505.417L284.218 502.265L280.936 504.829L283.399 507.981ZM259.118 497.138C261.38 500.91 268.939 507.798 282.075 508.403L282.259 504.407C270.451 503.863 264.116 497.695 262.548 495.081L259.118 497.138ZM259.566 494.563L254.136 499.011L256.671 502.106L262.101 497.657L259.566 494.563ZM260.423 525.93L274.077 515.263L271.615 512.111L257.961 522.778L260.423 525.93ZM274.077 515.263L283.399 507.981L280.936 504.829L271.615 512.111L274.077 515.263ZM255.477 502.557C259.005 502.426 263.91 502.918 267.389 504.63C269.103 505.473 270.301 506.529 270.928 507.783C271.531 508.99 271.743 510.659 270.948 513.057L274.744 514.317C275.8 511.136 275.677 508.339 274.506 505.996C273.359 503.699 271.345 502.119 269.155 501.041C264.826 498.91 259.158 498.417 255.329 498.56L255.477 502.557ZM254.136 499.011L248.899 503.302L251.434 506.396L256.671 502.106L254.136 499.011ZM226.839 492.918C226.575 496.062 227.498 500.555 231.218 503.773C234.972 507.022 241.13 508.594 250.538 506.814L249.794 502.884C241.058 504.537 236.325 502.902 233.835 500.749C231.312 498.565 230.64 495.459 230.825 493.252L226.839 492.918ZM217.534 505.362L230.131 494.606L227.533 491.564L214.936 502.32L217.534 505.362ZM248.899 503.302L238.111 512.14L240.646 515.234L251.434 506.396L248.899 503.302ZM238.111 512.14L224.282 523.47L226.817 526.564L240.646 515.234L238.111 512.14ZM216.703 505.785C220.526 504.864 226.105 504.274 230.54 505.316C232.738 505.832 234.484 506.709 235.643 507.971C236.758 509.184 237.5 510.936 237.38 513.598L241.376 513.777C241.537 510.202 240.519 507.366 238.589 505.265C236.703 503.212 234.118 502.047 231.454 501.422C226.165 500.18 219.892 500.902 215.767 501.896L216.703 505.785ZM284.182 474.395L271.874 484.479L274.409 487.573L286.717 477.489L284.182 474.395ZM271.874 484.479L259.566 494.563L262.101 497.657L274.409 487.573L271.874 484.479ZM248.216 478.904C252.018 477.898 257.726 477.155 262.531 478.07C264.917 478.524 266.942 479.361 268.416 480.643C269.845 481.886 270.876 483.648 271.153 486.238L275.13 485.813C274.75 482.262 273.265 479.559 271.041 477.625C268.861 475.729 266.096 474.677 263.279 474.14C257.676 473.073 251.322 473.944 247.193 475.037L248.216 478.904ZM260.387 464.149C259.809 467.883 260.298 473.397 264.302 476.964C268.395 480.609 275.352 481.528 286.1 477.833L284.799 474.051C274.541 477.577 269.426 476.171 266.963 473.977C264.412 471.704 263.86 467.864 264.34 464.76L260.387 464.149ZM194.716 489.79L179.947 502.315L182.534 505.366L197.303 492.841L194.716 489.79ZM194.097 490.732C192.982 494.388 192.499 500.05 195.854 503.938C199.35 507.988 206.042 509.085 216.826 505.751L215.644 501.93C205.192 505.161 200.718 503.451 198.883 501.324C196.908 499.036 196.931 495.153 197.923 491.899L194.097 490.732ZM193.509 525.875L205.521 515.618L202.924 512.576L190.911 522.833L193.509 525.875ZM205.521 515.618L217.534 505.362L214.936 502.32L202.924 512.576L205.521 515.618ZM181.885 505.734C185.398 504.538 190.573 503.652 194.807 504.633C196.885 505.115 198.632 506.02 199.895 507.455C201.147 508.876 202.079 510.992 202.225 514.189L206.22 514.006C206.041 510.082 204.861 507.041 202.897 504.811C200.945 502.594 198.373 501.354 195.71 500.737C190.463 499.521 184.472 500.628 180.596 501.947L181.885 505.734ZM260.366 435.157C260.545 438.438 262.081 442.987 266.233 445.879C270.449 448.814 276.865 449.704 286.081 446.64L284.819 442.844C276.31 445.673 271.338 444.559 268.519 442.596C265.637 440.589 264.492 437.344 264.36 434.939L260.366 435.157ZM261.07 433.523L248.873 443.866L251.46 446.917L263.657 436.574L261.07 433.523ZM263.662 465.975L273.564 457.52L270.967 454.478L261.064 462.933L263.662 465.975ZM273.564 457.52L283.466 449.066L280.869 446.024L270.967 454.478L273.564 457.52ZM250.69 447.321C254.78 446.212 260.56 445.463 264.867 446.533C266.987 447.06 268.535 447.971 269.455 449.273C270.351 450.543 270.876 452.507 270.298 455.636L274.232 456.363C274.945 452.5 274.408 449.355 272.722 446.967C271.059 444.611 268.504 443.315 265.832 442.651C260.555 441.34 253.994 442.28 249.642 443.461L250.69 447.321ZM249.003 478.492L250.208 477.463L247.61 474.421L246.406 475.45L249.003 478.492ZM250.208 477.463L263.662 465.975L261.064 462.933L247.61 474.421L250.208 477.463ZM228.555 461.524C227.519 465.026 227.106 470.421 230.1 474.393C233.249 478.571 239.397 480.252 249.37 477.888L248.448 473.996C239.036 476.227 234.999 474.248 233.294 471.985C231.433 469.516 231.495 465.687 232.391 462.658L228.555 461.524ZM230.131 494.606L237.515 488.3L234.918 485.258L227.533 491.564L230.131 494.606ZM237.515 488.3L249.003 478.492L246.406 475.45L234.918 485.258L237.515 488.3ZM213.986 478.56C217.803 477.028 223.281 475.777 227.562 476.622C229.647 477.034 231.311 477.912 232.442 479.363C233.574 480.816 234.369 483.096 234.218 486.696L238.215 486.863C238.393 482.612 237.471 479.31 235.597 476.904C233.72 474.497 231.087 473.241 228.337 472.698C222.95 471.634 216.612 473.196 212.497 474.847L213.986 478.56ZM196.337 461.554L181.566 474.435L184.196 477.449L198.966 464.569L196.337 461.554ZM229.179 460.566L214.942 472.639L217.529 475.69L231.766 463.616L229.179 460.566ZM214.942 472.639L211.948 475.178L214.535 478.229L217.529 475.69L214.942 472.639ZM195.777 462.363C195.117 464.135 194.63 466.279 194.657 468.425C194.683 470.571 195.23 472.871 196.81 474.727C200.049 478.53 206.469 479.324 216.834 476.073L215.636 472.257C205.421 475.461 201.359 473.899 199.855 472.134C199.065 471.206 198.675 469.919 198.656 468.375C198.637 466.832 198.995 465.183 199.525 463.759L195.777 462.363ZM211.948 475.178L200.954 484.5L203.542 487.551L214.535 478.229L211.948 475.178ZM200.954 484.5L194.716 489.79L197.303 492.841L203.542 487.551L200.954 484.5ZM183.459 477.857C187.636 476.595 193.301 475.684 197.167 476.617C199.047 477.071 200.189 477.879 200.742 478.976C201.311 480.105 201.52 482.054 200.36 485.365L204.136 486.687C205.472 482.872 205.574 479.676 204.313 477.175C203.037 474.642 200.625 473.337 198.106 472.729C193.174 471.539 186.661 472.712 182.303 474.027L183.459 477.857ZM248.873 443.866L234.923 455.695L237.51 458.746L251.46 446.917L248.873 443.866ZM234.923 455.695L229.179 460.566L231.766 463.616L237.51 458.746L234.923 455.695ZM216.206 449.394C219.347 448.098 223.926 447.092 227.635 447.934C229.436 448.343 230.958 449.168 232.078 450.544C233.202 451.925 234.069 454.046 234.219 457.312L238.215 457.129C238.036 453.234 236.974 450.223 235.181 448.019C233.383 445.81 231 444.596 228.521 444.034C223.671 442.933 218.191 444.249 214.681 445.696L216.206 449.394ZM228.509 434.059C228.133 436.009 227.984 438.328 228.317 440.598C228.65 442.861 229.486 445.216 231.211 447.05C234.842 450.909 241.25 451.447 250.963 447.225L249.369 443.557C240.045 447.61 235.923 446.221 234.125 444.309C233.135 443.257 232.532 441.766 232.275 440.017C232.019 438.274 232.129 436.415 232.437 434.816L228.509 434.059ZM252.134 412.894L248.852 415.756L251.481 418.771L254.763 415.908L252.134 412.894ZM282.515 415.337L271.792 424.43L274.379 427.481L285.102 418.388L282.515 415.337ZM271.792 424.43L261.07 433.523L263.657 436.574L274.379 427.481L271.792 424.43ZM250.884 419.13C254.394 417.781 259.557 416.648 263.781 417.372C265.854 417.727 267.568 418.506 268.797 419.79C270.008 421.055 270.932 423.001 271.088 426.057L275.083 425.853C274.889 422.044 273.691 419.118 271.687 417.024C269.701 414.949 267.106 413.884 264.456 413.43C259.232 412.534 253.286 413.921 249.449 415.396L250.884 419.13ZM271.962 393.067C271.962 392.705 272.072 392.465 272.076 392.455C272.098 392.405 272.106 392.399 272.074 392.451C272.012 392.552 271.888 392.729 271.681 392.994C271.273 393.515 270.657 394.228 269.864 395.1C268.285 396.837 266.102 399.096 263.715 401.506L266.557 404.321C268.956 401.899 271.186 399.592 272.823 397.791C273.638 396.895 274.331 396.097 274.83 395.46C275.077 395.146 275.306 394.832 275.484 394.542C275.572 394.399 275.671 394.223 275.754 394.029C275.82 393.875 275.962 393.518 275.962 393.067H271.962ZM263.189 402.455C262.301 406.228 262.212 411.971 265.902 415.687C269.727 419.54 276.611 420.278 287.426 416.277L286.038 412.525C275.56 416.402 270.808 414.952 268.74 412.869C266.537 410.649 266.297 406.71 267.082 403.371L263.189 402.455ZM206.166 393.216L196.975 401.421L199.639 404.405L208.83 396.2L206.166 393.216ZM196.975 401.421L183.19 413.73L185.854 416.713L199.639 404.405L196.975 401.421ZM196.369 402.422C195.824 404.571 195.521 407.22 195.888 409.755C196.254 412.292 197.332 414.926 199.748 416.65L202.07 413.393C200.841 412.516 200.119 411.065 199.846 409.182C199.574 407.297 199.793 405.192 200.246 403.405L196.369 402.422ZM199.748 416.65C200.371 417.094 201.067 417.465 201.835 417.752L203.237 414.006C202.786 413.837 202.401 413.629 202.07 413.393L199.748 416.65ZM201.835 417.752C205.391 419.083 210.338 418.591 216.992 415.87L215.478 412.167C209.143 414.758 205.373 414.805 203.237 414.006L201.835 417.752ZM205.404 427.387L217.632 415.449L214.838 412.587L202.61 424.524L205.404 427.387ZM182.877 419.132C185.537 418.119 188.862 417.136 192.079 416.632C195.36 416.118 198.244 416.149 200.2 416.891L201.618 413.151C198.674 412.034 194.946 412.134 191.46 412.681C187.91 413.237 184.313 414.305 181.453 415.394L182.877 419.132ZM200.2 416.891C200.658 417.065 201.045 417.271 201.369 417.503L203.703 414.254C203.058 413.792 202.354 413.43 201.618 413.151L200.2 416.891ZM201.369 417.503C202.096 418.025 202.614 418.76 202.819 419.903C203.036 421.112 202.914 422.863 202.106 425.334L205.908 426.577C206.835 423.743 207.131 421.285 206.756 419.196C206.369 417.042 205.284 415.39 203.703 414.254L201.369 417.503ZM217.632 415.449L233.511 399.949L230.717 397.086L214.838 412.587L217.632 415.449ZM233.511 399.949L245.819 387.934L243.025 385.071L230.717 397.086L233.511 399.949ZM263.715 401.506C260.484 404.767 256.909 408.275 254.012 411.079L256.794 413.953C259.704 411.136 263.301 407.608 266.557 404.321L263.715 401.506ZM254.012 411.079C253.318 411.75 252.664 412.381 252.063 412.958L254.833 415.844C255.438 415.263 256.097 414.628 256.794 413.953L254.012 411.079ZM230.185 397.989C229.475 400.581 228.99 403.653 229.099 406.631C229.207 409.582 229.907 412.661 231.788 415.032C233.742 417.495 236.748 418.915 240.829 418.884C244.823 418.853 249.89 417.444 256.283 414.312L254.523 410.72C248.384 413.727 243.94 414.86 240.799 414.884C237.745 414.907 235.992 413.895 234.922 412.546C233.779 411.105 233.188 408.994 233.097 406.485C233.006 404.003 233.413 401.345 234.043 399.046L230.185 397.989ZM248.852 415.756L234.902 427.921L237.531 430.936L251.481 418.771L248.852 415.756ZM234.902 427.921L229.158 432.93L231.787 435.945L237.531 430.936L234.902 427.921ZM216.751 415.951C221.189 414.765 227.129 414.214 231.103 415.845C232.991 416.619 234.33 417.837 234.985 419.68C235.666 421.595 235.717 424.495 234.315 428.81L238.119 430.047C239.67 425.275 239.841 421.4 238.754 418.341C237.642 415.21 235.328 413.255 232.622 412.144C227.408 410.005 220.403 410.835 215.719 412.086L216.751 415.951ZM184.278 448.009L199.705 432.95L196.91 430.088L181.484 445.147L184.278 448.009ZM199.705 432.95L205.404 427.387L202.61 424.524L196.91 430.088L199.705 432.95ZM229.158 432.93L217.671 442.949L220.3 445.963L231.787 435.945L229.158 432.93ZM217.671 442.949L214.129 446.037L216.758 449.052L220.3 445.963L217.671 442.949ZM196.349 431.113C195.917 433.199 195.716 435.689 196.023 438.143C196.328 440.59 197.156 443.137 198.905 445.168C202.591 449.448 209.303 450.419 219.718 446.317L218.252 442.595C208.318 446.508 203.898 444.836 201.936 442.557C200.861 441.309 200.235 439.597 199.992 437.648C199.75 435.707 199.905 433.665 200.266 431.925L196.349 431.113ZM214.129 446.037L203.034 455.713L205.663 458.728L216.758 449.052L214.129 446.037ZM203.034 455.713L196.337 461.554L198.966 464.569L205.663 458.728L203.034 455.713ZM182.053 450.008C184.391 448.968 187.238 447.935 190.103 447.237C192.992 446.534 195.769 446.204 198.02 446.465C200.261 446.725 201.676 447.522 202.419 448.787C203.201 450.119 203.568 452.511 202.42 456.691L206.277 457.75C207.546 453.128 207.447 449.45 205.868 446.761C204.249 444.005 201.406 442.832 198.481 442.492C195.565 442.153 192.266 442.594 189.157 443.351C186.023 444.114 182.948 445.232 180.427 446.353L182.053 450.008ZM217.031 529.764C214.483 530.167 210.782 530.425 207.035 530.107C203.249 529.787 199.654 528.898 197.127 527.197L194.893 530.515C198.242 532.77 202.628 533.748 206.697 534.093C210.805 534.441 214.832 534.162 217.657 533.715L217.031 529.764ZM195.765 562.254C194.176 566.757 191.034 573.34 186.836 578.427C182.571 583.596 177.72 586.652 172.626 585.579L171.802 589.494C179.18 591.047 185.407 586.444 189.921 580.973C194.503 575.421 197.844 568.383 199.537 563.586L195.765 562.254ZM199.649 562.824L198.463 538.207L194.467 538.4L195.653 563.016L199.649 562.824ZM170.215 587.472C170.087 591.445 168.842 597.316 165.625 601.969C162.491 606.502 157.468 609.936 149.386 609.338L149.091 613.327C158.734 614.041 165.061 609.817 168.915 604.244C172.687 598.79 174.068 592.107 174.213 587.601L170.215 587.472ZM174.214 587.536V565.382H170.214V587.536H174.214ZM147.239 611.332C147.239 615.479 146.253 621.577 143.413 626.4C142.006 628.788 140.18 630.805 137.85 632.157C135.537 633.5 132.615 634.253 128.885 633.955L128.566 637.942C133.041 638.3 136.786 637.4 139.858 635.617C142.912 633.844 145.189 631.266 146.859 628.43C150.173 622.805 151.239 615.938 151.239 611.332H147.239ZM151.239 611.332V587.536H147.239V611.332H151.239ZM130.629 635.338C128.893 629.923 127.482 622.264 127.936 614.735L123.943 614.494C123.453 622.617 124.966 630.776 126.821 636.56L130.629 635.338ZM103.789 639.623L108.712 664.24L112.634 663.455L107.711 638.839L103.789 639.623ZM110.835 665.841C114.656 665.531 120.106 663.615 124.377 658.915C128.7 654.158 131.642 646.742 130.718 635.781L126.732 636.117C127.579 646.161 124.873 652.421 121.416 656.225C117.907 660.086 113.445 661.616 110.512 661.854L110.835 665.841ZM108.682 664.04C109.07 668.045 108.709 674.169 106.436 679.447C104.202 684.635 100.2 688.886 93.1935 689.761L93.6896 693.73C102.438 692.637 107.462 687.177 110.11 681.029C112.719 674.969 113.097 668.129 112.664 663.655L108.682 664.04ZM91.4827 692.149C92.3981 696.596 92.7207 703.224 90.8697 708.707C89.9539 711.42 88.5364 713.766 86.4812 715.468C84.4461 717.153 81.6537 718.317 77.7744 718.467L77.9281 722.464C82.5825 722.285 86.2451 720.857 89.0324 718.549C91.7996 716.257 93.5719 713.209 94.6596 709.986C96.8157 703.599 96.3997 696.196 95.4005 691.343L91.4827 692.149ZM95.375 691.234L89.5105 669.079L85.6437 670.103L91.5082 692.258L95.375 691.234ZM75.926 721.007C77.102 725.188 77.8913 731.506 76.5844 736.897C75.9375 739.566 74.8008 741.913 73.0391 743.688C71.2992 745.442 68.8333 746.757 65.2949 747.2L65.791 751.169C70.13 750.626 73.4489 748.954 75.8784 746.506C78.2861 744.079 79.7034 741.01 80.4719 737.84C81.9959 731.552 81.0621 724.495 79.7766 719.924L75.926 721.007ZM79.7212 719.756L72.2514 700.063L68.5115 701.481L75.9813 721.174L79.7212 719.756ZM63.6619 749.864C65.3771 754.613 66.8287 761.751 65.8069 767.806C65.301 770.804 64.2106 773.413 62.3708 775.369C60.5557 777.298 57.8628 778.75 53.8345 779.198L54.2762 783.173C59.1098 782.636 62.7282 780.827 65.2842 778.11C67.8156 775.419 69.156 771.998 69.7511 768.472C70.9311 761.48 69.2646 753.602 67.4241 748.505L63.6619 749.864ZM67.2754 748.185L58.2493 732.54L54.7845 734.539L63.8106 750.184L67.2754 748.185ZM52.3153 782.172C54.5416 786.101 56.9793 792.345 57.1642 798.274C57.256 801.217 56.7903 803.983 55.5652 806.342C54.3564 808.669 52.3477 810.722 49.125 812.187L50.7802 815.828C54.7784 814.011 57.4741 811.345 59.115 808.185C60.7396 805.057 61.2688 801.566 61.1623 798.15C60.9506 791.361 58.2188 784.476 55.7954 780.2L52.3153 782.172ZM55.8003 780.208L46.6102 763.797L43.1201 765.752L52.3103 782.163L55.8003 780.208ZM48.3082 815.146C50.6283 818.497 53.2357 824.058 53.577 829.758C53.91 835.322 52.109 840.998 45.5967 845.142L47.7442 848.517C55.6736 843.471 57.9753 836.292 57.5698 829.519C57.1726 822.884 54.2002 816.629 51.597 812.869L48.3082 815.146ZM51.484 812.721L38.3553 797.092L35.2925 799.664L48.4212 815.294L51.484 812.721ZM45.1653 848.146C47.8811 851.25 51.0972 856.46 52.0218 861.932C52.4791 864.639 52.3669 867.35 51.4189 869.903C50.4765 872.441 48.662 874.95 45.508 877.203L47.833 880.458C51.5716 877.788 53.9213 874.655 55.1687 871.296C56.4106 867.951 56.5137 864.508 55.9659 861.266C54.8802 854.84 51.2036 848.973 48.1756 845.512L45.1653 848.146ZM48.1401 845.473L35.2638 831.523L32.3246 834.237L45.2009 848.186L48.1401 845.473ZM48.0025 877.339L32.3794 863.39L29.7153 866.373L45.3385 880.323L48.0025 877.339ZM54.1763 913.419C56.2158 909.622 58.34 903.327 58.1338 896.616C57.9252 889.823 55.313 882.556 47.8343 877.204L45.5066 880.457C51.7887 884.952 53.9579 890.95 54.1357 896.739C54.3161 902.61 52.4319 908.213 50.6523 911.527L54.1763 913.419ZM35.6451 902.713L51.2355 914.089L53.5932 910.857L38.0028 899.482L35.6451 902.713ZM60.5962 944.01C62.9787 940.734 65.4845 935.173 65.244 929.011C64.9979 922.704 61.8791 916.03 53.4743 910.777L51.3543 914.169C58.7041 918.763 61.0556 924.26 61.2471 929.167C61.4442 934.219 59.355 938.916 57.3612 941.657L60.5962 944.01ZM43.8606 934.621L57.8262 944.468L60.1312 941.199L46.1655 931.352L43.8606 934.621ZM78.0405 974C79.5675 970.534 80.3294 964.862 78.0146 958.742C75.6808 952.572 70.2971 946.139 59.8569 941.036L58.1005 944.63C67.8079 949.374 72.3655 955.113 74.2733 960.157C76.2001 965.251 75.5039 969.836 74.3799 972.387L78.0405 974ZM54.9625 966.961L75.4762 975.054L76.9442 971.333L56.4305 963.24L54.9625 966.961ZM94.5354 1000.85C95.6086 997.304 95.9532 991.674 93.6297 986.027C91.2729 980.298 86.2437 974.73 76.8965 971.315L75.5239 975.072C83.9005 978.132 88.0341 982.939 89.9305 987.548C91.8602 992.239 91.5483 996.911 90.7068 999.693L94.5354 1000.85ZM92.033 1002.18C95.3466 1003.2 100.25 1005.6 104.048 1009.4C107.802 1013.15 110.392 1018.17 109.512 1024.62L113.475 1025.16C114.565 1017.17 111.274 1010.97 106.877 1006.57C102.524 1002.22 97.0071 999.529 93.2093 998.36L92.033 1002.18ZM67.6572 997.897L92.2736 1002.24L92.9687 998.302L68.3523 993.958L67.6572 997.897ZM111.301 1026.88C115.318 1027.27 121.305 1028.76 126.143 1031.88C130.918 1034.97 134.4 1039.5 134.112 1046.14L138.108 1046.31C138.476 1037.85 133.89 1032.12 128.313 1028.52C122.797 1024.96 116.148 1023.33 111.686 1022.9L111.301 1026.88ZM111.494 1022.89H94.2622V1026.89H111.494V1022.89ZM136.316 1048.21C140.037 1047.83 145.793 1048.15 150.856 1050.3C155.838 1052.42 160.048 1056.25 161.218 1062.98L165.159 1062.29C163.703 1053.92 158.339 1049.14 152.422 1046.62C146.585 1044.14 140.115 1043.8 135.904 1044.23L136.316 1048.21ZM135.895 1044.23L116.202 1046.36L116.632 1050.34L136.325 1048.21L135.895 1044.23ZM163.673 1064.57C167.867 1063.53 174.215 1062.84 179.644 1064.09C182.339 1064.71 184.696 1065.78 186.469 1067.4C188.21 1069 189.494 1071.22 189.926 1074.39L193.889 1073.85C193.336 1069.8 191.632 1066.71 189.171 1064.45C186.742 1062.23 183.684 1060.91 180.539 1060.19C174.289 1058.76 167.262 1059.55 162.703 1060.69L163.673 1064.57ZM162.574 1060.73L146.163 1066.02L147.391 1069.83L163.802 1064.54L162.574 1060.73ZM192.846 1075.89C197.066 1073.65 203.651 1071.2 209.693 1071.01C212.695 1070.92 215.432 1071.39 217.666 1072.6C219.854 1073.78 221.696 1075.74 222.85 1078.91L226.609 1077.54C225.136 1073.49 222.657 1070.74 219.566 1069.08C216.521 1067.43 213.022 1066.91 209.57 1067.01C202.701 1067.22 195.501 1069.95 190.969 1072.35L192.846 1075.89ZM190.878 1072.41L180.622 1078.56L182.679 1081.99L192.936 1075.84L190.878 1072.41ZM225.909 1079.84C229.295 1077.36 234.916 1074.37 240.691 1073.41C246.4 1072.45 251.973 1073.49 255.972 1078.63L259.13 1076.18C253.939 1069.5 246.657 1068.35 240.03 1069.46C233.47 1070.56 227.275 1073.89 223.549 1076.61L225.909 1079.84ZM223.422 1076.71L208.22 1089.84L210.835 1092.87L226.036 1079.74L223.422 1076.71ZM259.294 1078.38C260.913 1075.51 264.289 1071.57 269.034 1069.25C273.685 1066.98 279.743 1066.22 287.044 1069.73L288.779 1066.12C280.326 1062.06 272.981 1062.87 267.279 1065.66C261.672 1068.39 257.745 1072.98 255.808 1076.42L259.294 1078.38ZM256.079 1076.05L242.13 1091.21L245.074 1093.92L259.023 1078.76L256.079 1076.05ZM289.647 1068.92C291.437 1065.79 294.957 1061.42 299.588 1058.57C304.155 1055.75 309.688 1054.45 315.843 1057.09L317.418 1053.41C309.788 1050.14 302.876 1051.84 297.487 1055.16C292.162 1058.45 288.215 1063.37 286.176 1066.93L289.647 1068.92ZM286.141 1067L277.115 1084.18L280.656 1086.04L289.682 1068.86L286.141 1067ZM318.562 1055.77C319.437 1052.52 321.759 1047.76 325.801 1044.24C329.765 1040.79 335.44 1038.46 343.331 1039.98L344.086 1036.05C334.91 1034.29 328.003 1037.02 323.174 1041.23C318.422 1045.37 315.739 1050.87 314.699 1054.73L318.562 1055.77ZM314.712 1054.68L307.643 1078.72L311.48 1079.85L318.549 1055.81L314.712 1054.68ZM345.709 1038.02C345.709 1034.34 346.75 1028.81 349.801 1024.26C352.78 1019.81 357.716 1016.22 365.863 1016.22V1012.22C356.287 1012.22 350.146 1016.56 346.478 1022.03C342.883 1027.39 341.709 1033.76 341.709 1038.02H345.709ZM341.723 1037.78L339.435 1056.65L343.406 1057.13L345.694 1038.26L341.723 1037.78ZM367.858 1014.08C367.606 1010.55 368.22 1004.99 370.872 999.976C373.482 995.044 378.065 990.62 385.934 989.107L385.179 985.179C375.98 986.948 370.444 992.234 367.337 998.105C364.272 1003.9 363.573 1010.23 363.868 1014.36L367.858 1014.08ZM363.863 1014.22V1038.02H367.863V1014.22H363.863ZM387.523 986.779C386.884 983.33 386.784 978.006 388.483 973.322C390.141 968.75 393.471 964.836 399.864 963.674L399.148 959.738C391.099 961.202 386.77 966.313 384.723 971.958C382.716 977.49 382.861 983.571 383.59 987.507L387.523 986.779ZM383.568 987.358L386.495 1014.44L390.472 1014.01L387.545 986.928L383.568 987.358ZM401.384 961.017C399.962 957.14 398.728 950.921 399.617 944.975C400.493 939.117 403.385 933.659 410.15 930.718L408.555 927.05C400.222 930.673 396.686 937.524 395.661 944.384C394.649 951.157 396.041 958.066 397.628 962.394L401.384 961.017ZM397.667 962.494L404.701 978.905L408.377 977.329L401.344 960.918L397.667 962.494ZM411.311 928.481C410.383 923.97 409.679 917.076 410.532 911.072C411.407 904.918 413.736 900.657 418.016 899.65L417.1 895.756C410.22 897.375 407.489 904.055 406.572 910.51C405.634 917.115 406.407 924.499 407.393 929.287L411.311 928.481ZM407.637 929.913L418.304 947.692L421.734 945.634L411.067 927.855L407.637 929.913ZM419.267 896.665C417.056 893.022 414.633 887.163 414.449 881.474C414.358 878.655 414.818 875.958 416.048 873.594C417.265 871.253 419.296 869.12 422.555 867.491L420.766 863.913C416.804 865.894 414.131 868.609 412.499 871.749C410.878 874.866 410.344 878.282 410.451 881.603C410.664 888.195 413.41 894.726 415.848 898.741L419.267 896.665ZM415.93 898.866L427.418 914.948L430.673 912.624L419.185 896.541L415.93 898.866ZM422.973 864.193C420.052 861.652 416.437 857.026 415.09 851.523C413.777 846.163 414.566 839.824 420.647 833.439L417.751 830.68C410.703 838.08 409.577 845.827 411.205 852.474C412.798 858.979 416.979 864.281 420.348 867.211L422.973 864.193ZM420.159 867.023L434.108 882.875L437.111 880.232L423.162 864.381L420.159 867.023ZM420.399 830.46C417.972 828.639 414.822 824.942 413.502 819.92C412.206 814.987 412.627 808.598 417.581 801.168L414.253 798.949C408.703 807.273 408.03 814.833 409.633 820.936C411.213 826.951 414.955 831.377 417.999 833.659L420.399 830.46ZM417.87 833.554L435.409 849.145L438.067 846.155L420.528 830.565L417.87 833.554ZM416.874 798.302C414.239 796.865 410.553 793.553 408.456 788.392C406.387 783.298 405.804 776.255 409.559 767.18L405.863 765.651C401.741 775.613 402.253 783.75 404.751 789.898C407.221 795.979 411.577 799.969 414.959 801.814L416.874 798.302ZM414.744 801.678L429.474 812.345L431.821 809.105L417.09 798.438L414.744 801.678ZM408.44 764.553C405.642 763.458 401.73 760.816 399.295 756.543C396.912 752.362 395.828 746.429 398.911 738.415L395.177 736.979C391.696 746.031 392.8 753.227 395.819 758.524C398.786 763.727 403.49 766.911 406.982 768.278L408.44 764.553ZM406.666 768.121L426.748 780.429L428.838 777.019L408.756 764.711L406.666 768.121ZM397.809 735.849C394.094 734.311 389.053 731.041 385.978 726.344C382.995 721.788 381.774 715.789 385.69 708.259L382.141 706.414C377.523 715.295 378.9 722.835 382.632 728.535C386.272 734.095 392.063 737.8 396.279 739.545L397.809 735.849ZM396.249 739.532L414.095 747.265L415.686 743.595L397.839 735.862L396.249 739.532ZM384.063 705.342C380.783 705.099 375.855 703.503 372.001 699.507C368.212 695.578 365.274 689.134 366.214 678.798L362.23 678.436C361.201 689.763 364.417 697.405 369.121 702.283C373.76 707.094 379.663 709.027 383.768 709.331L384.063 705.342ZM383.263 709.227L402.136 715.735L403.44 711.953L384.567 705.446L383.263 709.227ZM364.924 676.745C361.946 675.628 357.613 672.971 354.515 668.721C351.47 664.543 349.575 658.779 351.397 651.185L347.508 650.252C345.392 659.069 347.599 666.024 351.282 671.077C354.913 676.058 359.934 679.145 363.52 680.49L364.924 676.745ZM363.737 680.557L387.533 686.506L388.503 682.626L364.707 676.677L363.737 680.557ZM349.81 648.751C345.518 647.971 339.406 645.82 334.98 642.021C332.788 640.14 331.064 637.901 330.128 635.277C329.198 632.672 328.997 629.559 330.044 625.821L326.192 624.742C324.941 629.21 325.13 633.174 326.36 636.621C327.583 640.048 329.787 642.835 332.375 645.056C337.508 649.463 344.36 651.826 349.095 652.686L349.81 648.751ZM349.037 652.675L367.91 656.678L368.74 652.765L349.867 648.762L349.037 652.675ZM328.47 623.313C324.941 622.683 319.757 620.693 315.81 616.853C311.947 613.095 309.191 607.504 310.403 599.317L306.447 598.731C305.034 608.268 308.295 615.122 313.02 619.72C317.662 624.236 323.637 626.513 327.767 627.25L328.47 623.313ZM327.937 627.273L349.271 629.213L349.633 625.229L328.299 623.29L327.937 627.273ZM308.606 597.032C304.327 596.643 298.1 595.038 293.327 591.597C288.67 588.238 285.428 583.19 286.606 575.532L282.652 574.924C281.205 584.334 285.348 590.774 290.988 594.841C296.513 598.825 303.497 600.584 308.244 601.016L308.606 597.032ZM308.198 601.011L325.429 602.981L325.884 599.006L308.652 597.037L308.198 601.011ZM284.544 573.23C281.225 573.372 275.963 572.46 271.259 569.224C266.629 566.039 262.415 560.52 261.175 551.169L257.209 551.695C258.595 562.14 263.407 568.677 268.992 572.519C274.504 576.312 280.649 577.4 284.715 577.226L284.544 573.23ZM284.629 577.228H303.502V573.228H284.629V577.228ZM257.926 522.806C254.028 525.992 246.741 529.923 239.453 529.649L239.303 533.646C247.938 533.97 256.155 529.42 260.458 525.903L257.926 522.806ZM239.453 529.649C235.174 529.488 230.837 527.883 227.033 523.676L224.066 526.358C228.639 531.417 234.017 533.447 239.303 533.646L239.453 529.649ZM274.195 530.14C270.55 529.713 265.596 527.929 260.606 522.94L257.778 525.769C263.403 531.394 269.19 533.581 273.729 534.113L274.195 530.14ZM259.192 553.432H281.347V549.432H259.192V553.432ZM215.491 532.492C216.689 535.441 217.577 539.608 217.132 543.838L221.11 544.257C221.636 539.262 220.597 534.433 219.197 530.986L215.491 532.492ZM217.132 543.838C216.749 547.483 215.385 551.127 212.422 554.151C209.454 557.181 204.725 559.747 197.331 560.946L197.971 564.894C205.991 563.594 211.576 560.73 215.279 556.951C218.986 553.167 220.651 548.625 221.11 544.257L217.132 543.838ZM259.477 549.453C255.036 548.814 249.067 547.248 244.743 544.667C242.584 543.379 240.997 541.932 240.137 540.378C239.323 538.908 239.086 537.217 239.844 535.125L236.083 533.762C234.937 536.925 235.257 539.82 236.637 542.315C237.971 544.725 240.213 546.622 242.693 548.102C247.649 551.06 254.199 552.734 258.907 553.412L259.477 549.453ZM239.844 535.125C239.854 535.099 239.863 535.072 239.873 535.046L236.126 533.647C236.111 533.686 236.097 533.724 236.083 533.762L239.844 535.125ZM239.874 535.045C239.888 535.005 239.904 534.965 239.919 534.925L236.191 533.477C236.169 533.534 236.147 533.591 236.125 533.648L239.874 535.045ZM239.919 534.925C240.183 534.246 240.555 533.515 241.06 532.729L237.696 530.566C237.065 531.548 236.563 532.518 236.191 533.477L239.919 534.925ZM219.508 546.01C222.346 545.451 226.68 544.293 230.608 542.597C232.571 541.748 234.496 540.739 236.097 539.563C237.673 538.404 239.099 536.963 239.817 535.196L236.111 533.691C235.789 534.483 235.025 535.387 233.728 536.34C232.455 537.276 230.825 538.146 229.022 538.924C225.415 540.482 221.367 541.567 218.735 542.085L219.508 546.01ZM239.817 535.196C239.863 535.083 239.906 534.969 239.946 534.853L236.164 533.549C236.148 533.596 236.13 533.643 236.111 533.691L239.817 535.196Z" fill="white"/>
</g>
<defs>
<filter id="filter0_d_80_232" x="0" y="0.829102" width="467" height="1123.03" filterUnits="userSpaceOnUse" color-interpolation-filters="sRGB">
<feFlood flood-opacity="0" result="BackgroundImageFix"/>
<feColorMatrix in="SourceAlpha" type="matrix" values="0 0 0 0 0 0 0 0 0 0 0 0 0 0 0 0 0 0 127 0" result="hardAlpha"/>
<feOffset/>
<feGaussianBlur stdDeviation="10"/>
<feComposite in2="hardAlpha" operator="out"/>
<feColorMatrix type="matrix" values="0 0 0 0 0 0 0 0 0 0.433333 0 0 0 0 1 0 0 0 1 0"/>
<feBlend mode="normal" in2="BackgroundImageFix" result="effect1_dropShadow_80_232"/>
<feBlend mode="normal" in="SourceGraphic" in2="effect1_dropShadow_80_232" result="shape"/>
</filter>
</defs>
</svg>
