<svg width="547" height="974" viewBox="0 0 547 974" fill="none" xmlns="http://www.w3.org/2000/svg">
<g filter="url(#filter0_d_46_12)">
<path fill-rule="evenodd" clip-rule="evenodd" d="M345.7 562.173L372.215 576.535L396.52 565.487L418.616 597.526L436.292 601.945L444.026 597.526L428.835 573.221L524.674 633.983V649.45L514.295 655.222L514.731 677.085L510.312 679.556V814.062L477.22 836.158H473.398V809.69L312.557 904.654V932.274L281.623 951.055L254.004 937.798V907.969L67.2959 803.015V814.062L59.5625 821.796L29.7335 803.015V665.678L26.4191 663.812V629.904L22 627.355V612.993L59.5625 591.227L97.125 569.462L136.897 546.417L177.774 522.731L218.651 499.045L258.423 476L332.443 517.613L308.138 534.553L322.5 542.287L344.595 526.82L345.7 562.173ZM274 550.5L153.5 622L278 696L399.5 622L274 550.5ZM69.5 698V691L73 692.5L69.5 698ZM429.5 727.5L443 720L454.5 741L429.5 727.5ZM461 783.5L328 860L396 747L461 783.5ZM314.5 829L348 773L314.5 792V829ZM176.5 750.5L241.5 866L77 772L143.5 732L176.5 750.5ZM216 773L252 793.5V834.5L216 773ZM98.5 706.5L86.5 725L109.5 713L98.5 706.5Z" fill="#C400FF"/>
<path d="M372.215 576.535L371.262 578.293L372.137 578.767L373.043 578.356L372.215 576.535ZM345.7 562.173L343.701 562.235L343.737 563.384L344.748 563.931L345.7 562.173ZM396.52 565.487L398.167 564.352L397.216 562.974L395.693 563.666L396.52 565.487ZM418.616 597.526L416.969 598.661L417.398 599.283L418.131 599.466L418.616 597.526ZM436.292 601.945L435.807 603.885L436.587 604.08L437.284 603.681L436.292 601.945ZM444.026 597.526L445.018 599.262L446.824 598.23L445.722 596.466L444.026 597.526ZM428.835 573.221L429.906 571.531L427.139 574.281L428.835 573.221ZM524.674 633.983H526.674V632.883L525.745 632.294L524.674 633.983ZM524.674 649.45L525.646 651.198L526.674 650.627V649.45H524.674ZM514.295 655.222L513.323 653.474L512.272 654.059L512.296 655.262L514.295 655.222ZM514.731 677.085L515.708 678.831L516.755 678.245L516.731 677.045L514.731 677.085ZM510.312 679.556L509.336 677.811L508.312 678.383V679.556H510.312ZM510.312 814.062L511.423 815.726L512.312 815.132V814.062H510.312ZM477.22 836.158V838.158H477.827L478.331 837.821L477.22 836.158ZM473.398 836.158H471.398V838.158H473.398V836.158ZM473.398 809.69H475.398V806.187L472.381 807.968L473.398 809.69ZM312.557 904.654L311.54 902.932L310.557 903.513V904.654H312.557ZM312.557 932.274L313.595 933.983L314.557 933.399V932.274H312.557ZM281.623 951.055L280.758 952.858L281.735 953.327L282.661 952.765L281.623 951.055ZM254.004 937.798H252.004V939.056L253.138 939.601L254.004 937.798ZM254.004 907.969H256.004V906.799L254.984 906.225L254.004 907.969ZM67.2959 803.015L68.276 801.271L65.2959 799.596V803.015H67.2959ZM67.2959 814.062L68.7102 815.477L69.2959 814.891V814.062H67.2959ZM59.5625 821.796L58.4969 823.488L59.8478 824.339L60.9767 823.21L59.5625 821.796ZM29.7335 803.015H27.7335V804.119L28.6678 804.707L29.7335 803.015ZM29.7335 665.678H31.7335V664.508L30.7143 663.935L29.7335 665.678ZM26.4191 663.812H24.4191V664.982L25.4382 665.555L26.4191 663.812ZM26.4191 629.904H28.4191V628.748L27.4184 628.171L26.4191 629.904ZM22 627.355H20V628.51L21.0008 629.087L22 627.355ZM22 612.993L20.9973 611.262L20 611.84V612.993H22ZM59.5625 591.227L60.5652 592.958H60.5652L59.5625 591.227ZM97.125 569.462L96.1223 567.732L97.125 569.462ZM136.897 546.417L137.9 548.147L136.897 546.417ZM177.774 522.731L178.777 524.462L177.774 522.731ZM218.651 499.045L217.648 497.315V497.315L218.651 499.045ZM258.423 476L259.403 474.257L258.408 473.697L257.42 474.27L258.423 476ZM332.443 517.613L333.587 519.254L336.201 517.432L333.423 515.87L332.443 517.613ZM308.138 534.553L306.994 532.912L304.326 534.772L307.19 536.314L308.138 534.553ZM322.5 542.287L321.552 544.048L322.637 544.632L323.647 543.925L322.5 542.287ZM344.595 526.82L346.595 526.757L346.479 523.06L343.449 525.181L344.595 526.82ZM153.5 622L152.479 620.28L149.583 621.999L152.478 623.719L153.5 622ZM274 550.5L274.99 548.762L273.98 548.187L272.979 548.78L274 550.5ZM278 696L276.978 697.719L278.013 698.334L279.04 697.708L278 696ZM399.5 622L400.54 623.708L403.439 621.943L400.49 620.262L399.5 622ZM69.5 691L70.2878 689.162L67.5 687.967V691H69.5ZM69.5 698H67.5V704.868L71.1873 699.074L69.5 698ZM73 692.5L74.6873 693.574L75.9506 691.589L73.7878 690.662L73 692.5ZM443 720L444.754 719.039L443.788 717.274L442.029 718.252L443 720ZM429.5 727.5L428.529 725.752L425.337 727.525L428.55 729.26L429.5 727.5ZM454.5 741L453.55 742.76L459.505 745.976L456.254 740.039L454.5 741ZM328 860L326.286 858.969L322.307 865.582L328.997 861.734L328 860ZM461 783.5L461.997 785.234L465.048 783.479L461.979 781.756L461 783.5ZM396 747L396.979 745.256L395.287 744.306L394.286 745.969L396 747ZM348 773L349.716 774.027L353.609 767.519L347.013 771.26L348 773ZM314.5 829H312.5V836.239L316.216 830.027L314.5 829ZM314.5 792L313.513 790.26L312.5 790.835V792H314.5ZM241.5 866L240.508 867.736L246.794 871.328L243.243 865.019L241.5 866ZM176.5 750.5L178.243 749.519L177.968 749.03L177.478 748.755L176.5 750.5ZM77 772L75.9691 770.286L73.0463 772.044L76.0077 773.736L77 772ZM143.5 732L144.478 730.255L143.465 729.687L142.469 730.286L143.5 732ZM252 793.5H254V792.337L252.99 791.762L252 793.5ZM216 773L216.99 771.262L210.503 767.568L214.274 774.01L216 773ZM252 834.5L250.274 835.51L254 841.876V834.5H252ZM86.5 725L84.8221 723.912L80.6849 730.29L87.4251 726.773L86.5 725ZM98.5 706.5L99.5175 704.778L97.866 703.802L96.8221 705.412L98.5 706.5ZM109.5 713L110.425 714.773L113.615 713.109L110.517 711.278L109.5 713ZM288.252 764.347L287.263 766.086L288.271 766.659L289.27 766.069L288.252 764.347ZM149.05 621.831L148.03 620.111L145.12 621.835L148.034 623.554L149.05 621.831ZM278.309 698.061L277.293 699.783L278.327 700.393L279.351 699.768L278.309 698.061ZM403.149 621.831L404.191 623.538L407.077 621.776L404.143 620.095L403.149 621.831ZM273.89 547.811L274.884 546.075L273.872 545.496L272.87 546.09L273.89 547.811ZM340.176 660.283L339.134 658.576L340.176 660.283ZM165.621 612.005L166.641 613.725L165.621 612.005ZM247.375 563.532L248.395 565.252L247.375 563.532ZM50.7243 643.922L51.7235 642.189L50.7243 643.922ZM50.004 677.085L49.0231 678.828H49.0231L50.004 677.085ZM288.252 780.919L287.253 782.652L288.234 783.217L289.224 782.667L288.252 780.919ZM477.22 698.061L476.244 696.315L477.22 698.061ZM312.557 790.136L311.581 788.391L312.557 790.136ZM72.8198 771.955L71.8244 773.69H71.8244L72.8198 771.955ZM177.774 748.99L178.755 747.247L177.774 748.99ZM247.375 872.126L246.379 873.861H246.379L247.375 872.126ZM210.951 767.662L211.932 765.919L210.951 767.662ZM254.004 791.89L254.984 790.147L254.004 791.89ZM83.8676 696.143L84.8485 694.4H84.8485L83.8676 696.143ZM80.5533 730.718L81.4991 732.48H81.4991L80.5533 730.718ZM97.125 703.604L98.1059 701.861L97.125 703.604ZM394.889 744.098L393.913 742.353L394.889 744.098ZM444.026 716.622L443.05 714.877V714.877L444.026 716.622ZM368.901 758.63L367.925 756.885L368.901 758.63ZM322.5 865.837L320.781 864.815L322.5 865.837ZM465.016 783.312L465.993 781.566L465.016 783.312ZM259.52 764.347L260.519 762.615L259.52 764.347ZM259.52 794.995L258.539 796.737L259.52 794.995ZM473.398 700.198L472.422 698.452L473.398 700.198ZM373.168 574.776L346.653 560.414L344.748 563.931L371.262 578.293L373.168 574.776ZM395.693 563.666L371.387 574.714L373.043 578.356L397.348 567.308L395.693 563.666ZM420.262 596.39L398.167 564.352L394.874 566.623L416.969 598.661L420.262 596.39ZM436.777 600.005L419.101 595.585L418.131 599.466L435.807 603.885L436.777 600.005ZM443.033 595.789L435.3 600.208L437.284 603.681L445.018 599.262L443.033 595.789ZM427.139 574.281L442.33 598.586L445.722 596.466L430.531 572.161L427.139 574.281ZM525.745 632.294L429.906 571.531L427.764 574.91L523.604 635.673L525.745 632.294ZM526.674 649.45V633.983H522.674V649.45H526.674ZM515.267 656.97L525.646 651.198L523.703 647.702L513.323 653.474L515.267 656.97ZM516.731 677.045L516.295 655.182L512.296 655.262L512.732 677.125L516.731 677.045ZM511.288 681.302L515.708 678.831L513.755 675.34L509.336 677.811L511.288 681.302ZM512.312 814.062V679.556H508.312V814.062H512.312ZM478.331 837.821L511.423 815.726L509.202 812.399L476.11 834.495L478.331 837.821ZM473.398 838.158H477.22V834.158H473.398V838.158ZM471.398 809.69V836.158H475.398V809.69H471.398ZM313.574 906.377L474.415 811.413L472.381 807.968L311.54 902.932L313.574 906.377ZM314.557 932.274V904.654H310.557V932.274H314.557ZM282.661 952.765L313.595 933.983L311.519 930.564L280.585 949.345L282.661 952.765ZM253.138 939.601L280.758 952.858L282.489 949.252L254.869 935.995L253.138 939.601ZM252.004 907.969V937.798H256.004V907.969H252.004ZM66.3159 804.758L253.024 909.712L254.984 906.225L68.276 801.271L66.3159 804.758ZM69.2959 814.062V803.015H65.2959V814.062H69.2959ZM60.9767 823.21L68.7102 815.477L65.8817 812.648L58.1483 820.382L60.9767 823.21ZM28.6678 804.707L58.4969 823.488L60.6281 820.103L30.7991 801.322L28.6678 804.707ZM27.7335 665.678V803.015H31.7335V665.678H27.7335ZM25.4382 665.555L28.7526 667.421L30.7143 663.935L27.4 662.07L25.4382 665.555ZM24.4191 629.904V663.812H28.4191V629.904H24.4191ZM21.0008 629.087L25.4199 631.636L27.4184 628.171L22.9992 625.622L21.0008 629.087ZM20 612.993V627.355H24V612.993H20ZM58.5598 589.497L20.9973 611.262L23.0027 614.723L60.5652 592.958L58.5598 589.497ZM96.1223 567.732L58.5598 589.497L60.5652 592.958L98.1277 571.193L96.1223 567.732ZM135.894 544.686L96.1223 567.732L98.1277 571.193L137.9 548.147L135.894 544.686ZM176.771 521.001L135.894 544.686L137.9 548.147L178.777 524.462L176.771 521.001ZM217.648 497.315L176.771 521.001L178.777 524.462L219.653 500.776L217.648 497.315ZM257.42 474.27L217.648 497.315L219.653 500.776L259.425 477.73L257.42 474.27ZM333.423 515.87L259.403 474.257L257.443 477.743L331.463 519.357L333.423 515.87ZM309.281 536.194L333.587 519.254L331.299 515.973L306.994 532.912L309.281 536.194ZM323.448 540.526L309.086 532.792L307.19 536.314L321.552 544.048L323.448 540.526ZM343.449 525.181L321.353 540.648L323.647 543.925L345.742 528.458L343.449 525.181ZM347.699 562.11L346.595 526.757L342.596 526.882L343.701 562.235L347.699 562.11ZM154.521 623.72L275.021 552.22L272.979 548.78L152.479 620.28L154.521 623.72ZM279.022 694.281L154.522 620.281L152.478 623.719L276.978 697.719L279.022 694.281ZM398.46 620.292L276.96 694.292L279.04 697.708L400.54 623.708L398.46 620.292ZM273.01 552.238L398.51 623.738L400.49 620.262L274.99 548.762L273.01 552.238ZM67.5 691V698H71.5V691H67.5ZM73.7878 690.662L70.2878 689.162L68.7122 692.838L72.2122 694.338L73.7878 690.662ZM71.1873 699.074L74.6873 693.574L71.3127 691.426L67.8127 696.926L71.1873 699.074ZM442.029 718.252L428.529 725.752L430.471 729.248L443.971 721.748L442.029 718.252ZM456.254 740.039L444.754 719.039L441.246 720.961L452.746 741.961L456.254 740.039ZM428.55 729.26L453.55 742.76L455.45 739.24L430.45 725.74L428.55 729.26ZM328.997 861.734L461.997 785.234L460.003 781.766L327.003 858.266L328.997 861.734ZM394.286 745.969L326.286 858.969L329.714 861.031L397.714 748.031L394.286 745.969ZM461.979 781.756L396.979 745.256L395.021 748.744L460.021 785.244L461.979 781.756ZM346.284 771.973L312.784 827.973L316.216 830.027L349.716 774.027L346.284 771.973ZM315.487 793.74L348.987 774.74L347.013 771.26L313.513 790.26L315.487 793.74ZM316.5 829V792H312.5V829H316.5ZM243.243 865.019L178.243 749.519L174.757 751.481L239.757 866.981L243.243 865.019ZM76.0077 773.736L240.508 867.736L242.492 864.264L77.9923 770.264L76.0077 773.736ZM142.469 730.286L75.9691 770.286L78.0309 773.714L144.531 733.714L142.469 730.286ZM177.478 748.755L144.478 730.255L142.522 733.745L175.522 752.245L177.478 748.755ZM252.99 791.762L216.99 771.262L215.01 774.738L251.01 795.238L252.99 791.762ZM254 834.5V793.5H250V834.5H254ZM214.274 774.01L250.274 835.51L253.726 833.49L217.726 771.99L214.274 774.01ZM88.1779 726.088L100.178 707.588L96.8221 705.412L84.8221 723.912L88.1779 726.088ZM108.575 711.227L85.5749 723.227L87.4251 726.773L110.425 714.773L108.575 711.227ZM97.4825 708.222L108.483 714.722L110.517 711.278L99.5175 704.778L97.4825 708.222ZM289.24 762.609L22.9884 611.254L21.0116 614.731L287.263 766.086L289.24 762.609ZM523.772 632.199L481.79 653.437L483.596 657.007L525.577 635.768L523.772 632.199ZM217.632 500.767L481.675 656.943L483.711 653.501L219.669 497.324L217.632 500.767ZM148.034 623.554L277.293 699.783L279.325 696.338L150.066 620.108L148.034 623.554ZM404.143 620.095L274.884 546.075L272.896 549.546L402.155 623.566L404.143 620.095ZM376.572 640.403L404.191 623.538L402.107 620.124L374.487 636.989L376.572 640.403ZM481.769 653.448L439.787 675.311L441.635 678.859L483.617 656.996L481.769 653.448ZM374.514 640.419L439.696 678.809L441.726 675.362L376.544 636.973L374.514 640.419ZM341.219 661.99L376.572 640.403L374.487 636.989L339.134 658.576L341.219 661.99ZM439.736 675.339L402.174 696.314L404.124 699.807L441.686 678.832L439.736 675.339ZM339.148 661.998L402.12 699.776L404.178 696.346L341.205 658.568L339.148 661.998ZM279.351 699.768L299.253 687.615L297.168 684.201L277.266 696.354L279.351 699.768ZM299.253 687.615L341.219 661.99L339.134 658.576L297.168 684.201L299.253 687.615ZM402.166 696.319L359.08 720.624L361.045 724.108L404.131 699.803L402.166 696.319ZM297.195 687.631L359.047 724.089L361.078 720.643L299.226 684.185L297.195 687.631ZM164.601 610.285L148.03 620.111L150.07 623.551L166.641 613.725L164.601 610.285ZM96.0697 571.161L164.566 613.704L166.677 610.306L98.1802 567.763L96.0697 571.161ZM205.478 586.048L164.601 610.285L166.641 613.725L207.518 589.489L205.478 586.048ZM135.875 548.136L205.477 589.488L207.52 586.049L137.919 544.697L135.875 548.136ZM272.87 546.09L246.355 561.811L248.395 565.252L274.91 549.531L272.87 546.09ZM246.355 561.811L205.478 586.048L207.518 589.489L248.395 565.252L246.355 561.811ZM176.762 524.457L246.363 565.257L248.386 561.806L178.785 521.006L176.762 524.457ZM359.061 720.635L321.498 742.367L323.501 745.83L361.064 724.097L359.061 720.635ZM321.482 742.377L287.234 762.626L289.27 766.069L323.518 745.82L321.482 742.377ZM58.5572 592.956L321.495 745.827L323.505 742.369L60.5677 589.498L58.5572 592.956ZM51.7235 642.189L27.4184 628.171L25.4199 631.636L49.725 645.654L51.7235 642.189ZM48.7247 643.878L48.0044 677.042L52.0035 677.129L52.7238 643.965L48.7247 643.878ZM289.251 779.187L282.622 775.363L280.624 778.828L287.253 782.652L289.251 779.187ZM279.623 777.096V807.434H283.623V777.096H279.623ZM513.323 653.474L307.166 768.113L309.11 771.609L515.267 656.97L513.323 653.474ZM307.166 768.113L287.28 779.171L289.224 782.667L309.11 771.609L307.166 768.113ZM282.599 809.179L309.114 794.353L307.162 790.862L280.647 805.688L282.599 809.179ZM306.138 769.861V792.607H310.138V769.861H306.138ZM478.196 699.806L511.288 681.302L509.336 677.811L476.244 696.315L478.196 699.806ZM28.7526 667.421L49.0231 678.828L50.9848 675.342L30.7143 663.935L28.7526 667.421ZM49.0231 678.828L58.5816 684.208L60.5434 680.722L50.9848 675.342L49.0231 678.828ZM61.5625 821.796V796.386H57.5625V821.796H61.5625ZM68.5975 801.496L60.8641 794.867L58.2609 797.904L65.9944 804.533L68.5975 801.496ZM283.623 951.055V807.434H279.623V951.055H283.623ZM309.114 794.353L313.533 791.882L311.581 788.391L307.162 790.862L309.114 794.353ZM61.5625 796.386V774.29H57.5625V796.386H61.5625ZM252.004 886.978V907.969H256.004V886.978H252.004ZM58.5596 776.021L253.001 888.708L255.006 885.247L60.5653 772.56L58.5596 776.021ZM252.004 875.93V886.978H256.004V875.93H252.004ZM61.5625 774.29V764.347H57.5625V774.29H61.5625ZM61.5625 764.347V682.465H57.5625V764.347H61.5625ZM68.2914 767.051L60.5579 762.613L58.567 766.082L66.3005 770.52L68.2914 767.051ZM58.5816 684.208L66.3151 688.56L68.2768 685.074L60.5434 680.722L58.5816 684.208ZM73.8153 770.221L68.2914 767.051L66.3005 770.52L71.8244 773.69L73.8153 770.221ZM73.8455 773.672L144.551 731.434L142.5 728L71.7942 770.238L73.8455 773.672ZM142.545 731.46L176.793 750.733L178.755 747.247L144.507 727.974L142.545 731.46ZM254.999 874.195L248.37 870.391L246.379 873.861L253.008 877.665L254.999 874.195ZM248.37 870.391L73.8153 770.221L71.8244 773.69L246.379 873.861L248.37 870.391ZM176.033 749.975L245.634 873.11L249.116 871.142L179.515 748.006L176.033 749.975ZM176.793 750.733L209.97 769.405L211.932 765.919L178.755 747.247L176.793 750.733ZM209.97 769.405L253.023 793.633L254.984 790.147L211.932 765.919L209.97 769.405ZM252.004 791.89V842.787H256.004V791.89H252.004ZM252.004 842.787V875.93H256.004V842.787H252.004ZM209.216 768.656L252.268 843.781L255.739 841.792L212.687 766.667L209.216 768.656ZM69.2959 768.785V737.833H65.2959V768.785H69.2959ZM112.716 714.673L142.545 731.46L144.507 727.974L114.678 711.187L112.716 714.673ZM69.2959 737.833V725.184H65.2959V737.833H69.2959ZM82.1305 695.152L65.5588 724.193L69.033 726.176L85.6047 697.134L82.1305 695.152ZM66.3151 688.56L74.6009 693.223L76.5627 689.737L68.2768 685.074L66.3151 688.56ZM74.6009 693.223L82.8868 697.886L84.8485 694.4L76.5627 689.737L74.6009 693.223ZM69.2959 725.184V706.001H65.2959V725.184H69.2959ZM69.2959 706.001V686.817H65.2959V706.001H69.2959ZM73.8447 690.489L65.5588 705.009L69.033 706.992L77.3189 692.471L73.8447 690.489ZM68.2417 739.595L81.4991 732.48L79.6075 728.955L66.3502 736.07L68.2417 739.595ZM81.4991 732.48L114.642 714.692L112.751 711.167L79.6075 728.955L81.4991 732.48ZM82.8867 697.886L96.1441 705.347L98.1059 701.861L84.8485 694.4L82.8867 697.886ZM96.1441 705.347L112.716 714.673L114.678 711.187L98.1059 701.861L96.1441 705.347ZM82.2598 731.761L98.8315 704.647L95.4185 702.561L78.8468 729.675L82.2598 731.761ZM313.536 884.303L478.199 791.88L476.241 788.392L311.578 880.815L313.536 884.303ZM314.557 904.654V882.559H310.557V904.654H314.557ZM475.22 790.136V807.434H479.22V790.136H475.22ZM475.22 807.434V836.158H479.22V807.434H475.22ZM395.865 745.844L426.22 728.87L424.268 725.379L393.913 742.353L395.865 745.844ZM475.22 756.614V790.136H479.22V756.614H475.22ZM426.22 728.87L445.002 718.368L443.05 714.877L424.268 725.379L426.22 728.87ZM424.257 728.864L458.272 748.163L460.246 744.684L426.231 725.385L424.257 728.864ZM458.272 748.163L476.233 758.353L478.207 754.874L460.246 744.684L458.272 748.163ZM442.245 717.533L457.478 747.333L461.04 745.513L445.806 715.712L442.245 717.533ZM445.002 718.368L461.599 709.087L459.647 705.596L443.05 714.877L445.002 718.368ZM475.22 698.061V744.098H479.22V698.061H475.22ZM475.22 744.098V756.614H479.22V744.098H475.22ZM313.533 791.882L354.699 768.863L352.747 765.372L311.581 788.391L313.533 791.882ZM314.557 836.347V790.136H310.557V836.347H314.557ZM352.004 766.095L310.838 835.325L314.276 837.37L355.442 768.14L352.004 766.095ZM354.699 768.863L369.877 760.376L367.925 756.885L352.747 765.372L354.699 768.863ZM369.877 760.376L395.865 745.844L393.913 742.353L367.925 756.885L369.877 760.376ZM314.557 882.559V852.73H310.557V882.559H314.557ZM314.557 852.73V836.347H310.557V852.73H314.557ZM367.185 757.603L310.841 851.702L314.273 853.757L370.617 759.658L367.185 757.603ZM314.276 883.581L324.219 866.859L320.781 864.815L310.838 881.537L314.276 883.581ZM324.219 866.859L396.608 745.121L393.17 743.076L320.781 864.815L324.219 866.859ZM393.913 745.844L464.04 785.058L465.993 781.566L395.865 742.353L393.913 745.844ZM464.04 785.058L476.244 791.882L478.196 788.391L465.993 781.566L464.04 785.058ZM323.502 867.568L466.019 785.043L464.014 781.581L321.498 864.106L323.502 867.568ZM282.622 775.363L260.519 762.615L258.52 766.08L280.624 778.828L282.622 775.363ZM260.519 762.615L51.7235 642.189L49.725 645.654L258.52 766.08L260.519 762.615ZM253.023 793.633L258.539 796.737L260.5 793.252L254.984 790.147L253.023 793.633ZM258.539 796.737L280.642 809.177L282.604 805.691L260.5 793.252L258.539 796.737ZM257.52 764.347V794.995H261.52V764.347H257.52ZM461.599 709.087L474.374 701.943L472.422 698.452L459.647 705.596L461.599 709.087ZM474.374 701.943L478.196 699.806L476.244 696.315L472.422 698.452L474.374 701.943ZM458.8 708.165L471.575 736.457L475.221 734.811L462.446 706.518L458.8 708.165ZM471.575 736.457L475.398 744.921L479.043 743.275L475.221 734.811L471.575 736.457ZM471.398 700.198V735.634H475.398V700.198H471.398ZM474.415 811.413L478.237 809.156L476.203 805.712L472.381 807.968L474.415 811.413Z" fill="white"/>
</g>
<g filter="url(#filter1_d_46_12)">
<path d="M372.215 576.494L345.7 562.132L344.595 526.779L322.5 542.246L308.138 534.513L332.443 517.573L344.595 509.103V133.478L335.757 129.059L304.823 148.275L302.614 158.888L293.776 165.517V259.423L302.614 263.842V274.337V284.833L300.404 288.147L298.195 291.461C314.766 295.88 324.709 366.586 293.776 366.586C280.518 366.586 263.947 357.748 260.632 326.814C258.265 304.719 273.89 293.671 280.518 291.461L276.099 288.147V281.518V267.156V263.842L280.518 259.423V163.374L259.528 175.46L233.013 158.888V133.478L256.499 119.428L252.899 116.906L261.185 111.382L268.642 106.411L276.099 101.439L280.518 105.059L346.805 66.0864V51.7243L372.215 35.1526L386.025 44.5432L425.244 23L447.34 37.3621V67.1912L417.511 83.73L396.52 121.325V521.476L428.835 573.18L444.026 597.485L436.292 601.904L418.616 597.485L396.52 565.447L372.215 576.494Z" fill="#FF00D9"/>
<path d="M345.7 562.132L343.701 562.195L343.737 563.343L344.748 563.891L345.7 562.132ZM372.215 576.494L371.262 578.253L372.137 578.727L373.043 578.315L372.215 576.494ZM379.948 538.932H377.948V539.505L378.252 539.992L379.948 538.932ZM379.948 513.522L379.054 511.733L377.948 512.286V513.522H379.948ZM388.787 509.103L390.483 508.043L389.519 506.501L387.892 507.314L388.787 509.103ZM444.026 597.485L445.018 599.222L446.824 598.189L445.722 596.425L444.026 597.485ZM436.292 601.904L435.807 603.845L436.587 604.039L437.284 603.641L436.292 601.904ZM418.616 597.485L416.969 598.621L417.398 599.242L418.131 599.425L418.616 597.485ZM335.757 129.059L334.787 127.31L334.744 127.334L334.702 127.36L335.757 129.059ZM259.528 175.46L258.468 177.156L259.485 177.792L260.525 177.193L259.528 175.46ZM233.013 158.888H231.013V159.996L231.953 160.584L233.013 158.888ZM233.013 133.478L231.986 131.762L231.013 132.344V133.478H233.013ZM447.34 37.3621H449.34V36.2768L448.43 35.6852L447.34 37.3621ZM447.34 67.1912L448.31 68.9403L449.34 68.3691V67.1912H447.34ZM396.52 95.3685L395.55 93.6194L395.55 93.6194L396.52 95.3685ZM346.805 51.7243L345.713 50.049L344.805 50.6409V51.7243H346.805ZM372.215 81.8973L373.235 83.6177L373.235 83.6177L372.215 81.8973ZM372.215 35.1526L373.34 33.4987L372.238 32.7497L371.122 33.4773L372.215 35.1526ZM396.52 51.7243L398.519 51.6594L398.486 50.6461L397.649 50.0736L396.52 51.7243ZM425.244 23L426.334 21.3231L425.331 20.6707L424.281 21.247L425.244 23ZM396.52 521.476L394.824 522.536L394.824 522.536L396.52 521.476ZM308.138 534.513L306.994 532.872L304.326 534.732L307.19 536.274L308.138 534.513ZM322.5 542.246L321.552 544.007L322.637 544.591L323.647 543.885L322.5 542.246ZM428.835 573.18L430.531 572.12L430.531 572.12L428.835 573.18ZM332.443 517.573L331.299 515.932L331.299 515.932L332.443 517.573ZM276.099 263.842L274.685 262.428L274.099 263.013V263.842H276.099ZM276.099 288.147H274.099V289.147L274.899 289.747L276.099 288.147ZM302.614 263.842H304.614V262.606L303.508 262.053L302.614 263.842ZM260.632 326.814L262.621 326.601L260.632 326.814ZM282.728 348.91L281.456 350.453L281.456 350.453L282.728 348.91ZM280.518 136.256H282.518V135.216L281.666 134.618L280.518 136.256ZM252.899 116.906L251.789 115.242L249.355 116.865L251.751 118.544L252.899 116.906ZM276.099 101.439L277.367 99.8921L276.221 98.9541L274.99 99.7752L276.099 101.439ZM280.518 105.059L279.251 106.606L279.251 106.606L280.518 105.059ZM302.614 158.888L303.814 160.488L304.418 160.035L304.572 159.295L302.614 158.888ZM293.776 165.517L292.576 163.917L291.776 164.517V165.517H293.776ZM261.185 111.382L260.075 109.718L260.075 109.718L261.185 111.382ZM287.147 131.268L289.139 131.087L289.059 130.214L288.363 129.681L287.147 131.268ZM286.26 143.602C286.36 144.702 287.333 145.513 288.433 145.413C289.533 145.313 290.344 144.34 290.244 143.24L286.26 143.602ZM294.88 127.954L296.879 127.867L296.84 126.975L296.15 126.408L294.88 127.954ZM293.987 153.451C294.035 154.554 294.969 155.41 296.072 155.362C297.176 155.314 298.031 154.381 297.983 153.277L293.987 153.451ZM293.776 269.156C294.88 269.156 295.776 268.261 295.776 267.156C295.776 266.052 294.88 265.156 293.776 265.156V269.156ZM302.614 284.833L304.278 285.942L304.614 285.438V284.833H302.614ZM286.042 272.337C284.938 272.337 284.042 273.233 284.042 274.337C284.042 275.442 284.938 276.337 286.042 276.337V272.337ZM289.357 283.518C290.461 283.518 291.357 282.623 291.357 281.518C291.357 280.414 290.461 279.518 289.357 279.518V283.518ZM344.748 563.891L371.262 578.253L373.168 574.736L346.653 560.374L344.748 563.891ZM373.043 578.315L397.348 567.267L395.693 563.626L371.387 574.674L373.043 578.315ZM398.216 564.387L381.644 537.872L378.252 539.992L394.824 566.507L398.216 564.387ZM381.948 538.932V513.522H377.948V538.932H381.948ZM380.843 515.311L389.681 510.892L387.892 507.314L379.054 511.733L380.843 515.311ZM443.033 595.749L435.3 600.168L437.284 603.641L445.018 599.222L443.033 595.749ZM437.979 600.829L381.635 512.447L378.262 514.597L434.606 602.979L437.979 600.829ZM436.777 599.964L419.101 595.545L418.131 599.425L435.807 603.845L436.777 599.964ZM420.262 596.35L398.167 564.311L394.874 566.582L416.969 598.621L420.262 596.35ZM345.49 131.689L336.652 127.27L334.863 130.848L343.701 135.267L345.49 131.689ZM260.588 173.764L234.073 157.192L231.953 160.584L258.468 177.156L260.588 173.764ZM235.013 158.888V133.478H231.013V158.888H235.013ZM232.038 135.224L258.553 150.022L260.502 146.529L233.987 131.731L232.038 135.224ZM257.528 148.275V175.46H261.528V148.275H257.528ZM445.34 37.3621V67.1912H449.34V37.3621H445.34ZM446.37 65.442L416.541 81.9809L418.481 85.4792L448.31 68.9403L446.37 65.442ZM415.765 82.755L394.774 120.35L398.266 122.3L419.257 84.705L415.765 82.755ZM416.541 81.9809L395.55 93.6194L397.49 97.1176L418.481 85.4792L416.541 81.9809ZM398.52 121.325V95.3685H394.52V121.325H398.52ZM348.805 66.0864V51.7243H344.805V66.0864H348.805ZM345.765 53.4327L371.175 68.8996L373.255 65.4828L347.845 50.0159L345.765 53.4327ZM370.215 67.1912V81.8973H374.215V67.1912H370.215ZM345.748 67.7845L371.158 83.5954L373.272 80.1992L347.862 64.3883L345.748 67.7845ZM347.898 53.3995L373.308 36.8278L371.122 33.4773L345.713 50.049L347.898 53.3995ZM395.446 50.0369L371.141 65.5038L373.289 68.8785L397.594 53.4116L395.446 50.0369ZM373.235 83.6177L398.042 68.9116L396.002 65.4708L371.195 80.1769L373.235 83.6177ZM398.042 68.9116L448.36 39.0825L446.32 35.6417L396.002 65.4708L398.042 68.9116ZM394.521 51.7892L395.023 67.2561L399.021 67.1263L398.519 51.6594L394.521 51.7892ZM371.09 36.8064L384.9 46.197L387.149 42.8893L373.34 33.4987L371.09 36.8064ZM384.895 46.1938L395.391 53.3749L397.649 50.0736L387.154 42.8926L384.895 46.1938ZM386.988 46.2961L426.207 24.753L424.281 21.247L385.062 42.7902L386.988 46.2961ZM424.154 24.6769L446.25 39.039L448.43 35.6852L426.334 21.3231L424.154 24.6769ZM343.73 135.281L371.35 148.538L373.08 144.932L345.461 131.675L343.73 135.281ZM395.55 93.6194L371.245 107.095L373.185 110.594L397.49 97.1176L395.55 93.6194ZM371.245 107.095L334.787 127.31L336.727 130.808L373.185 110.594L371.245 107.095ZM374.215 146.735V108.845H370.215V146.735H374.215ZM370.215 146.735V576.494H374.215V146.735H370.215ZM387.091 510.163L394.824 522.536L398.216 520.416L390.483 508.043L387.091 510.163ZM394.52 121.325V521.476H398.52V121.325H394.52ZM346.595 509.103V133.478H342.595V509.103H346.595ZM307.19 536.274L321.552 544.007L323.448 540.485L309.086 532.752L307.19 536.274ZM347.699 562.07L346.595 526.717L342.596 526.842L343.701 562.195L347.699 562.07ZM346.595 526.779V509.103H342.595V526.779H346.595ZM323.647 543.885L345.742 528.418L343.449 525.141L321.353 540.608L323.647 543.885ZM394.824 522.536L427.139 574.24L430.531 572.12L398.216 520.416L394.824 522.536ZM427.139 574.24L442.33 598.545L445.722 596.425L430.531 572.12L427.139 574.24ZM343.452 507.462L331.299 515.932L333.587 519.214L345.739 510.744L343.452 507.462ZM331.299 515.932L306.994 532.872L309.281 536.154L333.587 519.214L331.299 515.932ZM293.776 257.423H280.518V261.423H293.776V257.423ZM279.104 258.009L274.685 262.428L277.513 265.256L281.933 260.837L279.104 258.009ZM274.899 289.747L279.318 293.061L281.718 289.861L277.299 286.547L274.899 289.747ZM280.518 293.461H298.195V289.461H280.518V293.461ZM303.508 262.053L294.67 257.634L292.881 261.212L301.719 265.631L303.508 262.053ZM297.679 293.394C299.147 293.785 300.776 294.988 302.441 297.171C304.087 299.328 305.632 302.267 306.978 305.78C309.67 312.801 311.463 321.834 311.801 330.757C312.14 339.708 311.006 348.323 308.038 354.616C305.115 360.813 300.537 364.586 293.776 364.586V368.586C302.481 368.586 308.26 363.522 311.656 356.323C315.006 349.22 316.15 339.883 315.798 330.605C315.446 321.299 313.58 311.827 310.713 304.348C309.28 300.611 307.571 297.3 305.622 294.745C303.692 292.216 301.386 290.242 298.71 289.529L297.679 293.394ZM293.776 364.586C287.594 364.586 280.663 362.531 274.874 356.87C269.078 351.203 264.243 341.743 262.621 326.601L258.644 327.027C260.336 342.82 265.444 353.245 272.077 359.73C278.716 366.222 286.7 368.586 293.776 368.586V364.586ZM262.621 326.601C260.382 305.705 275.134 295.364 281.151 293.359L279.886 289.564C272.645 291.978 256.148 303.732 258.644 327.027L262.621 326.601ZM289.357 297.195C285.244 297.195 281.328 299.643 278.21 303.136C275.054 306.671 272.484 311.512 271.067 316.891C268.227 327.671 269.957 340.976 281.456 350.453L284 347.367C273.978 339.106 272.394 327.554 274.935 317.91C276.208 313.077 278.501 308.816 281.194 305.8C283.923 302.743 286.84 301.195 289.357 301.195V297.195ZM281.456 350.453C285.109 353.464 288.52 354.988 291.675 355.011C294.92 355.034 297.505 353.471 299.417 351.159C303.1 346.703 304.614 339.122 304.614 332.338H300.614C300.614 338.811 299.123 345.236 296.334 348.611C295.008 350.214 293.489 351.024 291.704 351.011C289.83 350.997 287.286 350.075 284 347.367L281.456 350.453ZM304.614 332.338C304.614 325.644 304.061 317.135 302.048 310.235C301.043 306.79 299.631 303.588 297.613 301.214C295.548 298.784 292.813 297.195 289.357 297.195V301.195C291.424 301.195 293.109 302.091 294.565 303.804C296.068 305.573 297.28 308.171 298.208 311.355C300.062 317.712 300.614 325.775 300.614 332.338H304.614ZM279.52 161.641L258.53 173.726L260.525 177.193L281.516 165.107L279.52 161.641ZM282.518 259.423V163.374H278.518V259.423H282.518ZM260.521 150.011L281.512 137.992L279.525 134.521L258.534 146.54L260.521 150.011ZM278.518 136.256V163.374H282.518V136.256H278.518ZM281.666 134.618L257.646 117.79L255.351 121.066L279.371 137.894L281.666 134.618ZM257.646 117.79L254.046 115.268L251.751 118.544L255.351 121.066L257.646 117.79ZM274.832 102.987L279.251 106.606L281.786 103.512L277.367 99.8921L274.832 102.987ZM279.251 106.606L301.347 124.705L303.881 121.611L281.786 103.512L279.251 106.606ZM334.702 127.36L303.768 146.576L305.879 149.974L336.813 130.758L334.702 127.36ZM300.622 123.333L302.831 148.451L306.816 148.1L304.606 122.983L300.622 123.333ZM302.865 147.868L300.656 158.48L304.572 159.295L306.781 148.683L302.865 147.868ZM291.776 165.517V259.423H295.776V165.517H291.776ZM301.414 157.288L292.576 163.917L294.976 167.117L303.814 160.488L301.414 157.288ZM303.634 124.878L373.235 83.6177L371.195 80.1769L301.594 121.437L303.634 124.878ZM281.532 106.783L347.819 67.8105L345.791 64.3623L279.505 103.335L281.532 106.783ZM234.04 135.194L257.525 121.145L255.472 117.712L231.986 131.762L234.04 135.194ZM257.525 121.145L257.792 120.985L255.739 117.552L255.472 117.712L257.525 121.145ZM254.008 118.57L262.294 113.046L260.075 109.718L251.789 115.242L254.008 118.57ZM259.969 112.97L285.931 132.856L288.363 129.681L262.401 109.795L259.969 112.97ZM285.155 131.449L286.26 143.602L290.244 143.24L289.139 131.087L285.155 131.449ZM262.294 113.046L269.751 108.075L267.533 104.747L260.075 109.718L262.294 113.046ZM269.751 108.075L277.209 103.103L274.99 99.7752L267.533 104.747L269.751 108.075ZM267.373 107.957L293.611 129.5L296.15 126.408L269.911 104.865L267.373 107.957ZM292.882 128.041L293.987 153.451L297.983 153.277L296.879 127.867L292.882 128.041ZM274.099 263.842V267.156H278.099V263.842H274.099ZM276.099 269.156H293.776V265.156H276.099V269.156ZM304.614 284.833V274.337H300.614V284.833H304.614ZM304.614 274.337V263.842H300.614V274.337H304.614ZM302.614 272.337H286.042V276.337H302.614V272.337ZM274.099 267.156V281.518H278.099V267.156H274.099ZM274.099 281.518V288.147H278.099V281.518H274.099ZM276.099 283.518H289.357V279.518H276.099V283.518ZM299.859 292.571L302.068 289.256L298.74 287.038L296.531 290.352L299.859 292.571ZM302.068 289.256L304.278 285.942L300.95 283.723L298.74 287.038L302.068 289.256ZM300.404 286.147H276.099V290.147H300.404V286.147Z" fill="white"/>
</g>
<g filter="url(#filter2_d_46_12)">
<path d="M276.099 263.842L280.518 259.423V163.374V136.257L252.899 116.906L261.185 111.382L268.642 106.411L276.099 101.439L302.614 123.158L304.823 148.275L302.614 158.888L293.776 165.517V259.423L302.614 263.842V274.337V284.833L300.404 288.147L298.195 291.461C314.766 295.881 324.709 366.586 293.776 366.586C280.518 366.586 263.947 357.748 260.632 326.814C258.265 304.719 273.89 293.671 280.518 291.461L276.099 288.147V281.518V267.156V263.842Z" fill="#006FFF"/>
<path d="M293.776 259.423H280.518M293.776 259.423L302.614 263.842V274.337M293.776 259.423V165.517L302.614 158.888L304.823 148.275L302.614 123.158L276.099 101.439L268.642 106.411M280.518 259.423L276.099 263.842V267.156M280.518 259.423V163.374V136.257L252.899 116.906L261.185 111.382M276.099 288.147L280.518 291.461M276.099 288.147V281.518M276.099 288.147H300.404M280.518 291.461H298.195M280.518 291.461C273.89 293.671 258.265 304.719 260.632 326.814C263.947 357.748 280.518 366.586 293.776 366.586C324.709 366.586 314.766 295.881 298.195 291.461M298.195 291.461L300.404 288.147M261.185 111.382L287.147 131.268L288.252 143.421M261.185 111.382L268.642 106.411M268.642 106.411L294.88 127.954L295.985 153.364M276.099 267.156H293.776M276.099 267.156V281.518M302.614 274.337V284.833L300.404 288.147M302.614 274.337H286.042M276.099 281.518H289.357M289.357 299.195C276.099 299.195 261.208 331.172 282.728 348.91C296.606 360.349 302.614 345.596 302.614 332.338C302.614 319.081 300.404 299.195 289.357 299.195Z" stroke="white" stroke-width="4" stroke-linecap="round"/>
</g>
<defs>
<filter id="filter0_d_46_12" x="0" y="453.697" width="546.674" height="519.63" filterUnits="userSpaceOnUse" color-interpolation-filters="sRGB">
<feFlood flood-opacity="0" result="BackgroundImageFix"/>
<feColorMatrix in="SourceAlpha" type="matrix" values="0 0 0 0 0 0 0 0 0 0 0 0 0 0 0 0 0 0 127 0" result="hardAlpha"/>
<feOffset/>
<feGaussianBlur stdDeviation="10"/>
<feComposite in2="hardAlpha" operator="out"/>
<feColorMatrix type="matrix" values="0 0 0 0 0.766667 0 0 0 0 0 0 0 0 0 1 0 0 0 1 0"/>
<feBlend mode="normal" in2="BackgroundImageFix" result="effect1_dropShadow_46_12"/>
<feBlend mode="normal" in="SourceGraphic" in2="effect1_dropShadow_46_12" result="shape"/>
</filter>
<filter id="filter1_d_46_12" x="211.013" y="0.670776" width="258.327" height="623.369" filterUnits="userSpaceOnUse" color-interpolation-filters="sRGB">
<feFlood flood-opacity="0" result="BackgroundImageFix"/>
<feColorMatrix in="SourceAlpha" type="matrix" values="0 0 0 0 0 0 0 0 0 0 0 0 0 0 0 0 0 0 127 0" result="hardAlpha"/>
<feOffset/>
<feGaussianBlur stdDeviation="10"/>
<feComposite in2="hardAlpha" operator="out"/>
<feColorMatrix type="matrix" values="0 0 0 0 1 0 0 0 0 0 0 0 0 0 0.85 0 0 0 1 0"/>
<feBlend mode="normal" in2="BackgroundImageFix" result="effect1_dropShadow_46_12"/>
<feBlend mode="normal" in="SourceGraphic" in2="effect1_dropShadow_46_12" result="shape"/>
</filter>
<filter id="filter2_d_46_12" x="229.355" y="78.9542" width="106.504" height="309.632" filterUnits="userSpaceOnUse" color-interpolation-filters="sRGB">
<feFlood flood-opacity="0" result="BackgroundImageFix"/>
<feColorMatrix in="SourceAlpha" type="matrix" values="0 0 0 0 0 0 0 0 0 0 0 0 0 0 0 0 0 0 127 0" result="hardAlpha"/>
<feOffset/>
<feGaussianBlur stdDeviation="10"/>
<feComposite in2="hardAlpha" operator="out"/>
<feColorMatrix type="matrix" values="0 0 0 0 0 0 0 0 0 0.433333 0 0 0 0 1 0 0 0 1 0"/>
<feBlend mode="normal" in2="BackgroundImageFix" result="effect1_dropShadow_46_12"/>
<feBlend mode="normal" in="SourceGraphic" in2="effect1_dropShadow_46_12" result="shape"/>
</filter>
</defs>
</svg>
