<svg width="547" height="961" viewBox="0 0 547 961" fill="none" xmlns="http://www.w3.org/2000/svg">
<path d="M344.595 133.478L335.757 129.059L304.823 148.275L302.614 158.888L293.776 165.517V259.423L302.614 263.842V274.337V284.833L300.404 288.147L298.195 291.461C314.766 295.88 324.709 366.586 293.776 366.586C280.518 366.586 263.947 357.748 260.632 326.814C258.265 304.719 273.89 293.671 280.518 291.461L276.099 288.147V281.518V267.156V263.842L280.518 259.423V163.374L259.528 175.46L233.013 158.888V133.478L256.499 119.428L252.899 116.906L261.185 111.382L268.642 106.411L276.099 101.439L280.518 105.059L346.805 66.0864V51.7243L372.215 35.1526L386.025 44.5432L425.244 23L447.34 37.3621V67.1912L417.511 83.73L396.52 121.325V521.476L428.835 573.18L524.674 633.943V649.41L514.295 655.182L514.731 677.045L510.312 679.516V814.022L477.22 836.118H473.398V809.65L312.557 904.614V932.233L281.623 951.015L254.004 937.757V907.928L67.2959 802.974V814.022L59.5625 821.755L29.7335 802.974V665.637L26.4191 663.772V629.863L22 627.314V612.952L59.5625 591.187L97.125 569.422L136.897 546.376L177.774 522.691L218.651 499.005L258.423 475.96L332.443 517.573L344.595 509.103V133.478Z" fill="#FF00D9"/>
<path d="M345.7 562.132L343.701 562.195L343.737 563.343L344.748 563.891L345.7 562.132ZM372.215 576.494L371.262 578.253L372.137 578.727L373.043 578.315L372.215 576.494ZM379.948 538.932H377.948V539.505L378.252 539.992L379.948 538.932ZM379.948 513.522L379.054 511.733L377.948 512.286V513.522H379.948ZM388.787 509.103L390.483 508.043L389.519 506.501L387.892 507.314L388.787 509.103ZM444.026 597.485L445.018 599.222L446.824 598.19L445.722 596.425L444.026 597.485ZM436.292 601.904L435.807 603.845L436.587 604.039L437.284 603.641L436.292 601.904ZM418.616 597.485L416.969 598.621L417.398 599.242L418.131 599.426L418.616 597.485ZM335.757 129.059L334.787 127.31L334.744 127.334L334.702 127.36L335.757 129.059ZM259.528 175.46L258.468 177.156L259.485 177.792L260.525 177.193L259.528 175.46ZM233.013 158.888H231.013V159.996L231.953 160.584L233.013 158.888ZM233.013 133.478L231.986 131.762L231.013 132.344V133.478H233.013ZM447.34 37.3621H449.34V36.2768L448.43 35.6852L447.34 37.3621ZM447.34 67.1912L448.31 68.9403L449.34 68.3691V67.1912H447.34ZM396.52 95.3685L395.55 93.6194L396.52 95.3685ZM346.805 51.7243L345.713 50.049L344.805 50.6409V51.7243H346.805ZM372.215 81.8973L373.235 83.6177V83.6177L372.215 81.8973ZM372.215 35.1526L373.34 33.4987L372.238 32.7497L371.122 33.4774L372.215 35.1526ZM396.52 51.7243L398.519 51.6594L398.486 50.6461L397.649 50.0736L396.52 51.7243ZM425.244 23L426.334 21.3231L425.331 20.6707L424.281 21.247L425.244 23ZM396.52 521.476L394.824 522.536L396.52 521.476ZM308.138 534.513L306.994 532.872L304.326 534.732L307.19 536.274L308.138 534.513ZM322.5 542.246L321.552 544.007L322.637 544.592L323.647 543.885L322.5 542.246ZM524.674 633.943H526.674V632.843L525.745 632.254L524.674 633.943ZM288.252 764.307L287.263 766.046L288.271 766.619L289.27 766.029L288.252 764.307ZM22 612.952L20.9973 611.222L20 611.799V612.952H22ZM258.423 475.96L259.403 474.216L258.408 473.657L257.42 474.229L258.423 475.96ZM218.651 499.005L217.648 497.275L218.651 499.005ZM149.05 621.79L148.03 620.07L145.12 621.795L148.034 623.513L149.05 621.79ZM278.309 698.02L277.293 699.743L278.327 700.353L279.351 699.727L278.309 698.02ZM403.149 621.79L404.191 623.497L407.077 621.735L404.143 620.055L403.149 621.79ZM273.89 547.77L274.884 546.035L273.872 545.455L272.87 546.05L273.89 547.77ZM340.176 660.242L339.134 658.536L340.176 660.242ZM165.621 611.965L166.641 613.685L165.621 611.965ZM97.125 569.422L96.1223 567.691L97.125 569.422ZM177.774 522.691L176.771 520.96L177.774 522.691ZM247.375 563.491L248.395 565.212L247.375 563.491ZM524.674 649.41L525.646 651.158L526.674 650.586V649.41H524.674ZM22 627.314H20V628.47L21.0008 629.047L22 627.314ZM26.4191 629.863L27.4184 628.131H27.4183L26.4191 629.863ZM26.4191 663.772H24.4191V664.941L25.4383 665.515L26.4191 663.772ZM514.295 655.182L513.323 653.434L514.295 655.182ZM514.731 677.045L515.708 678.79L516.755 678.205L516.731 677.005L514.731 677.045ZM50.7243 643.881L51.7235 642.149L50.7243 643.881ZM288.252 780.879L287.253 782.611L288.234 783.177L289.224 782.626L288.252 780.879ZM308.138 792.567L309.114 794.312L308.138 792.567ZM477.22 836.118V838.118H477.827L478.331 837.781L477.22 836.118ZM510.312 814.022L511.423 815.685L512.312 815.091V814.022H510.312ZM477.22 698.02L476.244 696.275L477.22 698.02ZM29.7335 665.637L30.7143 663.894L30.7143 663.894L29.7335 665.637ZM29.7335 802.974H27.7335V804.078L28.6678 804.667L29.7335 802.974ZM59.5625 821.755L58.4969 823.448L59.8478 824.298L60.9767 823.17L59.5625 821.755ZM67.2959 814.022L68.7102 815.436L69.2959 814.85V814.022H67.2959ZM254.004 937.757H252.004V939.016L253.138 939.56L254.004 937.757ZM281.623 951.015L280.758 952.818L281.735 953.287L282.661 952.724L281.623 951.015ZM312.557 932.233L313.595 933.943L314.557 933.359V932.233H312.557ZM312.557 790.096L311.581 788.35L312.557 790.096ZM72.8198 771.915L71.8244 773.649H71.8244L72.8198 771.915ZM247.375 872.086L246.379 873.82H246.379L247.375 872.086ZM254.004 791.85L254.985 790.107H254.984L254.004 791.85ZM113.697 712.889L114.678 711.146L113.697 712.889ZM83.8676 696.102L84.8485 694.359L84.8485 694.359L83.8676 696.102ZM80.5533 730.677L81.4991 732.439H81.4991L80.5533 730.677ZM394.889 744.058L393.913 742.312L394.889 744.058ZM444.026 716.582L443.05 714.836L444.026 716.582ZM368.901 758.59L367.925 756.844L368.901 758.59ZM465.016 783.272L465.993 781.526L465.016 783.272ZM259.52 764.307L260.519 762.574L259.52 764.307ZM259.52 794.954L258.539 796.697H258.539L259.52 794.954ZM473.398 836.118H471.398V838.118H473.398V836.118ZM276.099 263.842L274.685 262.428L274.099 263.013V263.842H276.099ZM276.099 288.147H274.099V289.147L274.899 289.747L276.099 288.147ZM302.614 263.842H304.614V262.606L303.508 262.053L302.614 263.842ZM260.632 326.814L262.621 326.601L260.632 326.814ZM282.728 348.91L281.456 350.453V350.453L282.728 348.91ZM280.518 136.256H282.518V135.216L281.666 134.618L280.518 136.256ZM252.899 116.906L251.789 115.242L249.355 116.865L251.751 118.544L252.899 116.906ZM276.099 101.439L277.367 99.8921L276.221 98.9541L274.99 99.7752L276.099 101.439ZM280.518 105.059L279.251 106.606L280.518 105.059ZM302.614 158.888L303.814 160.488L304.418 160.035L304.572 159.296L302.614 158.888ZM293.776 165.517L292.576 163.917L291.776 164.517V165.517H293.776ZM261.185 111.382L260.075 109.718L261.185 111.382ZM287.147 131.268L289.139 131.087L289.059 130.214L288.363 129.681L287.147 131.268ZM286.26 143.602C286.36 144.702 287.333 145.513 288.433 145.413C289.533 145.313 290.344 144.34 290.244 143.24L286.26 143.602ZM294.88 127.954L296.879 127.867L296.84 126.975L296.15 126.408L294.88 127.954ZM293.987 153.451C294.035 154.554 294.969 155.41 296.072 155.362C297.176 155.314 298.031 154.381 297.983 153.277L293.987 153.451ZM293.776 269.156C294.88 269.156 295.776 268.261 295.776 267.156C295.776 266.052 294.88 265.156 293.776 265.156V269.156ZM302.614 284.833L304.278 285.942L304.614 285.438V284.833H302.614ZM286.042 272.337C284.938 272.337 284.042 273.233 284.042 274.337C284.042 275.442 284.938 276.337 286.042 276.337V272.337ZM289.357 283.518C290.461 283.518 291.357 282.623 291.357 281.518C291.357 280.414 290.461 279.518 289.357 279.518V283.518ZM344.748 563.891L371.262 578.253L373.168 574.736L346.653 560.374L344.748 563.891ZM373.043 578.315L397.348 567.267L395.693 563.626L371.387 574.674L373.043 578.315ZM398.216 564.387L381.644 537.872L378.252 539.992L394.824 566.507L398.216 564.387ZM381.948 538.932V513.522H377.948V538.932H381.948ZM380.843 515.311L389.681 510.892L387.892 507.314L379.054 511.733L380.843 515.311ZM443.033 595.749L435.3 600.168L437.284 603.641L445.018 599.222L443.033 595.749ZM437.979 600.829L381.635 512.447L378.262 514.597L434.606 602.979L437.979 600.829ZM436.777 599.964L419.101 595.545L418.131 599.426L435.807 603.845L436.777 599.964ZM420.262 596.35L398.167 564.311L394.874 566.582L416.969 598.621L420.262 596.35ZM345.49 131.689L336.652 127.27L334.863 130.848L343.701 135.267L345.49 131.689ZM260.588 173.764L234.073 157.192L231.953 160.584L258.468 177.156L260.588 173.764ZM235.013 158.888V133.478H231.013V158.888H235.013ZM232.038 135.224L258.553 150.022L260.502 146.529L233.987 131.731L232.038 135.224ZM257.528 148.275V175.46H261.528V148.275H257.528ZM445.34 37.3621V67.1912H449.34V37.3621H445.34ZM446.37 65.442L416.541 81.9809L418.481 85.4792L448.31 68.9403L446.37 65.442ZM415.765 82.7551L394.774 120.35L398.266 122.3L419.257 84.705L415.765 82.7551ZM416.541 81.9809L395.55 93.6194L397.49 97.1176L418.481 85.4792L416.541 81.9809ZM398.52 121.325V95.3685H394.52V121.325H398.52ZM348.805 66.0864V51.7243H344.805V66.0864H348.805ZM345.765 53.4327L371.175 68.8996L373.255 65.4828L347.845 50.0159L345.765 53.4327ZM370.215 67.1912V81.8973H374.215V67.1912H370.215ZM345.748 67.7845L371.158 83.5954L373.272 80.1992L347.862 64.3883L345.748 67.7845ZM347.898 53.3995L373.308 36.8278L371.122 33.4774L345.713 50.049L347.898 53.3995ZM395.446 50.0369L371.141 65.5038L373.289 68.8785L397.594 53.4116L395.446 50.0369ZM373.235 83.6177L398.042 68.9116L396.002 65.4708L371.195 80.1769L373.235 83.6177ZM398.042 68.9116L448.36 39.0825L446.32 35.6417L396.002 65.4708L398.042 68.9116ZM394.521 51.7892L395.023 67.2561L399.021 67.1263L398.519 51.6594L394.521 51.7892ZM371.09 36.8064L384.9 46.197L387.149 42.8893L373.34 33.4987L371.09 36.8064ZM384.895 46.1938L395.391 53.3749L397.649 50.0736L387.154 42.8926L384.895 46.1938ZM386.988 46.2961L426.207 24.753L424.281 21.247L385.062 42.7902L386.988 46.2961ZM424.154 24.6769L446.25 39.039L448.43 35.6852L426.334 21.3231L424.154 24.6769ZM343.73 135.281L371.35 148.538L373.08 144.932L345.461 131.675L343.73 135.281ZM395.55 93.6194L371.245 107.095L373.185 110.594L397.49 97.1176L395.55 93.6194ZM371.245 107.095L334.787 127.31L336.727 130.808L373.185 110.594L371.245 107.095ZM374.215 146.735V108.845H370.215V146.735H374.215ZM370.215 146.735V576.494H374.215V146.735H370.215ZM387.091 510.163L394.824 522.536L398.216 520.416L390.483 508.043L387.091 510.163ZM394.52 121.325V521.476H398.52V121.325H394.52ZM346.595 509.103V133.478H342.595V509.103H346.595ZM307.19 536.274L321.552 544.007L323.448 540.485L309.086 532.752L307.19 536.274ZM347.699 562.07L346.595 526.717L342.596 526.842L343.701 562.195L347.699 562.07ZM346.595 526.779V509.103H342.595V526.779H346.595ZM323.647 543.885L345.742 528.418L343.449 525.141L321.353 540.608L323.647 543.885ZM394.824 522.536L427.139 574.24L430.531 572.12L398.216 520.416L394.824 522.536ZM427.139 574.24L442.33 598.545L445.722 596.425L430.531 572.12L427.139 574.24ZM427.764 574.869L523.604 635.632L525.745 632.254L429.906 571.491L427.764 574.869ZM289.24 762.568L22.9884 611.213L21.0116 614.691L287.263 766.046L289.24 762.568ZM343.452 507.462L331.299 515.932L333.587 519.214L345.739 510.744L343.452 507.462ZM331.299 515.932L306.994 532.872L309.281 536.154L333.587 519.214L331.299 515.932ZM257.443 477.703L331.463 519.316L333.423 515.829L259.403 474.216L257.443 477.703ZM219.653 500.735L259.425 477.69L257.42 474.229L217.648 497.275L219.653 500.735ZM523.772 632.158L481.79 653.397L483.596 656.966L525.577 635.728L523.772 632.158ZM217.632 500.726L481.675 656.903L483.711 653.46L219.669 497.284L217.632 500.726ZM148.034 623.513L277.293 699.743L279.325 696.297L150.066 620.068L148.034 623.513ZM404.143 620.055L274.884 546.035L272.896 549.506L402.155 623.526L404.143 620.055ZM376.572 640.362L404.191 623.497L402.107 620.083L374.487 636.948L376.572 640.362ZM481.769 653.408L439.787 675.271L441.635 678.819L483.617 656.955L481.769 653.408ZM374.514 640.379L439.696 678.768L441.726 675.321L376.544 636.932L374.514 640.379ZM341.219 661.949L376.572 640.362L374.487 636.948L339.134 658.536L341.219 661.949ZM439.736 675.299L402.174 696.274L404.124 699.766L441.686 678.791L439.736 675.299ZM339.148 661.958L402.12 699.735L404.178 696.305L341.205 658.527L339.148 661.958ZM279.351 699.727L299.253 687.574L297.168 684.161L277.266 696.313L279.351 699.727ZM299.253 687.574L341.219 661.949L339.134 658.536L297.168 684.161L299.253 687.574ZM402.166 696.278L359.08 720.583L361.045 724.067L404.131 699.762L402.166 696.278ZM297.195 687.591L359.047 724.048L361.078 720.602L299.226 684.145L297.195 687.591ZM164.601 610.244L148.03 620.07L150.07 623.511L166.641 613.685L164.601 610.244ZM96.0697 571.121L164.566 613.664L166.677 610.266L98.1802 567.723L96.0697 571.121ZM98.1277 571.152L137.9 548.107L135.894 544.646L96.1223 567.691L98.1277 571.152ZM205.478 586.008L164.601 610.244L166.641 613.685L207.518 589.448L205.478 586.008ZM135.875 548.096L205.477 589.447L207.52 586.009L137.919 544.657L135.875 548.096ZM137.9 548.107L178.777 524.421L176.771 520.96L135.894 544.646L137.9 548.107ZM178.777 524.421L219.653 500.735L217.648 497.275L176.771 520.96L178.777 524.421ZM272.87 546.05L246.355 561.771L248.395 565.212L274.91 549.49L272.87 546.05ZM246.355 561.771L205.478 586.008L207.518 589.448L248.395 565.212L246.355 561.771ZM176.762 524.416L246.363 565.217L248.386 561.766L178.785 520.965L176.762 524.416ZM23.0027 614.683L60.5652 592.917L58.5598 589.456L20.9973 611.222L23.0027 614.683ZM60.5652 592.917L98.1277 571.152L96.1223 567.691L58.5598 589.456L60.5652 592.917ZM359.061 720.594L321.498 742.327L323.501 745.789L361.064 724.056L359.061 720.594ZM321.482 742.336L287.234 762.585L289.27 766.029L323.518 745.78L321.482 742.336ZM58.5572 592.916L321.495 745.787L323.505 742.329L60.5677 589.458L58.5572 592.916ZM522.674 633.943V649.41H526.674V633.943H522.674ZM24 627.314V612.952H20V627.314H24ZM27.4183 628.131L22.9992 625.582L21.0008 629.047L25.4199 631.596L27.4183 628.131ZM24.4191 629.863V663.772H28.4191V629.863H24.4191ZM523.703 647.662L513.323 653.434L515.267 656.929L525.646 651.158L523.703 647.662ZM516.731 677.005L516.295 655.142L512.296 655.221L512.732 677.085L516.731 677.005ZM51.7235 642.149L27.4184 628.131L25.4199 631.596L49.725 645.614L51.7235 642.149ZM48.7247 643.838L48.0044 677.001L52.0035 677.088L52.7238 643.925L48.7247 643.838ZM289.251 779.146L282.622 775.323L280.624 778.788L287.253 782.611L289.251 779.146ZM279.623 777.055V807.393H283.623V777.055H279.623ZM513.323 653.434L307.166 768.073L309.11 771.568L515.267 656.929L513.323 653.434ZM307.166 768.073L287.28 779.131L289.224 782.626L309.11 771.568L307.166 768.073ZM282.599 809.139L309.114 794.312L307.162 790.821L280.647 805.648L282.599 809.139ZM306.138 769.82V792.567H310.138V769.82H306.138ZM478.331 837.781L511.423 815.685L509.202 812.359L476.11 834.454L478.331 837.781ZM478.196 699.766L511.288 681.261L509.336 677.77L476.244 696.275L478.196 699.766ZM511.288 681.261L515.708 678.79L513.755 675.299L509.336 677.77L511.288 681.261ZM512.312 814.022V679.516H508.312V814.022H512.312ZM25.4383 665.515L28.7526 667.38L30.7143 663.894L27.4 662.029L25.4383 665.515ZM28.7526 667.38L49.0231 678.788L50.9848 675.302L30.7143 663.894L28.7526 667.38ZM27.7335 665.637V802.974H31.7335V665.637H27.7335ZM28.6678 804.667L58.4969 823.448L60.6281 820.063L30.7991 801.282L28.6678 804.667ZM49.0231 678.788L58.5816 684.167L60.5434 680.681L50.9848 675.302L49.0231 678.788ZM60.9767 823.17L68.7102 815.436L65.8817 812.608L58.1483 820.341L60.9767 823.17ZM69.2959 814.022V802.974H65.2959V814.022H69.2959ZM61.5625 821.755V796.345H57.5625V821.755H61.5625ZM68.5975 801.456L60.8641 794.827L58.2609 797.864L65.9944 804.493L68.5975 801.456ZM66.3159 804.718L253.024 909.672L254.984 906.185L68.276 801.231L66.3159 804.718ZM252.004 907.928V937.757H256.004V907.928H252.004ZM253.138 939.56L280.758 952.818L282.489 949.212L254.869 935.954L253.138 939.56ZM283.623 951.015V807.393H279.623V951.015H283.623ZM282.661 952.724L313.595 933.943L311.519 930.524L280.585 949.305L282.661 952.724ZM309.114 794.312L313.533 791.841L311.581 788.35L307.162 790.821L309.114 794.312ZM61.5625 796.345V774.25H57.5625V796.345H61.5625ZM252.004 886.937V907.928H256.004V886.937H252.004ZM58.5596 775.98L253.001 888.668L255.006 885.207L60.5653 772.519L58.5596 775.98ZM252.004 875.89V886.937H256.004V875.89H252.004ZM61.5625 774.25V764.307H57.5625V774.25H61.5625ZM61.5625 764.307V682.424H57.5625V764.307H61.5625ZM68.2914 767.01L60.5579 762.572L58.567 766.042L66.3005 770.479L68.2914 767.01ZM58.5816 684.167L66.3151 688.519L68.2768 685.033L60.5434 680.681L58.5816 684.167ZM73.8153 770.18L68.2914 767.01L66.3005 770.479L71.8244 773.649L73.8153 770.18ZM73.8455 773.632L144.551 731.393L142.5 727.959L71.7942 770.198L73.8455 773.632ZM142.545 731.419L176.793 750.693L178.755 747.207L144.507 727.933L142.545 731.419ZM254.999 874.155L248.37 870.351L246.379 873.82L253.008 877.624L254.999 874.155ZM248.37 870.351L73.8153 770.18L71.8244 773.649L246.379 873.82L248.37 870.351ZM176.033 749.934L245.634 873.07L249.116 871.102L179.515 747.966L176.033 749.934ZM176.793 750.693L209.97 769.364L211.932 765.878L178.755 747.207L176.793 750.693ZM209.97 769.364L253.023 793.593L254.984 790.107L211.932 765.878L209.97 769.364ZM252.004 791.85V842.746H256.004V791.85H252.004ZM252.004 842.746V875.89H256.004V842.746H252.004ZM209.216 768.616L252.268 843.741L255.739 841.752L212.687 766.627L209.216 768.616ZM69.2959 768.745V737.792H65.2959V768.745H69.2959ZM112.716 714.632L142.545 731.419L144.507 727.933L114.678 711.146L112.716 714.632ZM69.2959 737.792V725.144H65.2959V737.792H69.2959ZM82.1305 695.111L65.5588 724.153L69.033 726.135L85.6047 697.093L82.1305 695.111ZM66.3151 688.519L74.6009 693.182L76.5627 689.696L68.2768 685.033L66.3151 688.519ZM74.6009 693.182L82.8868 697.845L84.8485 694.359L76.5627 689.696L74.6009 693.182ZM69.2959 725.144V705.96H65.2959V725.144H69.2959ZM69.2959 705.96V686.776H65.2959V705.96H69.2959ZM73.8447 690.448L65.5589 704.969L69.033 706.951L77.3189 692.43L73.8447 690.448ZM68.2417 739.554L81.4991 732.439L79.6075 728.915L66.3502 736.03L68.2417 739.554ZM81.4991 732.439L114.642 714.651L112.751 711.127L79.6075 728.915L81.4991 732.439ZM82.8867 697.845L96.1441 705.306L98.1059 701.82L84.8485 694.359L82.8867 697.845ZM96.1441 705.306L112.716 714.632L114.678 711.146L98.1059 701.82L96.1441 705.306ZM82.2598 731.72L98.8315 704.606L95.4185 702.52L78.8468 729.634L82.2598 731.72ZM313.536 884.262L478.199 791.84L476.241 788.352L311.578 880.774L313.536 884.262ZM314.557 932.233V904.614H310.557V932.233H314.557ZM314.557 904.614V882.518H310.557V904.614H314.557ZM475.22 790.096V807.393H479.22V790.096H475.22ZM475.22 807.393V836.118H479.22V807.393H475.22ZM395.865 745.804L426.22 728.829L424.268 725.338L393.913 742.312L395.865 745.804ZM475.22 756.573V790.096H479.22V756.573H475.22ZM426.22 728.829L445.002 718.327L443.05 714.836L424.268 725.338L426.22 728.829ZM424.257 728.823L458.272 748.122L460.246 744.643L426.231 725.344L424.257 728.823ZM458.272 748.122L476.233 758.313L478.207 754.834L460.246 744.643L458.272 748.122ZM442.245 717.492L457.478 747.293L461.04 745.472L445.806 715.671L442.245 717.492ZM445.002 718.327L461.599 709.047L459.647 705.555L443.05 714.836L445.002 718.327ZM475.22 698.02V744.058H479.22V698.02H475.22ZM475.22 744.058V756.573H479.22V744.058H475.22ZM313.533 791.841L354.699 768.823L352.747 765.331L311.581 788.35L313.533 791.841ZM314.557 836.307V790.096H310.557V836.307H314.557ZM352.004 766.055L310.838 835.285L314.276 837.329L355.442 768.099L352.004 766.055ZM354.699 768.823L369.877 760.335L367.925 756.844L352.747 765.331L354.699 768.823ZM369.877 760.335L395.865 745.804L393.913 742.312L367.925 756.844L369.877 760.335ZM314.557 882.518V852.689H310.557V882.518H314.557ZM314.557 852.689V836.307H310.557V852.689H314.557ZM367.185 757.562L310.841 851.662L314.273 853.717L370.617 759.617L367.185 757.562ZM314.276 883.54L324.219 866.819L320.781 864.775L310.838 881.496L314.276 883.54ZM324.219 866.819L396.608 745.08L393.17 743.036L320.781 864.775L324.219 866.819ZM393.913 745.804L464.04 785.017L465.993 781.526L395.865 742.312L393.913 745.804ZM464.04 785.017L476.244 791.841L478.196 788.35L465.993 781.526L464.04 785.017ZM323.502 867.528L466.019 785.002L464.014 781.541L321.498 864.066L323.502 867.528ZM282.622 775.323L260.519 762.574L258.52 766.039L280.624 778.788L282.622 775.323ZM260.519 762.574L51.7235 642.149L49.725 645.614L258.52 766.039L260.519 762.574ZM253.023 793.593L258.539 796.697L260.5 793.211L254.985 790.107L253.023 793.593ZM258.539 796.697L280.642 809.136L282.604 805.65L260.5 793.211L258.539 796.697ZM257.52 764.307V794.954H261.52V764.307H257.52ZM461.599 709.047L474.374 701.903L472.422 698.412L459.647 705.555L461.599 709.047ZM474.374 701.903L478.196 699.766L476.244 696.275L472.422 698.412L474.374 701.903ZM458.8 708.124L471.575 736.416L475.221 734.77L462.446 706.478L458.8 708.124ZM471.575 736.416L475.398 744.881L479.043 743.235L475.221 734.77L471.575 736.416ZM471.398 700.157V735.593H475.398V700.157H471.398ZM313.574 906.336L474.415 811.372L472.381 807.928L311.54 902.892L313.574 906.336ZM474.415 811.372L478.237 809.115L476.203 805.671L472.381 807.928L474.415 811.372ZM471.398 809.65V836.118H475.398V809.65H471.398ZM473.398 838.118H477.22V834.118H473.398V838.118ZM293.776 257.423H280.518V261.423H293.776V257.423ZM279.104 258.009L274.685 262.428L277.513 265.256L281.933 260.837L279.104 258.009ZM274.899 289.747L279.318 293.061L281.718 289.861L277.299 286.547L274.899 289.747ZM280.518 293.461H298.195V289.461H280.518V293.461ZM303.508 262.053L294.67 257.634L292.881 261.212L301.719 265.631L303.508 262.053ZM297.679 293.394C299.147 293.785 300.776 294.988 302.441 297.171C304.087 299.328 305.632 302.267 306.978 305.78C309.67 312.801 311.463 321.834 311.801 330.757C312.14 339.708 311.006 348.323 308.038 354.616C305.115 360.813 300.537 364.586 293.776 364.586V368.586C302.481 368.586 308.26 363.522 311.656 356.323C315.005 349.22 316.15 339.883 315.798 330.605C315.446 321.299 313.58 311.827 310.713 304.348C309.28 300.611 307.571 297.3 305.622 294.745C303.692 292.216 301.386 290.242 298.71 289.529L297.679 293.394ZM293.776 364.586C287.594 364.586 280.663 362.531 274.874 356.87C269.078 351.204 264.243 341.743 262.621 326.601L258.644 327.027C260.336 342.82 265.444 353.245 272.077 359.73C278.716 366.222 286.7 368.586 293.776 368.586V364.586ZM262.621 326.601C260.382 305.705 275.134 295.364 281.151 293.359L279.886 289.564C272.645 291.978 256.148 303.732 258.644 327.027L262.621 326.601ZM289.357 297.195C285.244 297.195 281.328 299.643 278.21 303.136C275.054 306.671 272.484 311.512 271.067 316.891C268.227 327.671 269.957 340.976 281.456 350.453L284 347.367C273.978 339.106 272.394 327.554 274.935 317.91C276.208 313.077 278.501 308.816 281.194 305.8C283.923 302.743 286.84 301.195 289.357 301.195V297.195ZM281.456 350.453C285.109 353.464 288.52 354.988 291.675 355.011C294.92 355.034 297.505 353.471 299.417 351.159C303.1 346.703 304.614 339.122 304.614 332.338H300.614C300.614 338.811 299.123 345.236 296.334 348.611C295.008 350.214 293.489 351.024 291.704 351.011C289.83 350.997 287.286 350.075 284 347.367L281.456 350.453ZM304.614 332.338C304.614 325.644 304.061 317.135 302.048 310.235C301.043 306.79 299.631 303.588 297.613 301.214C295.548 298.784 292.813 297.195 289.357 297.195V301.195C291.424 301.195 293.109 302.091 294.565 303.804C296.068 305.573 297.28 308.171 298.208 311.355C300.062 317.712 300.614 325.775 300.614 332.338H304.614ZM279.52 161.641L258.53 173.726L260.525 177.193L281.516 165.107L279.52 161.641ZM282.518 259.423V163.374H278.518V259.423H282.518ZM260.521 150.011L281.512 137.992L279.525 134.521L258.534 146.54L260.521 150.011ZM278.518 136.256V163.374H282.518V136.256H278.518ZM281.666 134.618L257.646 117.79L255.351 121.066L279.371 137.894L281.666 134.618ZM257.646 117.79L254.046 115.268L251.751 118.544L255.351 121.066L257.646 117.79ZM274.832 102.987L279.251 106.606L281.786 103.512L277.367 99.8921L274.832 102.987ZM279.251 106.606L301.347 124.705L303.881 121.611L281.786 103.512L279.251 106.606ZM334.702 127.36L303.768 146.576L305.879 149.974L336.813 130.758L334.702 127.36ZM300.622 123.333L302.831 148.451L306.816 148.1L304.606 122.983L300.622 123.333ZM302.865 147.868L300.656 158.48L304.572 159.296L306.781 148.683L302.865 147.868ZM291.776 165.517V259.423H295.776V165.517H291.776ZM301.414 157.288L292.576 163.917L294.976 167.117L303.814 160.488L301.414 157.288ZM303.634 124.878L373.235 83.6177L371.195 80.1769L301.594 121.437L303.634 124.878ZM281.532 106.783L347.819 67.8105L345.791 64.3623L279.505 103.335L281.532 106.783ZM234.04 135.194L257.525 121.145L255.472 117.712L231.986 131.762L234.04 135.194ZM257.525 121.145L257.792 120.985L255.739 117.552L255.472 117.712L257.525 121.145ZM254.008 118.57L262.294 113.046L260.075 109.718L251.789 115.242L254.008 118.57ZM259.969 112.97L285.931 132.856L288.363 129.681L262.401 109.795L259.969 112.97ZM285.155 131.449L286.26 143.602L290.244 143.24L289.139 131.087L285.155 131.449ZM262.294 113.046L269.751 108.075L267.533 104.747L260.075 109.718L262.294 113.046ZM269.751 108.075L277.209 103.103L274.99 99.7752L267.533 104.747L269.751 108.075ZM267.373 107.957L293.611 129.5L296.15 126.408L269.911 104.865L267.373 107.957ZM292.882 128.041L293.987 153.451L297.983 153.277L296.879 127.867L292.882 128.041ZM274.099 263.842V267.156H278.099V263.842H274.099ZM276.099 269.156H293.776V265.156H276.099V269.156ZM304.614 284.833V274.337H300.614V284.833H304.614ZM304.614 274.337V263.842H300.614V274.337H304.614ZM302.614 272.337H286.042V276.337H302.614V272.337ZM274.099 267.156V281.518H278.099V267.156H274.099ZM274.099 281.518V288.147H278.099V281.518H274.099ZM276.099 283.518H289.357V279.518H276.099V283.518ZM299.859 292.571L302.068 289.256L298.74 287.038L296.531 290.352L299.859 292.571ZM302.068 289.256L304.278 285.942L300.95 283.723L298.74 287.038L302.068 289.256ZM300.404 286.147H276.099V290.147H300.404V286.147Z" fill="white"/>
<g filter="url(#filter0_d_30_554)">
<path d="M345.7 562.132L372.215 576.494L396.52 565.447L418.616 597.485L436.292 601.904L444.026 597.485L428.835 573.18L524.674 633.943V649.41L514.295 655.182L514.731 677.045L510.312 679.516V814.022L477.22 836.117H473.398V809.65L312.557 904.614V932.233L281.623 951.014L254.004 937.757V907.928L67.2959 802.974V814.022L59.5625 821.755L29.7335 802.974V665.637L26.4191 663.772V629.863L22 627.314V612.952L59.5625 591.187L97.125 569.422L136.897 546.376L177.774 522.691L218.651 499.005L258.423 475.959L332.443 517.573L308.138 534.513L322.5 542.246L344.595 526.779L345.7 562.132Z" fill="#C400FF"/>
<path d="M524.675 633.943L428.835 573.18L444.026 597.485L436.292 601.904L418.616 597.485L396.52 565.447L372.215 576.494L345.7 562.132L344.596 526.779L322.5 542.246L308.138 534.513L332.443 517.573L258.423 475.959L218.651 499.005M524.675 633.943L482.693 655.181M524.675 633.943V649.41L514.295 655.181M22 612.952L288.252 764.307L322.5 744.058M22 612.952L59.5625 591.187M22 612.952V627.314L26.4191 629.863M218.651 499.005L482.693 655.181M218.651 499.005L177.774 522.691M482.693 655.181L440.711 677.045M375.529 638.655L403.149 621.79L273.89 547.77L247.375 563.491M375.529 638.655L440.711 677.045M375.529 638.655L340.176 660.242M440.711 677.045L403.149 698.02M340.176 660.242L403.149 698.02M340.176 660.242L298.211 685.868M403.149 698.02L360.062 722.325M298.211 685.868L278.309 698.02L149.05 621.79L165.621 611.965M298.211 685.868L360.062 722.325M360.062 722.325L322.5 744.058M97.125 569.422L165.621 611.965M97.125 569.422L136.897 546.376M97.125 569.422L59.5625 591.187M165.621 611.965L206.498 587.728M136.897 546.376L206.498 587.728M136.897 546.376L177.774 522.691M206.498 587.728L247.375 563.491M177.774 522.691L247.375 563.491M59.5625 591.187L322.5 744.058M26.4191 629.863V663.772L29.7335 665.637M26.4191 629.863L50.7243 643.881M281.623 807.393V777.055M281.623 807.393L308.138 792.567M281.623 807.393V951.014M281.623 807.393L259.52 794.954M514.295 655.181L514.731 677.045L510.312 679.516M514.295 655.181L308.138 769.82M50.7243 643.881L50.004 677.045M50.7243 643.881L259.52 764.307M50.004 677.045L29.7335 665.637M50.004 677.045L59.5625 682.424M281.623 777.055L288.252 780.879L308.138 769.82M281.623 777.055L259.52 764.307M308.138 769.82V792.567M308.138 792.567L312.557 790.096M477.22 698.02L510.312 679.516M477.22 698.02V744.058M477.22 698.02L473.398 700.157M477.22 836.117L510.312 814.022V679.516M477.22 836.117V807.393M477.22 836.117H473.398V809.65M29.7335 665.637V802.974L59.5625 821.755M59.5625 821.755L67.2959 814.022V802.974M59.5625 821.755V796.345M59.5625 682.424V764.307M59.5625 682.424L67.2959 686.776M67.2959 802.974L59.5625 796.345M67.2959 802.974L254.004 907.928M59.5625 796.345V774.25M254.004 907.928V937.757L281.623 951.014M254.004 907.928V886.937M281.623 951.014L312.557 932.233V904.614M312.557 790.096L353.723 767.077M312.557 790.096V836.307M254.004 791.85L210.951 767.621M254.004 791.85V842.746M254.004 791.85L259.52 794.954M59.5625 774.25L254.004 886.937M59.5625 774.25V764.307M254.004 886.937V875.89M254.004 875.89L247.375 872.086M254.004 875.89V842.746M59.5625 764.307L67.2959 768.745M67.2959 768.745L72.8198 771.915M67.2959 768.745V737.792M67.2959 686.776L75.5818 691.439M67.2959 686.776V705.96M72.8198 771.915L143.526 729.676M72.8198 771.915L247.375 872.086M143.526 729.676L177.774 748.95M143.526 729.676L113.697 712.889M177.774 748.95L247.375 872.086M177.774 748.95L210.951 767.621M210.951 767.621L254.004 842.746M67.2959 737.792V725.144M67.2959 737.792L80.5533 730.677M113.697 712.889L80.5533 730.677M113.697 712.889L97.125 703.563M83.8676 696.102L67.2959 725.144M83.8676 696.102L75.5818 691.439M83.8676 696.102L97.125 703.563M67.2959 725.144V705.96M75.5818 691.439L67.2959 705.96M80.5533 730.677L97.125 703.563M312.557 882.518L477.22 790.096M312.557 882.518V904.614M312.557 882.518V852.689M312.557 882.518L322.5 865.797M477.22 790.096V807.393M477.22 790.096V756.573M477.22 790.096L465.016 783.272M312.557 904.614L473.398 809.65M477.22 807.393L473.398 809.65M394.889 744.058L425.244 727.084M394.889 744.058L368.901 758.59M394.889 744.058L322.5 865.797M394.889 744.058L465.016 783.272M425.244 727.084L444.026 716.582M425.244 727.084L459.259 746.383M477.22 756.573L459.259 746.383M477.22 756.573V744.058M444.026 716.582L459.259 746.383M444.026 716.582L460.623 707.301M460.623 707.301L473.398 700.157M460.623 707.301L473.398 735.593M477.22 744.058L473.398 735.593M353.723 767.077L312.557 836.307M353.723 767.077L368.901 758.59M312.557 836.307V852.689M368.901 758.59L312.557 852.689M322.5 865.797L465.016 783.272M259.52 764.307V794.954M473.398 700.157V735.593" stroke="white" stroke-width="4"/>
</g>
<g filter="url(#filter1_d_30_554)">
<path d="M276.099 263.842L280.518 259.423V163.374V136.256L252.899 116.906L261.185 111.382L268.642 106.411L276.099 101.439L302.614 123.158L304.823 148.275L302.614 158.888L293.776 165.517V259.423L302.614 263.842V274.337V284.833L300.404 288.147L298.195 291.461C314.766 295.88 324.709 366.586 293.776 366.586C280.518 366.586 263.947 357.748 260.632 326.814C258.265 304.719 273.89 293.671 280.518 291.461L276.099 288.147V281.518V267.156V263.842Z" fill="#006FFF"/>
<path d="M293.776 259.423H280.518M293.776 259.423L302.614 263.842V274.337M293.776 259.423V165.517L302.614 158.888L304.823 148.275L302.614 123.158L276.099 101.439L268.642 106.411M280.518 259.423L276.099 263.842V267.156M280.518 259.423V163.374V136.256L252.899 116.906L261.185 111.382M276.099 288.147L280.518 291.461M276.099 288.147V281.518M276.099 288.147H300.404M280.518 291.461H298.195M280.518 291.461C273.89 293.671 258.265 304.719 260.632 326.814C263.947 357.748 280.518 366.586 293.776 366.586C324.709 366.586 314.766 295.88 298.195 291.461M298.195 291.461L300.404 288.147M261.185 111.382L287.147 131.268L288.252 143.421M261.185 111.382L268.642 106.411M268.642 106.411L294.88 127.954L295.985 153.364M276.099 267.156H293.776M276.099 267.156V281.518M302.614 274.337V284.833L300.404 288.147M302.614 274.337H286.042M276.099 281.518H289.357M289.357 299.195C276.099 299.195 261.208 331.172 282.728 348.91C296.606 360.349 302.614 345.596 302.614 332.338C302.614 319.081 300.404 299.195 289.357 299.195Z" stroke="white" stroke-width="4" stroke-linecap="round"/>
</g>
<g filter="url(#filter2_i_30_554)">
<path d="M277.204 698.02L147.945 621.79L164.517 611.965L205.393 587.728L246.27 563.491L272.785 547.77L402.044 621.79L374.425 638.655L339.072 660.242L297.106 685.868L277.204 698.02Z" fill="#00C8FF"/>
<path d="M71.7151 771.915L142.421 729.676L176.669 748.95L246.27 872.086L252.899 875.89V842.746L209.846 767.621L252.899 791.85V842.746V875.89L246.27 872.086L71.7151 771.915Z" fill="#00C8FF"/>
<path d="M74.477 691.439L66.1912 686.776V705.96L74.477 691.439Z" fill="#00C8FF"/>
<path d="M112.592 712.889L79.4485 730.677L96.0202 703.563L112.592 712.889Z" fill="#00C8FF"/>
<path d="M442.921 716.582L424.14 727.084L458.154 746.383L442.921 716.582Z" fill="#00C8FF"/>
<path d="M352.618 767.077L311.452 790.096V836.307L352.618 767.077Z" fill="#00C8FF"/>
<path d="M393.784 744.058L321.395 865.797L463.912 783.272L393.784 744.058Z" fill="#00C8FF"/>
<path d="M472.293 700.157L459.518 707.301L472.293 735.593V700.157Z" fill="#00C8FF"/>
<path d="M281.623 348.91C260.103 331.172 274.994 299.195 288.252 299.195C299.3 299.195 301.509 319.081 301.509 332.338C301.509 345.596 295.501 360.349 281.623 348.91Z" fill="#00C8FF"/>
</g>
<path d="M246.27 872.086L252.899 875.89V842.746M246.27 872.086L71.7151 771.915L142.421 729.676L176.669 748.95L246.27 872.086ZM252.899 842.746V791.85L209.846 767.621L252.899 842.746ZM147.945 621.79L277.204 698.02L297.106 685.868L339.072 660.242L374.425 638.655L402.044 621.79L272.785 547.77L246.27 563.491L205.393 587.728L164.517 611.965L147.945 621.79ZM311.452 790.096L352.618 767.077L311.452 836.307V790.096ZM66.1912 686.776L74.477 691.439L66.1912 705.96V686.776ZM112.592 712.889L79.4485 730.677L96.0202 703.563L112.592 712.889ZM393.784 744.058L321.395 865.797L463.912 783.272L393.784 744.058ZM424.14 727.084L442.921 716.582L458.154 746.383L424.14 727.084ZM459.518 707.301L472.293 700.157V735.593L459.518 707.301ZM288.252 299.195C274.994 299.195 260.103 331.172 281.623 348.91C295.501 360.349 301.509 345.596 301.509 332.338C301.509 319.081 299.3 299.195 288.252 299.195Z" stroke="white" stroke-width="4"/>
<g filter="url(#filter3_d_30_554)">
<path d="M345.7 562.132L343.701 562.195L343.737 563.343L344.748 563.891L345.7 562.132ZM372.215 576.494L371.262 578.253L372.137 578.727L373.043 578.315L372.215 576.494ZM379.948 538.932H377.948V539.505L378.252 539.992L379.948 538.932ZM379.948 513.522L379.054 511.733L377.948 512.286V513.522H379.948ZM388.787 509.103L390.483 508.043L389.519 506.501L387.892 507.314L388.787 509.103ZM444.026 597.485L445.018 599.222L446.824 598.189L445.722 596.425L444.026 597.485ZM436.292 601.904L435.807 603.845L436.587 604.039L437.284 603.641L436.292 601.904ZM418.616 597.485L416.969 598.621L417.398 599.242L418.131 599.425L418.616 597.485ZM335.757 129.059L334.787 127.31L334.744 127.334L334.702 127.36L335.757 129.059ZM259.528 175.46L258.468 177.156L259.485 177.792L260.525 177.193L259.528 175.46ZM233.013 158.888H231.013V159.996L231.953 160.584L233.013 158.888ZM233.013 133.478L231.986 131.762L231.013 132.344V133.478H233.013ZM447.34 37.3621H449.34V36.2768L448.43 35.6852L447.34 37.3621ZM447.34 67.1912L448.31 68.9403L449.34 68.3691V67.1912H447.34ZM396.52 95.3685L395.55 93.6194L396.52 95.3685ZM346.805 51.7243L345.713 50.049L344.805 50.6409V51.7243H346.805ZM372.215 81.8973L373.235 83.6177L372.215 81.8973ZM372.215 35.1526L373.34 33.4987L372.238 32.7497L371.122 33.4774L372.215 35.1526ZM396.52 51.7243L398.519 51.6594L398.486 50.6461L397.65 50.0736L396.52 51.7243ZM425.244 23L426.334 21.3231L425.331 20.6707L424.281 21.247L425.244 23ZM396.52 521.476L394.824 522.536L396.52 521.476ZM308.138 534.513L306.994 532.872L304.326 534.732L307.19 536.274L308.138 534.513ZM322.5 542.246L321.552 544.007L322.637 544.592L323.647 543.885L322.5 542.246ZM524.674 633.943H526.674V632.843L525.745 632.254L524.674 633.943ZM288.252 764.307L287.263 766.046L288.271 766.619L289.27 766.029L288.252 764.307ZM22 612.952L20.9973 611.222L20 611.799V612.952H22ZM258.423 475.96L259.403 474.216L258.408 473.657L257.42 474.229L258.423 475.96ZM218.651 499.005L217.648 497.274L218.651 499.005ZM149.05 621.79L148.03 620.07L145.12 621.795L148.034 623.513L149.05 621.79ZM278.309 698.02L277.293 699.743L278.327 700.353L279.351 699.727L278.309 698.02ZM403.149 621.79L404.191 623.497L407.077 621.735L404.143 620.055L403.149 621.79ZM273.89 547.77L274.884 546.035L273.872 545.455L272.87 546.05L273.89 547.77ZM340.176 660.242L339.134 658.536L340.176 660.242ZM298.211 685.868L297.168 684.161L298.211 685.868ZM97.125 569.422L96.1223 567.691L97.125 569.422ZM165.621 611.965L166.641 613.685L165.621 611.965ZM136.897 546.376L135.894 544.646L136.897 546.376ZM247.375 563.491L248.395 565.212L247.375 563.491ZM524.674 649.41L525.646 651.158L526.674 650.586V649.41H524.674ZM288.252 780.879L287.253 782.611L288.234 783.177L289.224 782.626L288.252 780.879ZM22 627.314H20V628.47L21.0008 629.047L22 627.314ZM26.4191 663.772H24.4191V664.941L25.4382 665.515L26.4191 663.772ZM514.731 677.045L515.708 678.79L516.755 678.205L516.731 677.005L514.731 677.045ZM50.7243 643.881L51.7235 642.149H51.7235L50.7243 643.881ZM50.004 677.045L49.0231 678.788L50.004 677.045ZM477.22 836.118V838.118H477.827L478.331 837.781L477.22 836.118ZM510.312 814.022L511.423 815.685L512.312 815.091V814.022H510.312ZM510.312 679.516L509.336 677.77L510.312 679.516ZM29.7335 665.637L30.7143 663.894H30.7143L29.7335 665.637ZM29.7335 802.974H27.7335V804.078L28.6678 804.667L29.7335 802.974ZM59.5625 821.755L58.4969 823.448L59.8478 824.298L60.9767 823.17L59.5625 821.755ZM67.2959 814.022L68.7102 815.436L69.2959 814.85V814.022H67.2959ZM254.004 937.757H252.004V939.016L253.138 939.56L254.004 937.757ZM281.623 951.015L280.758 952.818L281.735 953.287L282.661 952.724L281.623 951.015ZM312.557 932.233L313.595 933.943L314.557 933.359V932.233H312.557ZM254.004 791.85L254.984 790.107L254.004 791.85ZM72.8198 771.915L71.8244 773.649L72.8198 771.915ZM177.774 748.95L178.755 747.207L177.774 748.95ZM247.375 872.086L246.379 873.82L247.375 872.086ZM83.8676 696.102L84.8485 694.359L83.8676 696.102ZM80.5533 730.677L81.4991 732.439L80.5533 730.677ZM97.125 703.563L98.1059 701.82H98.1059L97.125 703.563ZM394.889 744.058L393.913 742.312L394.889 744.058ZM444.026 716.582L443.05 714.836H443.049L444.026 716.582ZM368.901 758.59L367.925 756.844L368.901 758.59ZM465.016 783.272L465.993 781.526L465.016 783.272ZM259.52 764.307L260.519 762.574L259.52 764.307ZM259.52 794.954L258.539 796.697H258.539L259.52 794.954ZM473.398 700.157L472.422 698.412L473.398 700.157ZM473.398 809.65L472.381 807.928L473.398 809.65ZM473.398 836.118H471.398V838.118H473.398V836.118ZM276.099 263.842L274.685 262.428L274.099 263.013V263.842H276.099ZM276.099 288.147H274.099V289.147L274.899 289.747L276.099 288.147ZM302.614 284.833L304.278 285.942L304.614 285.438V284.833H302.614ZM302.614 263.842H304.614V262.606L303.508 262.053L302.614 263.842ZM260.632 326.814L258.644 327.027L260.632 326.814ZM282.728 348.91L284 347.367L282.728 348.91ZM280.518 136.256H282.518V135.216L281.666 134.618L280.518 136.256ZM252.899 116.906L251.789 115.242L249.355 116.865L251.751 118.544L252.899 116.906ZM276.099 101.439L277.367 99.8921L276.221 98.9541L274.99 99.7752L276.099 101.439ZM302.614 158.888L303.814 160.488L304.418 160.035L304.572 159.296L302.614 158.888ZM293.776 165.517L292.576 163.917L291.776 164.517V165.517H293.776ZM287.147 131.268L289.139 131.087L289.059 130.214L288.363 129.681L287.147 131.268ZM286.26 143.602C286.36 144.702 287.333 145.513 288.433 145.413C289.533 145.313 290.344 144.34 290.244 143.24L286.26 143.602ZM294.88 127.954L296.879 127.867L296.84 126.975L296.15 126.408L294.88 127.954ZM293.987 153.451C294.035 154.554 294.969 155.41 296.072 155.362C297.176 155.314 298.031 154.381 297.983 153.277L293.987 153.451ZM293.776 269.156C294.88 269.156 295.776 268.261 295.776 267.156C295.776 266.052 294.88 265.156 293.776 265.156V269.156ZM286.042 272.337C284.938 272.337 284.042 273.233 284.042 274.337C284.042 275.442 284.938 276.337 286.042 276.337V272.337ZM289.357 283.518C290.461 283.518 291.357 282.623 291.357 281.518C291.357 280.414 290.461 279.518 289.357 279.518V283.518ZM344.748 563.891L371.262 578.253L373.168 574.736L346.653 560.374L344.748 563.891ZM373.043 578.315L397.348 567.267L395.693 563.626L371.387 574.674L373.043 578.315ZM398.216 564.387L381.644 537.872L378.252 539.992L394.824 566.507L398.216 564.387ZM381.948 538.932V513.522H377.948V538.932H381.948ZM380.843 515.311L389.681 510.892L387.892 507.314L379.054 511.733L380.843 515.311ZM443.033 595.749L435.3 600.168L437.284 603.641L445.018 599.222L443.033 595.749ZM437.979 600.829L381.635 512.447L378.262 514.597L434.606 602.979L437.979 600.829ZM436.777 599.964L419.101 595.545L418.131 599.425L435.807 603.845L436.777 599.964ZM420.262 596.35L398.167 564.311L394.874 566.582L416.969 598.621L420.262 596.35ZM345.49 131.689L336.652 127.27L334.863 130.848L343.701 135.267L345.49 131.689ZM260.588 173.764L234.073 157.192L231.953 160.584L258.468 177.156L260.588 173.764ZM235.013 158.888V133.478H231.013V158.888H235.013ZM232.038 135.224L258.553 150.022L260.502 146.529L233.987 131.731L232.038 135.224ZM257.528 148.275V175.46H261.528V148.275H257.528ZM445.34 37.3621V67.1912H449.34V37.3621H445.34ZM446.37 65.442L416.541 81.9809L418.481 85.4792L448.31 68.9403L446.37 65.442ZM415.765 82.7551L394.774 120.35L398.266 122.3L419.257 84.705L415.765 82.7551ZM416.541 81.9809L395.55 93.6194L397.49 97.1176L418.481 85.4792L416.541 81.9809ZM398.52 121.325V95.3685H394.52V121.325H398.52ZM348.805 66.0864V51.7243H344.805V66.0864H348.805ZM345.765 53.4327L371.175 68.8996L373.255 65.4828L347.845 50.0159L345.765 53.4327ZM370.215 67.1912V81.8973H374.215V67.1912H370.215ZM345.748 67.7845L371.158 83.5954L373.272 80.1992L347.862 64.3883L345.748 67.7845ZM347.898 53.3995L373.308 36.8278L371.122 33.4774L345.713 50.049L347.898 53.3995ZM395.446 50.0369L371.141 65.5038L373.289 68.8785L397.594 53.4116L395.446 50.0369ZM373.235 83.6177L398.042 68.9116L396.002 65.4708L371.195 80.1769L373.235 83.6177ZM398.042 68.9116L448.36 39.0825L446.32 35.6417L396.002 65.4708L398.042 68.9116ZM394.521 51.7892L395.023 67.2561L399.021 67.1263L398.519 51.6594L394.521 51.7892ZM371.09 36.8064L384.9 46.197L387.149 42.8893L373.34 33.4987L371.09 36.8064ZM384.895 46.1938L395.391 53.3749L397.65 50.0736L387.154 42.8926L384.895 46.1938ZM386.988 46.2961L426.207 24.753L424.281 21.247L385.062 42.7902L386.988 46.2961ZM424.154 24.6769L446.25 39.039L448.43 35.6852L426.334 21.3231L424.154 24.6769ZM343.73 135.281L371.35 148.538L373.08 144.932L345.461 131.675L343.73 135.281ZM395.55 93.6194L371.245 107.095L373.185 110.594L397.49 97.1176L395.55 93.6194ZM371.245 107.095L334.787 127.31L336.727 130.808L373.185 110.594L371.245 107.095ZM374.215 146.735V108.845H370.215V146.735H374.215ZM370.215 146.735V576.494H374.215V146.735H370.215ZM387.091 510.163L394.824 522.536L398.216 520.416L390.483 508.043L387.091 510.163ZM394.52 121.325V521.476H398.52V121.325H394.52ZM346.595 509.103V133.478H342.595V509.103H346.595ZM307.19 536.274L321.552 544.007L323.448 540.485L309.086 532.752L307.19 536.274ZM347.699 562.07L346.595 526.717L342.596 526.842L343.701 562.195L347.699 562.07ZM346.595 526.779V509.103H342.595V526.779H346.595ZM323.647 543.885L345.742 528.418L343.449 525.141L321.353 540.608L323.647 543.885ZM394.824 522.536L427.139 574.24L430.531 572.12L398.216 520.416L394.824 522.536ZM427.139 574.24L442.33 598.545L445.722 596.425L430.531 572.12L427.139 574.24ZM427.764 574.869L523.604 635.632L525.745 632.254L429.906 571.491L427.764 574.869ZM289.24 762.568L22.9884 611.213L21.0116 614.691L287.263 766.046L289.24 762.568ZM343.452 507.462L331.299 515.932L333.587 519.214L345.739 510.744L343.452 507.462ZM331.299 515.932L306.994 532.872L309.281 536.154L333.587 519.214L331.299 515.932ZM257.443 477.703L331.463 519.316L333.423 515.829L259.403 474.216L257.443 477.703ZM219.653 500.735L259.425 477.69L257.42 474.229L217.648 497.274L219.653 500.735ZM523.772 632.158L481.79 653.397L483.596 656.966L525.577 635.728L523.772 632.158ZM217.632 500.726L481.675 656.903L483.711 653.46L219.669 497.284L217.632 500.726ZM148.034 623.513L277.293 699.743L279.325 696.297L150.066 620.068L148.034 623.513ZM404.143 620.055L274.884 546.035L272.896 549.506L402.155 623.526L404.143 620.055ZM376.572 640.362L404.191 623.497L402.107 620.083L374.487 636.948L376.572 640.362ZM481.769 653.408L439.787 675.271L441.635 678.819L483.617 656.955L481.769 653.408ZM374.514 640.379L439.696 678.768L441.726 675.321L376.544 636.932L374.514 640.379ZM341.219 661.949L376.572 640.362L374.487 636.948L339.134 658.536L341.219 661.949ZM439.736 675.299L402.174 696.274L404.124 699.766L441.686 678.791L439.736 675.299ZM339.148 661.958L402.12 699.735L404.178 696.305L341.205 658.527L339.148 661.958ZM279.351 699.727L299.253 687.574L297.168 684.161L277.266 696.313L279.351 699.727ZM299.253 687.574L341.219 661.949L339.134 658.536L297.168 684.161L299.253 687.574ZM402.166 696.278L359.08 720.583L361.045 724.067L404.131 699.762L402.166 696.278ZM297.195 687.591L359.047 724.048L361.078 720.602L299.226 684.145L297.195 687.591ZM164.601 610.244L148.03 620.07L150.07 623.511L166.641 613.685L164.601 610.244ZM96.0698 571.121L164.566 613.664L166.677 610.266L98.1802 567.723L96.0698 571.121ZM98.1277 571.152L137.9 548.107L135.894 544.646L96.1223 567.691L98.1277 571.152ZM205.478 586.008L164.601 610.244L166.641 613.685L207.518 589.448L205.478 586.008ZM135.875 548.096L205.477 589.447L207.52 586.009L137.919 544.657L135.875 548.096ZM137.9 548.107L178.777 524.421L176.771 520.96L135.894 544.646L137.9 548.107ZM178.777 524.421L219.653 500.735L217.648 497.274L176.771 520.96L178.777 524.421ZM272.87 546.05L246.355 561.771L248.395 565.212L274.91 549.49L272.87 546.05ZM246.355 561.771L205.478 586.008L207.518 589.448L248.395 565.212L246.355 561.771ZM176.762 524.416L246.363 565.217L248.386 561.766L178.785 520.965L176.762 524.416ZM23.0027 614.683L60.5652 592.917L58.5598 589.456L20.9973 611.222L23.0027 614.683ZM60.5652 592.917L98.1277 571.152L96.1223 567.691L58.5598 589.456L60.5652 592.917ZM359.061 720.594L321.498 742.327L323.501 745.789L361.064 724.056L359.061 720.594ZM321.482 742.336L287.234 762.585L289.27 766.029L323.518 745.78L321.482 742.336ZM58.5572 592.916L321.495 745.787L323.505 742.329L60.5677 589.458L58.5572 592.916ZM522.674 633.943V649.41H526.674V633.943H522.674ZM24 627.314V612.952H20V627.314H24ZM27.4184 628.131L22.9992 625.582L21.0008 629.047L25.4199 631.596L27.4184 628.131ZM24.4191 629.863V663.772H28.4191V629.863H24.4191ZM523.703 647.662L513.323 653.434L515.267 656.929L525.646 651.158L523.703 647.662ZM516.731 677.005L516.295 655.142L512.296 655.221L512.732 677.085L516.731 677.005ZM51.7235 642.149L27.4184 628.131L25.4199 631.596L49.725 645.614L51.7235 642.149ZM48.7247 643.838L48.0044 677.001L52.0035 677.088L52.7238 643.925L48.7247 643.838ZM289.251 779.146L282.622 775.323L280.624 778.788L287.253 782.611L289.251 779.146ZM279.623 777.055V807.393H283.623V777.055H279.623ZM513.323 653.434L307.166 768.073L309.11 771.568L515.267 656.929L513.323 653.434ZM307.166 768.073L287.28 779.131L289.224 782.626L309.11 771.568L307.166 768.073ZM282.599 809.139L309.114 794.312L307.162 790.821L280.647 805.648L282.599 809.139ZM306.138 769.82V792.567H310.138V769.82H306.138ZM478.331 837.781L511.423 815.685L509.202 812.359L476.11 834.454L478.331 837.781ZM478.196 699.766L511.288 681.261L509.336 677.77L476.244 696.274L478.196 699.766ZM511.288 681.261L515.708 678.79L513.755 675.299L509.336 677.77L511.288 681.261ZM512.312 814.022V679.516H508.312V814.022H512.312ZM25.4382 665.515L28.7526 667.38L30.7143 663.894L27.4 662.029L25.4382 665.515ZM28.7526 667.38L49.0231 678.788L50.9848 675.302L30.7143 663.894L28.7526 667.38ZM27.7335 665.637V802.974H31.7335V665.637H27.7335ZM28.6678 804.667L58.4969 823.448L60.6281 820.063L30.7991 801.282L28.6678 804.667ZM49.0231 678.788L58.5816 684.167L60.5434 680.681L50.9848 675.302L49.0231 678.788ZM60.9767 823.17L68.7102 815.436L65.8817 812.608L58.1483 820.341L60.9767 823.17ZM69.2959 814.022V802.974H65.2959V814.022H69.2959ZM61.5625 821.755V796.345H57.5625V821.755H61.5625ZM68.5975 801.456L60.8641 794.827L58.2609 797.864L65.9944 804.493L68.5975 801.456ZM66.3159 804.718L253.024 909.672L254.984 906.185L68.276 801.231L66.3159 804.718ZM252.004 907.928V937.757H256.004V907.928H252.004ZM253.138 939.56L280.758 952.818L282.489 949.212L254.869 935.954L253.138 939.56ZM283.623 951.015V807.393H279.623V951.015H283.623ZM282.661 952.724L313.595 933.943L311.519 930.524L280.585 949.305L282.661 952.724ZM309.114 794.312L313.533 791.841L311.581 788.35L307.162 790.821L309.114 794.312ZM61.5625 796.345V774.25H57.5625V796.345H61.5625ZM252.004 886.937V907.928H256.004V886.937H252.004ZM58.5596 775.98L253.001 888.668L255.006 885.207L60.5653 772.519L58.5596 775.98ZM252.004 875.89V886.937H256.004V875.89H252.004ZM61.5625 774.25V764.307H57.5625V774.25H61.5625ZM61.5625 764.307V682.424H57.5625V764.307H61.5625ZM68.2914 767.01L60.5579 762.572L58.567 766.042L66.3005 770.479L68.2914 767.01ZM58.5816 684.167L66.3151 688.519L68.2768 685.033L60.5434 680.681L58.5816 684.167ZM73.8153 770.18L68.2914 767.01L66.3005 770.479L71.8244 773.649L73.8153 770.18ZM73.8455 773.632L144.551 731.393L142.5 727.959L71.7942 770.198L73.8455 773.632ZM142.545 731.419L176.793 750.693L178.755 747.207L144.507 727.933L142.545 731.419ZM254.999 874.155L248.37 870.351L246.379 873.82L253.008 877.624L254.999 874.155ZM248.37 870.351L73.8153 770.18L71.8244 773.649L246.379 873.82L248.37 870.351ZM176.033 749.934L245.634 873.07L249.116 871.102L179.515 747.966L176.033 749.934ZM176.793 750.693L209.97 769.364L211.932 765.878L178.755 747.207L176.793 750.693ZM209.97 769.364L253.023 793.593L254.984 790.107L211.932 765.878L209.97 769.364ZM252.004 791.85V842.746H256.004V791.85H252.004ZM252.004 842.746V875.89H256.004V842.746H252.004ZM209.216 768.616L252.268 843.741L255.739 841.752L212.687 766.627L209.216 768.616ZM69.2959 768.745V737.792H65.2959V768.745H69.2959ZM112.716 714.632L142.545 731.419L144.507 727.933L114.678 711.146L112.716 714.632ZM69.2959 737.792V725.144H65.2959V737.792H69.2959ZM82.1305 695.111L65.5588 724.153L69.033 726.135L85.6047 697.094L82.1305 695.111ZM66.3151 688.519L74.6009 693.182L76.5627 689.696L68.2768 685.033L66.3151 688.519ZM74.6009 693.182L82.8868 697.845L84.8485 694.359L76.5627 689.696L74.6009 693.182ZM69.2959 725.144V705.96H65.2959V725.144H69.2959ZM69.2959 705.96V686.776H65.2959V705.96H69.2959ZM73.8447 690.448L65.5588 704.969L69.033 706.951L77.3189 692.43L73.8447 690.448ZM68.2417 739.554L81.4991 732.439L79.6075 728.915L66.3502 736.03L68.2417 739.554ZM81.4991 732.439L114.642 714.651L112.751 711.127L79.6075 728.915L81.4991 732.439ZM82.8868 697.845L96.1441 705.306L98.1059 701.82L84.8485 694.359L82.8868 697.845ZM96.1441 705.306L112.716 714.632L114.678 711.146L98.1059 701.82L96.1441 705.306ZM82.2598 731.72L98.8315 704.606L95.4185 702.52L78.8468 729.634L82.2598 731.72ZM313.536 884.262L478.199 791.84L476.241 788.352L311.578 880.774L313.536 884.262ZM314.557 932.233V904.614H310.557V932.233H314.557ZM314.557 904.614V882.518H310.557V904.614H314.557ZM475.22 790.096V807.393H479.22V790.096H475.22ZM475.22 807.393V836.118H479.22V807.393H475.22ZM395.865 745.804L426.22 728.829L424.268 725.338L393.913 742.312L395.865 745.804ZM475.22 756.573V790.096H479.22V756.573H475.22ZM426.22 728.829L445.002 718.327L443.049 714.836L424.268 725.338L426.22 728.829ZM424.257 728.823L458.272 748.122L460.246 744.643L426.231 725.344L424.257 728.823ZM458.272 748.122L476.233 758.313L478.207 754.834L460.246 744.643L458.272 748.122ZM442.245 717.492L457.478 747.293L461.04 745.472L445.806 715.671L442.245 717.492ZM445.002 718.327L461.599 709.047L459.647 705.555L443.05 714.836L445.002 718.327ZM475.22 698.02V744.058H479.22V698.02H475.22ZM475.22 744.058V756.573H479.22V744.058H475.22ZM313.533 791.841L354.699 768.823L352.747 765.331L311.581 788.35L313.533 791.841ZM314.557 836.307V790.096H310.557V836.307H314.557ZM352.004 766.055L310.838 835.285L314.276 837.329L355.442 768.099L352.004 766.055ZM354.699 768.823L369.877 760.335L367.925 756.844L352.747 765.331L354.699 768.823ZM369.877 760.335L395.865 745.804L393.913 742.312L367.925 756.844L369.877 760.335ZM314.557 882.518V852.689H310.557V882.518H314.557ZM314.557 852.689V836.307H310.557V852.689H314.557ZM367.185 757.562L310.841 851.662L314.273 853.717L370.617 759.617L367.185 757.562ZM314.276 883.54L324.219 866.819L320.781 864.775L310.838 881.496L314.276 883.54ZM324.219 866.819L396.608 745.08L393.17 743.036L320.781 864.775L324.219 866.819ZM393.913 745.804L464.04 785.017L465.993 781.526L395.865 742.312L393.913 745.804ZM464.04 785.017L476.244 791.841L478.196 788.35L465.993 781.526L464.04 785.017ZM323.502 867.528L466.019 785.002L464.014 781.541L321.498 864.066L323.502 867.528ZM282.622 775.323L260.519 762.574L258.52 766.039L280.624 778.788L282.622 775.323ZM260.519 762.574L51.7235 642.149L49.725 645.614L258.52 766.039L260.519 762.574ZM253.023 793.593L258.539 796.697L260.5 793.211L254.984 790.107L253.023 793.593ZM258.539 796.697L280.642 809.136L282.604 805.65L260.5 793.211L258.539 796.697ZM257.52 764.307V794.954H261.52V764.307H257.52ZM461.599 709.047L474.374 701.903L472.422 698.412L459.647 705.555L461.599 709.047ZM474.374 701.903L478.196 699.766L476.244 696.274L472.422 698.412L474.374 701.903ZM458.8 708.124L471.575 736.416L475.221 734.77L462.446 706.478L458.8 708.124ZM471.575 736.416L475.398 744.881L479.043 743.235L475.221 734.77L471.575 736.416ZM471.398 700.157V735.593H475.398V700.157H471.398ZM313.574 906.336L474.415 811.372L472.381 807.928L311.54 902.892L313.574 906.336ZM474.415 811.372L478.237 809.115L476.204 805.671L472.381 807.928L474.415 811.372ZM471.398 809.65V836.118H475.398V809.65H471.398ZM473.398 838.118H477.22V834.118H473.398V838.118ZM293.776 257.423H280.518V261.423H293.776V257.423ZM279.104 258.009L274.685 262.428L277.513 265.256L281.933 260.837L279.104 258.009ZM274.899 289.747L279.318 293.061L281.718 289.861L277.299 286.547L274.899 289.747ZM280.518 293.461H298.195V289.461H280.518V293.461ZM303.508 262.053L294.67 257.634L292.881 261.212L301.719 265.631L303.508 262.053ZM297.679 293.394C299.147 293.785 300.776 294.988 302.441 297.171C304.087 299.328 305.632 302.267 306.978 305.78C309.67 312.801 311.463 321.834 311.801 330.757C312.14 339.708 311.006 348.323 308.038 354.616C305.115 360.813 300.537 364.586 293.776 364.586V368.586C302.481 368.586 308.26 363.522 311.656 356.323C315.005 349.22 316.15 339.883 315.798 330.605C315.446 321.299 313.58 311.827 310.713 304.348C309.28 300.611 307.571 297.3 305.622 294.745C303.692 292.216 301.386 290.242 298.71 289.529L297.679 293.394ZM293.776 364.586C287.594 364.586 280.663 362.531 274.874 356.87C269.078 351.204 264.243 341.743 262.621 326.601L258.644 327.027C260.336 342.82 265.444 353.245 272.077 359.73C278.716 366.222 286.7 368.586 293.776 368.586V364.586ZM262.621 326.601C260.382 305.705 275.134 295.364 281.151 293.359L279.886 289.564C272.645 291.978 256.148 303.732 258.644 327.027L262.621 326.601ZM289.357 297.195C285.244 297.195 281.328 299.643 278.21 303.136C275.054 306.671 272.484 311.512 271.067 316.891C268.227 327.671 269.957 340.976 281.456 350.453L284 347.367C273.978 339.106 272.394 327.554 274.935 317.91C276.208 313.077 278.501 308.816 281.194 305.8C283.923 302.743 286.841 301.195 289.357 301.195V297.195ZM281.456 350.453C285.109 353.464 288.52 354.988 291.675 355.011C294.92 355.034 297.505 353.471 299.417 351.159C303.1 346.703 304.614 339.122 304.614 332.338H300.614C300.614 338.811 299.123 345.236 296.334 348.611C295.008 350.214 293.489 351.024 291.704 351.011C289.83 350.997 287.286 350.075 284 347.367L281.456 350.453ZM304.614 332.338C304.614 325.644 304.061 317.135 302.048 310.235C301.043 306.79 299.631 303.588 297.613 301.214C295.548 298.784 292.813 297.195 289.357 297.195V301.195C291.424 301.195 293.109 302.091 294.565 303.804C296.068 305.573 297.28 308.171 298.208 311.355C300.062 317.712 300.614 325.775 300.614 332.338H304.614ZM279.52 161.641L258.53 173.726L260.525 177.193L281.516 165.107L279.52 161.641ZM282.518 259.423V163.374H278.518V259.423H282.518ZM260.521 150.011L281.512 137.992L279.525 134.521L258.534 146.54L260.521 150.011ZM278.518 136.256V163.374H282.518V136.256H278.518ZM281.666 134.618L254.046 115.268L251.751 118.544L279.371 137.894L281.666 134.618ZM274.832 102.987L301.347 124.705L303.881 121.611L277.367 99.8921L274.832 102.987ZM334.702 127.36L303.768 146.576L305.879 149.974L336.813 130.758L334.702 127.36ZM300.622 123.333L302.831 148.451L306.816 148.1L304.606 122.983L300.622 123.333ZM302.865 147.868L300.656 158.48L304.572 159.296L306.781 148.683L302.865 147.868ZM291.776 165.517V259.423H295.776V165.517H291.776ZM301.414 157.288L292.576 163.917L294.976 167.117L303.814 160.488L301.414 157.288ZM303.634 124.878L373.235 83.6177L371.195 80.1769L301.594 121.437L303.634 124.878ZM281.532 106.783L347.819 67.8105L345.791 64.3623L279.505 103.335L281.532 106.783ZM234.04 135.194L257.792 120.985L255.739 117.552L231.986 131.762L234.04 135.194ZM254.008 118.57L262.294 113.046L260.075 109.718L251.789 115.242L254.008 118.57ZM259.969 112.97L285.931 132.856L288.363 129.681L262.401 109.795L259.969 112.97ZM285.155 131.449L286.26 143.602L290.244 143.24L289.139 131.087L285.155 131.449ZM262.294 113.046L269.751 108.075L267.533 104.747L260.075 109.718L262.294 113.046ZM269.751 108.075L277.209 103.103L274.99 99.7752L267.533 104.747L269.751 108.075ZM267.373 107.957L293.611 129.5L296.15 126.408L269.911 104.865L267.373 107.957ZM292.882 128.041L293.987 153.451L297.983 153.277L296.879 127.867L292.882 128.041ZM274.099 263.842V267.156H278.099V263.842H274.099ZM276.099 269.156H293.776V265.156H276.099V269.156ZM304.614 284.833V274.337H300.614V284.833H304.614ZM304.614 274.337V263.842H300.614V274.337H304.614ZM302.614 272.337H286.042V276.337H302.614V272.337ZM274.099 267.156V281.518H278.099V267.156H274.099ZM274.099 281.518V288.147H278.099V281.518H274.099ZM276.099 283.518H289.357V279.518H276.099V283.518ZM299.859 292.571L302.068 289.256L298.74 287.038L296.531 290.352L299.859 292.571ZM302.068 289.256L304.278 285.942L300.95 283.723L298.74 287.038L302.068 289.256ZM300.404 286.147H276.099V290.147H300.404V286.147Z" fill="white"/>
</g>
<defs>
<filter id="filter0_d_30_554" x="0" y="453.657" width="546.674" height="519.63" filterUnits="userSpaceOnUse" color-interpolation-filters="sRGB">
<feFlood flood-opacity="0" result="BackgroundImageFix"/>
<feColorMatrix in="SourceAlpha" type="matrix" values="0 0 0 0 0 0 0 0 0 0 0 0 0 0 0 0 0 0 127 0" result="hardAlpha"/>
<feOffset/>
<feGaussianBlur stdDeviation="10"/>
<feComposite in2="hardAlpha" operator="out"/>
<feColorMatrix type="matrix" values="0 0 0 0 0.766667 0 0 0 0 0 0 0 0 0 1 0 0 0 1 0"/>
<feBlend mode="normal" in2="BackgroundImageFix" result="effect1_dropShadow_30_554"/>
<feBlend mode="normal" in="SourceGraphic" in2="effect1_dropShadow_30_554" result="shape"/>
</filter>
<filter id="filter1_d_30_554" x="229.355" y="78.9541" width="106.504" height="309.632" filterUnits="userSpaceOnUse" color-interpolation-filters="sRGB">
<feFlood flood-opacity="0" result="BackgroundImageFix"/>
<feColorMatrix in="SourceAlpha" type="matrix" values="0 0 0 0 0 0 0 0 0 0 0 0 0 0 0 0 0 0 127 0" result="hardAlpha"/>
<feOffset/>
<feGaussianBlur stdDeviation="10"/>
<feComposite in2="hardAlpha" operator="out"/>
<feColorMatrix type="matrix" values="0 0 0 0 0 0 0 0 0 0.433333 0 0 0 0 1 0 0 0 1 0"/>
<feBlend mode="normal" in2="BackgroundImageFix" result="effect1_dropShadow_30_554"/>
<feBlend mode="normal" in="SourceGraphic" in2="effect1_dropShadow_30_554" result="shape"/>
</filter>
<filter id="filter2_i_30_554" x="64.1912" y="297.195" width="410.102" height="582.148" filterUnits="userSpaceOnUse" color-interpolation-filters="sRGB">
<feFlood flood-opacity="0" result="BackgroundImageFix"/>
<feBlend mode="normal" in="SourceGraphic" in2="BackgroundImageFix" result="shape"/>
<feColorMatrix in="SourceAlpha" type="matrix" values="0 0 0 0 0 0 0 0 0 0 0 0 0 0 0 0 0 0 127 0" result="hardAlpha"/>
<feOffset/>
<feGaussianBlur stdDeviation="10"/>
<feComposite in2="hardAlpha" operator="arithmetic" k2="-1" k3="1"/>
<feColorMatrix type="matrix" values="0 0 0 0 0.766667 0 0 0 0 0 0 0 0 0 1 0 0 0 1 0"/>
<feBlend mode="normal" in2="shape" result="effect1_innerShadow_30_554"/>
</filter>
<filter id="filter3_d_30_554" x="0" y="0.670776" width="546.674" height="972.616" filterUnits="userSpaceOnUse" color-interpolation-filters="sRGB">
<feFlood flood-opacity="0" result="BackgroundImageFix"/>
<feColorMatrix in="SourceAlpha" type="matrix" values="0 0 0 0 0 0 0 0 0 0 0 0 0 0 0 0 0 0 127 0" result="hardAlpha"/>
<feOffset/>
<feGaussianBlur stdDeviation="10"/>
<feComposite in2="hardAlpha" operator="out"/>
<feColorMatrix type="matrix" values="0 0 0 0 1 0 0 0 0 0 0 0 0 0 0.85 0 0 0 1 0"/>
<feBlend mode="normal" in2="BackgroundImageFix" result="effect1_dropShadow_30_554"/>
<feBlend mode="normal" in="SourceGraphic" in2="effect1_dropShadow_30_554" result="shape"/>
</filter>
</defs>
</svg>
