<svg width="46" height="36" viewBox="0 0 46 36" fill="none" xmlns="http://www.w3.org/2000/svg">
<path d="M7.48 25.054H11.1268V26.6249H5.1044V25.054L8.1295 22.3842C8.39959 22.14 8.59946 21.9013 8.72894 21.6681C8.85841 21.435 8.92317 21.1926 8.92317 20.941C8.92317 20.5524 8.79175 20.2398 8.52906 20.0029C8.27002 19.7662 7.92402 19.6478 7.49101 19.6478C7.15806 19.6478 6.7936 19.72 6.3976 19.8642C6.00164 20.0048 5.57798 20.2158 5.12646 20.497V18.6764C5.60753 18.5172 6.08305 18.397 6.55307 18.3156C7.02299 18.2305 7.48366 18.188 7.93508 18.188C8.92677 18.188 9.69644 18.4062 10.2441 18.8429C10.7955 19.2795 11.0712 19.8882 11.0712 20.6689C11.0712 21.1205 10.9547 21.5422 10.7216 21.9345C10.4884 22.3231 9.99817 22.8448 9.25066 23.4999L7.47996 25.054L7.48 25.054ZM40.5768 28.172C41.1355 28.3163 41.5593 28.568 41.8479 28.9269C42.1403 29.2821 42.2865 29.7354 42.2865 30.2868C42.2865 31.1083 41.9719 31.7336 41.3428 32.1629C40.7137 32.5885 39.7961 32.8012 38.5897 32.8012C38.1642 32.8012 37.7368 32.766 37.3075 32.6957C36.8819 32.6291 36.4602 32.5274 36.0419 32.3904V30.7419C36.4416 30.9416 36.8375 31.0934 37.2297 31.197C37.6257 31.297 38.0143 31.3469 38.3954 31.3469C38.9616 31.3469 39.3945 31.2489 39.6942 31.0528C39.9977 30.8566 40.1494 30.5754 40.1494 30.209C40.1494 29.8316 39.994 29.5466 39.6832 29.3542C39.3761 29.1581 38.9209 29.0601 38.3178 29.0601H37.4629V27.6834H38.3621C38.8987 27.6834 39.2983 27.6002 39.561 27.4336C39.8238 27.2634 39.9552 27.0062 39.9552 26.6621C39.9552 26.3439 39.8275 26.0978 39.5722 25.9239C39.3168 25.75 38.9561 25.663 38.4898 25.663C38.1457 25.663 37.7978 25.7019 37.4463 25.7796C37.0947 25.8573 36.745 25.972 36.3972 26.1237V24.5584C36.8191 24.4399 37.2372 24.3511 37.6517 24.2919C38.0661 24.2327 38.4732 24.2032 38.8729 24.2031C39.9496 24.2031 40.7544 24.3807 41.2873 24.7359C41.8239 25.0875 42.0921 25.6185 42.0922 26.329C42.0922 26.8137 41.9646 27.2115 41.7092 27.5223C41.4539 27.8296 41.0765 28.046 40.5769 28.1718L40.5768 28.172ZM21.2674 9.96144H23.1546V4.60501L21.2174 5.00466V3.5504L23.1435 3.15074H25.175V9.96134H27.0623V11.4378H21.2674V9.96144ZM45.8914 35.0899V21.4486H32.2502V0.228882H15.5775V15.3859H0.420563V35.0899H45.8914Z" fill="white"/>
</svg>
