<svg width="85" height="84" viewBox="0 0 85 84" fill="none" xmlns="http://www.w3.org/2000/svg">
<g filter="url(#filter0_d_30_724)">
<path d="M31.5354 54.6108C34.421 57.1642 38.2182 58.7143 42.3783 58.7143C51.4222 58.7143 58.7434 51.3946 58.7434 42.3492C58.7434 33.3054 51.4237 25.9841 42.3783 25.9841C36.939 25.9841 32.1232 28.6335 29.1497 32.7096L27.9902 34.2989H29.9575H38.537C38.5633 34.2989 38.5846 34.3203 38.5846 34.3465V38.537C38.5846 38.5633 38.5633 38.5846 38.537 38.5846H21.0476C21.0214 38.5846 21 38.5633 21 38.537V21.0476C21 21.0214 21.0214 21 21.0476 21H25.2381C25.2644 21 25.2857 21.0214 25.2857 21.0476V27.8669V30.4719L27.0288 28.5361C30.8418 24.3016 36.3769 21.6543 42.5318 21.699C53.9334 21.7818 63.0532 30.9918 63.029 42.3941C63.0048 53.7786 53.7684 63 42.3783 63C37.0411 63 32.1791 60.9764 28.5133 57.6531L28.5133 57.653C28.487 57.6292 28.4917 57.5966 28.508 57.5803L28.508 57.5802L31.4734 54.6149C31.4927 54.5955 31.5203 54.5975 31.5354 54.6108ZM31.5354 54.6108L32.1981 53.8619M31.5354 54.6108C31.5355 54.6109 31.5355 54.6109 31.5356 54.6109L32.1981 53.8619M32.1981 53.8619C31.7844 53.496 31.1569 53.5172 30.7663 53.9078L27.8009 56.8731L26.2857 21.0476C26.2857 20.4691 25.8166 20 25.2381 20H21.0476C20.4691 20 20 20.4691 20 21.0476V38.537C20 39.1156 20.4691 39.5846 21.0476 39.5846H38.537C39.1156 39.5846 39.5846 39.1156 39.5846 38.537V34.3465C39.5846 33.768 39.1156 33.2989 38.537 33.2989H31.2191C31.0629 33.4913 30.9116 33.6878 30.7654 33.8883L29.9575 33.2989V32.2989H30.7526C33.5689 29.0429 37.7309 26.9841 42.3783 26.9841C50.8713 26.9841 57.7434 33.8576 57.7434 42.3492C57.7434 50.8423 50.8699 57.7143 42.3783 57.7143C38.4713 57.7143 34.9076 56.2595 32.1981 53.8619Z" fill="#C300FF" stroke="white" stroke-width="2"/>
</g>
<defs>
<filter id="filter0_d_30_724" x="0" y="0" width="84.0291" height="84" filterUnits="userSpaceOnUse" color-interpolation-filters="sRGB">
<feFlood flood-opacity="0" result="BackgroundImageFix"/>
<feColorMatrix in="SourceAlpha" type="matrix" values="0 0 0 0 0 0 0 0 0 0 0 0 0 0 0 0 0 0 127 0" result="hardAlpha"/>
<feOffset/>
<feGaussianBlur stdDeviation="10"/>
<feComposite in2="hardAlpha" operator="out"/>
<feColorMatrix type="matrix" values="0 0 0 0 0.766667 0 0 0 0 0 0 0 0 0 1 0 0 0 1 0"/>
<feBlend mode="normal" in2="BackgroundImageFix" result="effect1_dropShadow_30_724"/>
<feBlend mode="normal" in="SourceGraphic" in2="effect1_dropShadow_30_724" result="shape"/>
</filter>
</defs>
</svg>
